<svg width="41" height="40" viewBox="0 0 41 40" fill="none" xmlns="http://www.w3.org/2000/svg">
<path d="M20.3824 13.3305C16.7381 13.3305 13.7641 16.3275 13.7641 20C13.7641 23.6725 16.7381 26.6695 20.3824 26.6695C24.0268 26.6695 27.0008 23.6725 27.0008 20C27.0008 16.3275 24.0268 13.3305 20.3824 13.3305ZM40.2326 20C40.2326 17.2381 40.2574 14.5013 40.1035 11.7444C39.9496 8.54226 39.2247 5.70034 36.901 3.35876C34.5725 1.01217 31.7573 0.286681 28.5797 0.131576C25.839 -0.0235287 23.1231 0.00148823 20.3874 0.00148823C17.6467 0.00148823 14.9309 -0.0235287 12.1951 0.131576C9.01753 0.286681 6.1974 1.01717 3.87377 3.35876C1.54518 5.70534 0.825254 8.54226 0.671339 11.7444C0.517423 14.5063 0.542248 17.2431 0.542248 20C0.542248 22.7569 0.517423 25.4987 0.671339 28.2556C0.825254 31.4577 1.55015 34.2997 3.87377 36.6412C6.20236 38.9878 9.01753 39.7133 12.1951 39.8684C14.9358 40.0235 17.6517 39.9985 20.3874 39.9985C23.1281 39.9985 25.844 40.0235 28.5797 39.8684C31.7573 39.7133 34.5774 38.9828 36.901 36.6412C39.2296 34.2947 39.9496 31.4577 40.1035 28.2556C40.2624 25.4987 40.2326 22.7619 40.2326 20ZM20.3824 30.2619C14.7472 30.2619 10.1992 25.6788 10.1992 20C10.1992 14.3212 14.7472 9.73807 20.3824 9.73807C26.0177 9.73807 30.5657 14.3212 30.5657 20C30.5657 25.6788 26.0177 30.2619 20.3824 30.2619ZM30.9827 11.7144C29.667 11.7144 28.6045 10.6437 28.6045 9.31778C28.6045 7.99189 29.667 6.92116 30.9827 6.92116C32.2985 6.92116 33.361 7.99189 33.361 9.31778C33.3614 9.63262 33.3001 9.94445 33.1808 10.2354C33.0614 10.5263 32.8862 10.7907 32.6653 11.0133C32.4444 11.236 32.182 11.4125 31.8933 11.5328C31.6046 11.6531 31.2952 11.7148 30.9827 11.7144Z" fill="#1E1E1E"/>
</svg>
