<svg width="41" height="40" viewBox="0 0 41 40" fill="none" xmlns="http://www.w3.org/2000/svg">
<path d="M9.17679 4.44642C9.17624 5.62509 8.7369 6.75526 7.95544 7.58829C7.17397 8.42132 6.11438 8.88899 5.00978 8.8884C3.90517 8.88781 2.84602 8.41901 2.06533 7.58515C1.28465 6.75128 0.846372 5.62065 0.846924 4.44198C0.847477 3.2633 1.28681 2.13314 2.06828 1.3001C2.84974 0.467072 3.90933 -0.000588781 5.01394 5.56328e-07C6.11855 0.000589894 7.1777 0.469382 7.95838 1.30325C8.73907 2.13711 9.17734 3.26775 9.17679 4.44642ZM9.30174 12.1793H0.971872V40H9.30174V12.1793ZM22.4629 12.1793H14.1747V40H22.3796V25.4008C22.3796 17.2679 32.313 16.5124 32.313 25.4008V40H40.5387V22.3788C40.5387 8.66841 25.8365 9.17949 22.3796 15.9124L22.4629 12.1793Z" fill="#1E1E1E"/>
</svg>
