<svg width="50" height="50" viewBox="0 0 50 22" fill="none" xmlns="http://www.w3.org/2000/svg">
<path d="M12.2349 10.7889C12.8421 10.481 12.9042 9.52518 12.3426 9.13183L6.76449 5.22497C6.70178 5.18104 6.6295 5.15781 6.5556 5.15781L6.56026 4.63682L6.55559 5.15781C6.17904 5.15781 6.0039 5.69546 6.29087 5.97045L11.2465 10.719C11.4851 10.9477 11.8182 11.0002 12.1054 10.8546L12.2349 10.7889Z" fill="black" stroke="black" stroke-width="0.97949"/>
<path d="M6.29924 16.0551C6.84673 15.6753 6.82892 14.7634 6.26739 14.4248L4.42356 13.313C4.23628 13.2001 4.01718 13.1749 3.81237 13.2429L3.21604 13.4407C2.54916 13.6619 2.39873 14.6655 2.96529 15.1136L4.72106 16.5024C4.98632 16.7122 5.33648 16.7229 5.61485 16.5298L6.29924 16.0551Z" fill="black" stroke="black" stroke-width="0.97949"/>
<path d="M24.9497 4.59441L10.0254 17.0213L6.44266 17.8783L5.43964 17.0598L23.3652 2.10493C23.9781 1.59367 24.8231 1.71709 25.2674 2.38274C25.7257 3.06938 25.5823 4.06769 24.9497 4.59441Z" fill="black" stroke="black" stroke-width="0.97949"/>
<path d="M1.21338 21H15.4809" stroke="black" stroke-width="2" stroke-linecap="round"/>
</svg>
