<svg width="12" height="14" viewBox="0 0 12 14" fill="none" xmlns="http://www.w3.org/2000/svg">
<path d="M8.26675 10.3333L9.13342 13.2667H8.40008L6.66675 10.3333H4.66675C4.30008 10.3333 4.00008 10.0333 4.00008 9.66666C4.00008 9.3 4.30008 9 4.66675 9H6.66675L8.40008 6.06666H9.13342L8.26675 9H10.1667L10.6667 8.33333H11.3334L10.9334 9.66666L11.3334 11H10.6667L10.1667 10.3333H8.26675ZM1.83341 3.66666L1.33341 3H0.666748L1.06675 4.33333L0.666748 5.66666H1.33341L1.83341 5L3.73342 5L2.86675 7.93333H3.60008L5.33342 5L7.33342 5C7.70008 5 8.00008 4.7 8.00008 4.33333C8.00008 3.96666 7.70008 3.66666 7.33342 3.66666L5.33342 3.66666L3.60008 0.73333L2.86675 0.73333L3.73342 3.66666L1.83341 3.66666Z" fill="#00BDD6"/>
</svg>
