<svg width="36" height="24" viewBox="0 0 36 24" fill="none" xmlns="http://www.w3.org/2000/svg">
<path d="M1.8 0C2.24088 5.96553e-05 2.66641 0.166087 2.99587 0.466591C3.32533 0.767095 3.53582 1.18118 3.5874 1.63029L3.6 1.84631V12.9242H14.4V3.69262C14.4001 3.2404 14.5619 2.80392 14.8549 2.46599C15.1479 2.12805 15.5515 1.91215 15.9894 1.85924L16.2 1.84631H30.6C31.9774 1.84623 33.3027 2.38603 34.3049 3.35527C35.307 4.32451 35.9102 5.64991 35.991 7.06029L36 7.38524V22.1557C35.9995 22.6263 35.8238 23.0789 35.5089 23.4211C35.1939 23.7633 34.7635 23.9692 34.3055 23.9968C33.8475 24.0244 33.3965 23.8716 33.0447 23.5695C32.6929 23.2675 32.4668 22.839 32.4126 22.3718L32.4 22.1557V16.6168H3.6V22.1557C3.59949 22.6263 3.42382 23.0789 3.10887 23.4211C2.79393 23.7633 2.36348 23.9692 1.90549 23.9968C1.44749 24.0244 0.996517 23.8716 0.644701 23.5695C0.292886 23.2675 0.0667865 22.839 0.0125999 22.3718L0 22.1557V1.84631C0 1.35664 0.189642 0.887023 0.527208 0.540772C0.864773 0.194522 1.32261 0 1.8 0Z" fill="#1E1E1E"/>
</svg>
