<?xml version="1.0" encoding="UTF-8" standalone="no"?>
<svg
xmlns:dc="http://purl.org/dc/elements/1.1/"
xmlns:cc="http://creativecommons.org/ns#"
xmlns:rdf="http://www.w3.org/1999/02/22-rdf-syntax-ns#"
xmlns:svg="http://www.w3.org/2000/svg"
xmlns="http://www.w3.org/2000/svg"
xmlns:xlink="http://www.w3.org/1999/xlink"
xmlns:sodipodi="http://sodipodi.sourceforge.net/DTD/sodipodi-0.dtd"
xmlns:inkscape="http://www.inkscape.org/namespaces/inkscape"
id="svg2"
version="1.1"
inkscape:version="0.48.0 r9654"
width="250"
height="222.52208"
xml:space="preserve"
sodipodi:docname="Learjet_85_Factsheet-2.pdf"><metadata
id="metadata8"><rdf:RDF><cc:Work
rdf:about=""><dc:format>image/svg+xml</dc:format><dc:type
rdf:resource="http://purl.org/dc/dcmitype/StillImage" /><dc:title></dc:title></cc:Work></rdf:RDF></metadata><defs
id="defs6"><clipPath
clipPathUnits="userSpaceOnUse"
id="clipPath16"><path
d="M 0,0 612,0 612,792 0,792 0,0 z"
id="path18"
inkscape:connector-curvature="0" /></clipPath><clipPath
clipPathUnits="userSpaceOnUse"
id="clipPath34"><path
d="m 484.8,712.711 87.509,0 0,61.008 -87.509,0 0,-61.008 z"
id="path36"
inkscape:connector-curvature="0" /></clipPath><linearGradient
x1="0"
y1="0"
x2="1"
y2="0"
gradientUnits="userSpaceOnUse"
gradientTransform="matrix(40.021866,0,0,-40.021866,504.77112,741.724)"
spreadMethod="pad"
id="linearGradient126"><stop
style="stop-opacity:1;stop-color:#bf2033"
offset="0"
id="stop128" /><stop
style="stop-opacity:1;stop-color:#ffffff"
offset="1"
id="stop130" /></linearGradient><linearGradient
x1="0"
y1="0"
x2="1"
y2="0"
gradientUnits="userSpaceOnUse"
gradientTransform="matrix(22.626221,0,0,-22.626221,487.05508,768.88107)"
spreadMethod="pad"
id="linearGradient146"><stop
style="stop-opacity:1;stop-color:#bf2033"
offset="0"
id="stop148" /><stop
style="stop-opacity:1;stop-color:#ffffff"
offset="1"
id="stop150" /></linearGradient><linearGradient
x1="0"
y1="0"
x2="1"
y2="0"
gradientUnits="userSpaceOnUse"
gradientTransform="matrix(27.16069,0,0,-27.16069,491.79871,759.17076)"
spreadMethod="pad"
id="linearGradient166"><stop
style="stop-opacity:1;stop-color:#bf2033"
offset="0"
id="stop168" /><stop
style="stop-opacity:1;stop-color:#ffffff"
offset="1"
id="stop170" /></linearGradient><linearGradient
x1="0"
y1="0"
x2="1"
y2="0"
gradientUnits="userSpaceOnUse"
gradientTransform="matrix(31.638,0,0,-31.638,496.60168,749.472)"
spreadMethod="pad"
id="linearGradient186"><stop
style="stop-opacity:1;stop-color:#bf2033"
offset="0"
id="stop188" /><stop
style="stop-opacity:1;stop-color:#ffffff"
offset="1"
id="stop190" /></linearGradient><clipPath
clipPathUnits="userSpaceOnUse"
id="clipPath198"><path
d="m 0,590.625 612,0 0,104.625 -612,0 0,-104.625 z"
id="path200"
inkscape:connector-curvature="0" /></clipPath><linearGradient
inkscape:collect="always"
xlink:href="#linearGradient126"
id="linearGradient3333"
gradientUnits="userSpaceOnUse"
gradientTransform="matrix(40.021866,0,0,-40.021866,504.77112,741.724)"
spreadMethod="pad"
x1="0"
y1="0"
x2="1"
y2="0" /><linearGradient
inkscape:collect="always"
xlink:href="#linearGradient146"
id="linearGradient3335"
gradientUnits="userSpaceOnUse"
gradientTransform="matrix(22.626221,0,0,-22.626221,487.05508,768.88107)"
spreadMethod="pad"
x1="0"
y1="0"
x2="1"
y2="0" /><linearGradient
inkscape:collect="always"
xlink:href="#linearGradient166"
id="linearGradient3337"
gradientUnits="userSpaceOnUse"
gradientTransform="matrix(27.16069,0,0,-27.16069,491.79871,759.17076)"
spreadMethod="pad"
x1="0"
y1="0"
x2="1"
y2="0" /><linearGradient
inkscape:collect="always"
xlink:href="#linearGradient186"
id="linearGradient3339"
gradientUnits="userSpaceOnUse"
gradientTransform="matrix(31.638,0,0,-31.638,496.60168,749.472)"
spreadMethod="pad"
x1="0"
y1="0"
x2="1"
y2="0" /></defs><sodipodi:namedview
pagecolor="#ffffff"
bordercolor="#666666"
borderopacity="1"
objecttolerance="10"
gridtolerance="10"
guidetolerance="10"
inkscape:pageopacity="0"
inkscape:pageshadow="2"
inkscape:window-width="861"
inkscape:window-height="691"
id="namedview4"
showgrid="false"
fit-margin-top="0"
fit-margin-left="0"
fit-margin-right="0"
fit-margin-bottom="0"
inkscape:zoom="2.2649438"
inkscape:cx="125"
inkscape:cy="111.26104"
inkscape:window-x="0"
inkscape:window-y="0"
inkscape:window-maximized="0"
inkscape:current-layer="g10" /><g
id="g10"
inkscape:groupmode="layer"
inkscape:label="Learjet_85_Factsheet-2"
transform="matrix(1.25,0,0,-1.25,-553.21994,1096.0484)"><path
d="m 0,0 612,0 0,15.75 -612,0 L 0,0 z"
style="fill:#0d0d0d;fill-opacity:1;fill-rule:nonzero;stroke:none"
id="path28"
inkscape:connector-curvature="0" /><g
id="g3281"
transform="matrix(2.9179206,0,0,2.9179206,-972.03283,-1380.8119)"><g
transform="translate(490.8011,724.2857)"
id="g38"><path
inkscape:connector-curvature="0"
id="path40"
style="fill:#989696;fill-opacity:1;fill-rule:evenodd;stroke:none"
d="M 0,0 C 0.324,0 0.522,0.123 0.592,0.37 0.627,0.493 0.612,0.591 0.546,0.664 0.485,0.74 0.381,0.777 0.235,0.777 l -1.983,0 L -1.969,0 0,0 z m 0.409,1.437 c 0.09,0 0.175,0.033 0.257,0.099 C 0.747,1.603 0.802,1.685 0.83,1.783 0.858,1.881 0.847,1.96 0.799,2.02 0.752,2.083 0.676,2.115 0.572,2.115 l -1.938,0 -0.194,-0.678 1.969,0 z M 1.106,1.123 C 1.384,0.928 1.475,0.662 1.379,0.327 1.296,0.036 1.121,-0.199 0.852,-0.38 0.573,-0.566 0.247,-0.659 -0.125,-0.659 l -2.818,0 0.978,3.433 2.729,0 C 1.148,2.774 1.417,2.638 1.572,2.366 1.669,2.195 1.687,2.001 1.625,1.783 1.546,1.508 1.373,1.288 1.106,1.123" /></g><g
transform="translate(498.3435,725.3477)"
id="g42"><path
inkscape:connector-curvature="0"
id="path44"
style="fill:#989696;fill-opacity:1;fill-rule:evenodd;stroke:none"
d="M 0,0 C 0.097,0.341 0.05,0.618 -0.143,0.83 -0.335,1.045 -0.641,1.152 -1.06,1.152 -1.48,1.152 -1.847,1.045 -2.161,0.83 -2.475,0.618 -2.68,0.341 -2.777,0 c -0.1,-0.348 -0.054,-0.628 0.135,-0.839 0.19,-0.212 0.496,-0.318 0.919,-0.318 0.426,0 0.794,0.106 1.104,0.318 C -0.305,-0.628 -0.099,-0.348 0,0 m 0.808,0 c -0.146,-0.512 -0.451,-0.931 -0.916,-1.257 -0.536,-0.376 -1.137,-0.564 -1.804,-0.564 -0.667,0 -1.16,0.188 -1.478,0.564 -0.277,0.326 -0.342,0.745 -0.196,1.257 0.144,0.506 0.449,0.921 0.914,1.247 0.54,0.379 1.14,0.569 1.801,0.569 0.661,0 1.153,-0.19 1.477,-0.569 C 0.885,0.921 0.952,0.506 0.808,0" /></g><g
transform="translate(506.1653,723.6265)"
id="g46"><path
inkscape:connector-curvature="0"
id="path48"
style="fill:#989696;fill-opacity:1;fill-rule:evenodd;stroke:none"
d="m 0,0 -0.786,0 0.695,2.437 -0.014,0 -2.101,-1.968 -0.98,1.968 -0.013,0 L -3.894,0 -4.68,0 l 0.979,3.433 0.92,0 0.901,-1.821 1.939,1.821 0.92,0 L 0,0 z" /></g><g
transform="translate(512.5334,724.2857)"
id="g50"><path
inkscape:connector-curvature="0"
id="path52"
style="fill:#989696;fill-opacity:1;fill-rule:evenodd;stroke:none"
d="M 0,0 C 0.325,0 0.522,0.123 0.592,0.37 0.627,0.493 0.612,0.591 0.547,0.664 0.485,0.74 0.381,0.777 0.235,0.777 l -1.983,0 L -1.969,0 0,0 z m 0.409,1.437 c 0.09,0 0.175,0.033 0.257,0.099 C 0.747,1.603 0.802,1.685 0.83,1.783 0.858,1.881 0.847,1.96 0.799,2.02 0.752,2.083 0.676,2.115 0.572,2.115 l -1.938,0 -0.194,-0.678 1.969,0 z M 1.106,1.123 C 1.384,0.928 1.475,0.662 1.379,0.327 1.297,0.036 1.121,-0.199 0.852,-0.38 0.573,-0.566 0.247,-0.659 -0.125,-0.659 l -2.818,0 0.978,3.433 2.729,0 C 1.148,2.774 1.417,2.638 1.572,2.366 1.669,2.195 1.687,2.001 1.625,1.783 1.546,1.508 1.373,1.288 1.106,1.123" /></g><g
transform="translate(519.5405,725.0253)"
id="g54"><path
inkscape:connector-curvature="0"
id="path56"
style="fill:#989696;fill-opacity:1;fill-rule:evenodd;stroke:none"
d="M 0,0 -0.308,1.408 -1.42,0 0,0 z m 1.097,-1.399 -0.794,0 -0.161,0.74 -2.071,0 -0.582,-0.74 -0.794,0 2.697,3.433 0.969,0 0.736,-3.433 z" /></g><g
transform="translate(526.6063,725.4993)"
id="g58"><path
inkscape:connector-curvature="0"
id="path60"
style="fill:#989696;fill-opacity:1;fill-rule:evenodd;stroke:none"
d="M 0,0 C 0.166,0 0.308,0.041 0.424,0.123 0.539,0.206 0.617,0.318 0.658,0.46 0.696,0.593 0.678,0.699 0.605,0.778 0.534,0.86 0.416,0.901 0.252,0.901 l -1.773,0 L -1.777,0 0,0 z m 0.855,-1.873 -0.884,0 -0.449,1.214 -1.487,0 -0.346,-1.214 -0.786,0 0.979,3.433 2.647,0 C 0.896,1.56 1.161,1.456 1.324,1.247 1.489,1.042 1.523,0.771 1.428,0.436 1.272,-0.111 0.928,-0.455 0.397,-0.597 l 0.458,-1.276 z" /></g><g
transform="translate(533.0118,724.2857)"
id="g62"><path
inkscape:connector-curvature="0"
id="path64"
style="fill:#989696;fill-opacity:1;fill-rule:evenodd;stroke:none"
d="M 0,0 C 0.366,0 0.7,0.147 1.001,0.441 1.186,0.621 1.31,0.819 1.371,1.034 1.46,1.346 1.432,1.604 1.288,1.806 1.143,2.012 0.914,2.115 0.598,2.115 l -1.433,0 L -1.438,0 0,0 z M 0.737,2.774 C 1.335,2.774 1.765,2.612 2.024,2.29 2.287,1.971 2.343,1.547 2.193,1.019 2.049,0.514 1.739,0.1 1.263,-0.223 0.834,-0.514 0.369,-0.659 -0.134,-0.659 l -2.277,0 0.978,3.433 2.17,0 z" /></g><g
transform="translate(538.7764,723.6265)"
id="g66"><path
inkscape:connector-curvature="0"
id="path68"
style="fill:#989696;fill-opacity:1;fill-rule:nonzero;stroke:none"
d="m 0,0 -0.786,0 0.979,3.433 0.786,0 L 0,0 z" /></g><g
transform="translate(545.8318,723.6265)"
id="g70"><path
inkscape:connector-curvature="0"
id="path72"
style="fill:#989696;fill-opacity:1;fill-rule:nonzero;stroke:none"
d="m 0,0 -3.63,0 0.978,3.433 3.505,0 -0.187,-0.659 -2.72,0 -0.2,-0.702 1.889,0 -0.188,-0.659 -1.889,0 -0.215,-0.754 2.845,0 L 0,0 z" /></g><g
transform="translate(551.8614,725.4993)"
id="g74"><path
inkscape:connector-curvature="0"
id="path76"
style="fill:#989696;fill-opacity:1;fill-rule:evenodd;stroke:none"
d="M 0,0 C 0.167,0 0.308,0.041 0.424,0.123 0.539,0.206 0.617,0.318 0.658,0.46 0.696,0.593 0.679,0.699 0.606,0.778 0.534,0.86 0.416,0.901 0.252,0.901 l -1.772,0 L -1.777,0 0,0 z m 0.855,-1.873 -0.884,0 -0.449,1.214 -1.487,0 -0.346,-1.214 -0.786,0 0.979,3.433 2.647,0 C 0.896,1.56 1.161,1.456 1.325,1.247 1.489,1.042 1.524,0.771 1.428,0.436 1.272,-0.111 0.929,-0.455 0.397,-0.597 l 0.458,-1.276 z" /></g><g
transform="translate(492.3003,712.9391)"
id="g78"><path
inkscape:connector-curvature="0"
id="path80"
style="fill:#be2032;fill-opacity:1;fill-rule:nonzero;stroke:none"
d="m 0,0 -7.5,0 2.242,7.867 1.801,0 L -5.269,1.51 0.43,1.51 0,0 z" /></g><g
transform="translate(501.7549,712.9391)"
id="g82"><path
inkscape:connector-curvature="0"
id="path84"
style="fill:#be2032;fill-opacity:1;fill-rule:nonzero;stroke:none"
d="m 0,0 -8.319,0 2.243,7.867 8.032,0 -0.43,-1.511 -6.232,0 -0.458,-1.608 4.328,0 -0.431,-1.51 -4.328,0 -0.492,-1.728 6.518,0 L 0,0 z" /></g><g
transform="translate(510.1279,716.1443)"
id="g86"><path
inkscape:connector-curvature="0"
id="path88"
style="fill:#be2032;fill-opacity:1;fill-rule:evenodd;stroke:none"
d="M 0,0 -0.707,3.227 -3.254,0 0,0 z m 2.514,-3.205 -1.821,0 -0.366,1.695 -4.748,0 -1.332,-1.695 -1.822,0 6.182,7.866 2.22,0 1.687,-7.866 z" /></g><g
transform="translate(520.8441,717.2309)"
id="g90"><path
inkscape:connector-curvature="0"
id="path92"
style="fill:#be2032;fill-opacity:1;fill-rule:evenodd;stroke:none"
d="M 0,0 C 0.382,0 0.706,0.094 0.971,0.283 1.236,0.471 1.415,0.728 1.508,1.054 1.594,1.358 1.555,1.601 1.388,1.782 1.223,1.97 0.953,2.064 0.578,2.064 l -4.062,0 L -4.073,0 0,0 z m 1.959,-4.292 -2.026,0 -1.029,2.782 -3.407,0 -0.793,-2.782 -1.801,0 2.243,7.867 6.067,0 C 2.052,3.575 2.66,3.336 3.035,2.858 3.412,2.387 3.492,1.768 3.273,1 2.915,-0.254 2.128,-1.043 0.909,-1.369 l 1.05,-2.923 z" /></g><g
transform="translate(530.7426,715.5576)"
id="g94"><path
inkscape:connector-curvature="0"
id="path96"
style="fill:#be2032;fill-opacity:1;fill-rule:nonzero;stroke:none"
d="M 0,0 C -0.258,-0.905 -0.772,-1.608 -1.542,-2.108 -2.31,-2.6 -3.281,-2.847 -4.454,-2.847 c -2.149,0 -3.03,0.967 -2.642,2.901 l 1.811,0 c -0.066,-0.449 -0.004,-0.768 0.188,-0.956 0.199,-0.188 0.554,-0.282 1.066,-0.282 0.668,0 1.176,0.094 1.523,0.282 0.356,0.196 0.602,0.533 0.738,1.011 l 1.465,5.139 1.801,0 L 0,0 z" /></g><g
transform="translate(540.075,712.9391)"
id="g98"><path
inkscape:connector-curvature="0"
id="path100"
style="fill:#be2032;fill-opacity:1;fill-rule:nonzero;stroke:none"
d="m 0,0 -8.319,0 2.243,7.867 8.032,0 -0.431,-1.511 -6.231,0 -0.458,-1.608 4.328,0 -0.431,-1.51 -4.328,0 L -6.087,1.51 0.43,1.51 0,0 z" /></g><g
transform="translate(551.6178,719.2952)"
id="g102"><path
inkscape:connector-curvature="0"
id="path104"
style="fill:#be2032;fill-opacity:1;fill-rule:nonzero;stroke:none"
d="m 0,0 -3.53,0 -1.812,-6.356 -1.801,0 1.812,6.356 -3.53,0 0.431,1.51 8.86,0 L 0,0 z" /></g><g
id="g116"><g
id="g122"><g
id="g124"><path
d="m 501.334,744.623 c 0,0 0.991,-2.083 1.902,-3.943 l 0,0 c 0.911,-1.855 4.279,-1.855 4.279,-1.855 l 0,0 12.934,0 12.828,0 c 2.314,0 1.515,-0.078 6.775,3.586 l 0,0 c -0.182,-0.074 -0.98,-0.402 -3.963,-1.635 l 0,0 c -2.537,-1.046 -3.339,-0.995 -5.698,1.499 l 0,0 c -2.19,2.312 -8.045,2.348 -8.045,2.348 l 0,0 -21.012,0 z m 38.757,-2.196 c 0.004,10e-4 0.007,0.002 0.008,0.003 l 0,0 c -0.002,-10e-4 -0.005,-0.002 -0.008,-0.003 m -0.008,-0.004 c 0.003,10e-4 0.005,0.003 0.008,0.004 l 0,0 c -0.003,-10e-4 -0.005,-0.002 -0.008,-0.004 m -0.028,-0.01 c -10e-4,-10e-4 -0.002,-10e-4 -0.003,-0.002 l 0,0 c 0.014,0.005 0.024,0.009 0.031,0.012 l 0,0 c -0.013,-0.005 -0.028,-0.01 -0.028,-0.01"
style="fill:url(#linearGradient3333);stroke:none"
id="path132"
inkscape:connector-curvature="0" /></g></g></g><g
id="g136"><g
id="g142"><g
id="g144"><path
d="m 487.055,773.719 c 0,0 1.014,-2.083 1.925,-3.943 l 0,0 c 0.91,-1.855 4.279,-1.855 4.279,-1.855 l 0,0 8.789,0 c 3.622,0 7.303,-3.574 7.61,-3.878 l 0,0 c -0.352,0.351 -5.086,5.068 -7.129,7.328 l 0,0 c -2.122,2.348 -5.383,2.348 -5.383,2.348 l 0,0 -10.091,0 z"
style="fill:url(#linearGradient3335);stroke:none"
id="path152"
inkscape:connector-curvature="0" /></g></g></g><g
id="g156"><g
id="g162"><g
id="g164"><path
d="m 491.799,764.02 c 0,0 1.06,-2.084 1.972,-3.942 l 0,0 c 0.915,-1.855 4.239,-1.855 4.239,-1.855 l 0,0 12.235,0 c 4.909,0 8.606,-3.789 8.712,-3.899 l 0,0 c -0.118,0.124 -4.813,5.03 -7.031,7.348 l 0,0 c -2.245,2.348 -6.378,2.348 -6.378,2.348 l 0,0 -13.749,0 z m 27.16,-9.698 c -10e-4,10e-4 -10e-4,10e-4 -0.002,0.002 l 0,0 c 10e-4,-10e-4 10e-4,-10e-4 0.002,-0.002 m 0.001,-10e-4 c 0,0 0,0 -0.001,10e-4 l 0,0 c 0.001,-10e-4 0.001,-10e-4 0.001,-10e-4"
style="fill:url(#linearGradient3337);stroke:none"
id="path172"
inkscape:connector-curvature="0" /></g></g></g><g
id="g176"><g
id="g182"><g
id="g184"><path
d="m 496.602,754.321 c 0,0 1.023,-2.083 1.931,-3.942 l 0,0 c 0.908,-1.855 4.231,-1.855 4.231,-1.855 l 0,0 15.675,0 c 5.964,0 9.801,-3.901 9.801,-3.901 l 0,0 c 0,0 -4.787,5.002 -7.034,7.35 l 0,0 c -2.246,2.348 -7.257,2.348 -7.257,2.348 l 0,0 -17.347,0 z"
style="fill:url(#linearGradient3339);stroke:none"
id="path192"
inkscape:connector-curvature="0" /></g></g></g></g></g></svg>