<?xml version="1.0" encoding="UTF-8"?>
<svg version="1.1" xmlns="http://www.w3.org/2000/svg" width="512" height="512">
<path d="M0 0 C1.72126854 -0.00929787 1.72126854 -0.00929787 3.47731018 -0.01878357 C5.89705561 -0.02586772 8.31684992 -0.02273243 10.73657227 -0.01000977 C14.42621122 0.00384917 18.11330952 -0.03023278 21.80273438 -0.06835938 C24.16015687 -0.06931072 26.51758251 -0.06745093 28.875 -0.0625 C29.97106064 -0.07575821 31.06712128 -0.08901642 32.19639587 -0.10267639 C39.01975957 -0.02028133 43.79864608 0.97822362 49.00390625 5.56640625 C54.0584138 11.35021613 55.1434333 15.61370103 55.06640625 23.31640625 C55.05738281 24.486875 55.04835938 25.65734375 55.0390625 26.86328125 C55.02746094 27.7553125 55.01585938 28.64734375 55.00390625 29.56640625 C56.27066696 29.55974442 57.53742767 29.55308258 58.84257507 29.54621887 C70.77578431 29.48542557 82.70896216 29.44044209 94.64229107 29.41096973 C100.77746213 29.39530839 106.91250826 29.37406125 113.04760742 29.34008789 C118.96740257 29.30751162 124.88707748 29.28955677 130.80695534 29.28177452 C133.06641343 29.27622793 135.32586488 29.26539694 137.58527184 29.24921608 C140.74799234 29.22746522 143.91021488 29.2244384 147.07299805 29.22583008 C148.008797 29.21504425 148.94459595 29.20425842 149.90875244 29.19314575 C154.74380143 29.21619432 158.11031499 29.35075678 162.00390625 32.56640625 C163.54977501 35.65814377 163.29750146 38.16070177 163.00390625 41.56640625 C161.44570637 43.76179409 161.44570637 43.76179409 159.00390625 45.56640625 C156.40158119 45.95662703 154.22212653 46.10184873 151.62260437 46.06520081 C150.87683555 46.07058536 150.13106673 46.07596991 149.36269885 46.08151764 C146.86215238 46.09479884 144.3625858 46.07963727 141.86206055 46.06469727 C140.06989083 46.06851999 138.27772418 46.07413863 136.48556519 46.0814209 C132.6249841 46.0933818 128.76467493 46.0928741 124.90408897 46.08282661 C118.79824899 46.06728061 112.69268889 46.08093424 106.58686829 46.09886169 C94.72430196 46.1297037 82.86182081 46.13118237 70.9992218 46.12921143 C55.91040152 46.12781935 40.821647 46.13817252 25.73287517 46.17778915 C19.66495312 46.19272042 13.59727835 46.19245402 7.52935255 46.18031132 C3.75084866 46.175597 -0.02756082 46.18312569 -3.80604935 46.19385529 C-5.55596295 46.19625942 -7.30589241 46.19353318 -9.05578804 46.18524742 C-11.44872101 46.17459629 -13.84093085 46.18240019 -16.23384094 46.19459534 C-16.92276611 46.18701928 -17.61169128 46.17944323 -18.32149297 46.17163759 C-23.32107376 46.22548885 -26.65731366 47.22686864 -30.99609375 49.56640625 C-35.50518302 54.88944342 -35.50518302 54.88944342 -35.99609375 69.56640625 C123.06390625 69.56640625 282.12390625 69.56640625 446.00390625 69.56640625 C445.55035544 54.6059817 445.55035544 54.6059817 440.00390625 48.56640625 C434.79761249 45.97513166 429.39067282 46.29005576 423.70443726 46.32157898 C422.66899422 46.31931441 421.63355119 46.31704983 420.5667311 46.31471664 C417.0982986 46.30942092 413.63004472 46.31825163 410.16162109 46.3269043 C407.67464643 46.32579143 405.18767204 46.32373365 402.70069885 46.32080078 C397.34618867 46.31607811 391.99172447 46.31706611 386.63721848 46.32257652 C378.17556556 46.33079694 369.71399055 46.31955527 361.25234985 46.30537415 C358.3562147 46.30077349 355.46007934 46.29632309 352.56394386 46.29193592 C351.84026593 46.29083778 351.116588 46.28973964 350.37098043 46.28860822 C342.13990146 46.27644251 333.90881999 46.26888402 325.67773438 46.26293945 C324.54945945 46.26211736 324.54945945 46.26211736 323.39839108 46.26127867 C311.19589881 46.25281053 298.99342857 46.25616246 286.79093616 46.2620938 C274.26110099 46.26770697 261.73137704 46.25420078 249.20157588 46.22454101 C241.47304459 46.20698418 233.74483451 46.20538468 226.01630463 46.22418616 C220.09949724 46.23714019 214.18292657 46.22429679 208.26614189 46.20175934 C205.836083 46.1966944 203.40598912 46.20024209 200.97595787 46.21289253 C197.66658264 46.22890055 194.35871403 46.2144465 191.04940796 46.19218445 C189.59640921 46.2102407 189.59640921 46.2102407 188.11405694 46.22866172 C181.65628369 46.1396577 181.65628369 46.1396577 178.37215614 43.25385761 C176.50411348 39.58473706 176.91609626 37.48252222 178.00390625 33.56640625 C179.899245 30.9818534 180.89217142 30.60365119 184.00390625 29.56640625 C185.42721112 29.47450291 186.85442703 29.43732096 188.28069401 29.43497849 C189.15831585 29.43113734 190.03593769 29.4272962 190.94015414 29.42333865 C192.38759301 29.42463838 192.38759301 29.42463838 193.86427307 29.42596436 C195.40111729 29.42150767 195.40111729 29.42150767 196.96900886 29.41696095 C200.41888191 29.40825577 203.86872034 29.40676415 207.31860352 29.40527344 C209.78554865 29.40064646 212.25249307 29.39562196 214.71943665 29.39022827 C221.43459364 29.3770885 228.14973703 29.37061927 234.86490369 29.36621761 C239.05960991 29.36345471 243.25431382 29.35921717 247.44901848 29.35471344 C259.06679038 29.34251851 270.68456044 29.33222085 282.3023386 29.32883835 C283.41791418 29.328509 283.41791418 29.328509 284.55602663 29.328173 C285.30151463 29.32795472 286.04700263 29.32773644 286.81508118 29.32751155 C288.3256954 29.32706809 289.83630961 29.32662152 291.34692383 29.32617188 C292.09623914 29.32595045 292.84555446 29.32572902 293.61757629 29.32550088 C305.74832788 29.32155626 317.87901928 29.30411355 330.00974763 29.28081235 C342.46941002 29.25707301 354.92904224 29.24463526 367.38872761 29.24347043 C374.38216137 29.24255492 381.37551678 29.23683427 388.36892891 29.21865082 C394.95083365 29.20159764 401.53261625 29.20001656 408.11454582 29.20878983 C410.52757541 29.20956006 412.94061299 29.20521927 415.35362244 29.19533157 C418.65414247 29.18260288 421.95413719 29.18849441 425.25465393 29.19891357 C426.20399813 29.19085717 427.15334232 29.18280077 428.13145453 29.17450023 C437.65983789 29.24458867 446.61664129 31.25856043 453.59375 38.1328125 C460.88928678 46.10617421 461.51383051 53.68535745 461.44995117 64.11938477 C461.44138351 66.25958732 461.47035007 68.39716581 461.50195312 70.53710938 C461.5035641 71.90494712 461.50298959 73.27278957 461.5 74.640625 C461.50185303 75.87385498 461.50370605 77.10708496 461.50561523 78.37768555 C461.00390625 81.56640625 461.00390625 81.56640625 459.38012695 83.97485352 C456.24352888 86.07569425 454.24578777 86.02534955 450.48828125 85.95703125 C449.23789062 85.94414062 447.9875 85.93125 446.69921875 85.91796875 C445.39726562 85.88445312 444.0953125 85.8509375 442.75390625 85.81640625 C441.43648438 85.79835938 440.1190625 85.7803125 438.76171875 85.76171875 C435.50838317 85.71456896 432.25651 85.64876669 429.00390625 85.56640625 C429.01679688 86.78328125 429.0296875 88.00015625 429.04296875 89.25390625 C429.03099176 98.32448298 427.28047659 104.83704849 421.00390625 111.56640625 C413.2134211 118.95737934 405.81714016 118.95393547 395.56860352 118.71313477 C394.20706927 118.69265075 392.84550988 118.67378454 391.4839325 118.65640259 C388.55324145 118.61736548 385.62281458 118.5704958 382.69232368 118.51861763 C378.00341365 118.439347 373.31468332 118.40030897 368.62522888 118.37034607 C367.42898914 118.3624668 367.42898914 118.3624668 366.20858294 118.35442835 C364.57670724 118.34378241 362.94483086 118.33324029 361.31295383 118.32279956 C350.4135338 118.25175268 339.51609074 118.15812027 328.6184082 117.94604492 C289.0665447 117.19665761 255.58202483 117.88805685 219.19406128 135.57199097 C214.26805974 137.96127294 209.21017062 139.87728466 204.00390625 141.56640625 C206.3255019 143.95395162 208.61700753 145.72112736 211.44140625 147.5 C212.32723389 148.06066162 213.21306152 148.62132324 214.12573242 149.19897461 C215.07552979 149.79460205 216.02532715 150.39022949 217.00390625 151.00390625 C217.98270752 151.62209229 218.96150879 152.24027832 219.9699707 152.87719727 C222.97918618 154.77694837 225.99152091 156.67168687 229.00390625 158.56640625 C231.60418971 160.2080017 234.20350238 161.85112518 236.80273438 163.49438477 C241.19504642 166.27531465 241.19504642 166.27531465 245.61225891 169.01629639 C248.00390625 170.56640625 248.00390625 170.56640625 250.27275085 172.34468079 C258.31313696 178.3078699 265.67935834 178.52008782 275.29296875 178.36328125 C276.84753179 178.36505332 278.40209436 178.37034893 279.95663452 178.37896729 C284.02073426 178.39411787 288.08357721 178.37054896 292.14752197 178.33575439 C298.65612422 178.28500475 305.16467662 178.28701651 311.67341232 178.30216217 C313.92974554 178.30081161 316.18513573 178.27858047 318.4413147 178.25360107 C334.83420696 178.16480946 334.83420696 178.16480946 341.37890625 183.50390625 C341.91515625 184.18453125 342.45140625 184.86515625 343.00390625 185.56640625 C343.83921875 186.58734375 343.83921875 186.58734375 344.69140625 187.62890625 C347.18065318 191.30350886 347.1218147 194.45190658 347.1015625 198.765625 C347.09833984 199.97412109 347.09511719 201.18261719 347.09179688 202.42773438 C347.08341797 203.69037109 347.07503906 204.95300781 347.06640625 206.25390625 C347.06189453 207.52814453 347.05738281 208.80238281 347.05273438 210.11523438 C347.04093498 213.26567189 347.02447222 216.41601574 347.00390625 219.56640625 C348.40962891 220.01113281 348.40962891 220.01113281 349.84375 220.46484375 C356.57371547 222.81076497 359.76712903 227.50367354 363.00390625 233.56640625 C365.31717653 240.50621708 365.01832386 248.36583481 361.94140625 255.00390625 C358.41628355 261.14540898 353.80111048 265.41379664 347.00390625 267.56640625 C338.99514198 268.33768702 330.56420989 268.87712825 324.00390625 263.56640625 C318.83051479 258.77271325 315.42185646 253.59627183 314.6875 246.515625 C314.37587954 237.80030429 315.70382649 232.38755123 321.37890625 225.81640625 C324.00390625 223.56640625 324.00390625 223.56640625 327.14453125 222.16015625 C330.1919736 219.91515461 330.1919736 219.91515461 330.48876953 217.08886719 C330.59554086 213.9785719 330.52585653 210.92496997 330.37890625 207.81640625 C330.35183594 206.73746094 330.32476562 205.65851563 330.296875 204.546875 C330.22619767 201.8846956 330.12759026 199.22656389 330.00390625 196.56640625 C327.65891055 195.3939084 326.28516501 195.44009033 323.67164612 195.4377718 C322.29854861 195.43293513 322.29854861 195.43293513 320.89771175 195.42800075 C319.37935396 195.43032365 319.37935396 195.43032365 317.83032227 195.43269348 C316.76013383 195.43042792 315.68994539 195.42816237 314.587327 195.42582816 C310.97747807 195.41946441 307.36766645 195.42031904 303.7578125 195.42114258 C301.17951407 195.4181526 298.60121609 195.41475045 296.0229187 195.41096497 C289.7325971 195.40264756 283.44228487 195.39990965 277.15195823 195.39935259 C272.04141846 195.398878 266.9308818 195.39682616 261.82034302 195.39365196 C247.34385663 195.38484293 232.86737766 195.38023305 218.39088857 195.38098244 C217.60995198 195.38102239 216.8290154 195.38106235 216.02441406 195.38110352 C215.24252862 195.3811444 214.46064317 195.38118528 213.65506423 195.3812274 C200.97567138 195.38163409 188.29630819 195.37205945 175.61692393 195.35796515 C162.6104061 195.34362079 149.60390277 195.33669387 136.59737682 195.33755893 C129.29009435 195.33789154 121.98284299 195.33511643 114.67556763 195.32438087 C107.80726152 195.31435518 100.93902233 195.31459129 94.07071304 195.32189751 C91.5430606 195.32294862 89.01540415 195.32054958 86.48775864 195.31453705 C83.0509234 195.30688823 79.61432002 195.31141438 76.17749023 195.31916809 C75.1652517 195.31402453 74.15301317 195.30888096 73.11010075 195.30358154 C71.73700324 195.31047973 71.73700324 195.31047973 70.33616638 195.31751728 C69.54211616 195.31729991 68.74806593 195.31708254 67.92995358 195.31685859 C65.76529347 195.39809319 65.76529347 195.39809319 64.00390625 197.56640625 C63.72625209 199.8945783 63.72625209 199.8945783 63.80859375 202.57421875 C63.81503906 203.56035156 63.82148437 204.54648437 63.828125 205.5625 C63.84488281 206.59503906 63.86164063 207.62757813 63.87890625 208.69140625 C63.88792969 209.73167969 63.89695312 210.77195312 63.90625 211.84375 C63.92986878 214.41819717 63.96280476 216.99218837 64.00390625 219.56640625 C65.091875 220.159375 66.17984375 220.75234375 67.30078125 221.36328125 C73.3541251 224.83191433 77.37835287 229.72449516 79.53125 236.40234375 C81.56327137 245.70597878 79.07972683 252.36117142 74.37890625 260.31640625 C68.64027993 265.75299961 62.75956121 267.89214838 54.87890625 268.12890625 C46.62087976 267.77997555 41.89119678 265.80337732 36.19140625 259.87890625 C31.45952989 254.0100802 29.66058338 248.53764366 30.06640625 241.00390625 C31.12858843 232.99840688 33.97589775 227.87555862 40.22265625 222.79296875 C42.07980697 221.51414128 43.98076724 220.55548481 46.00390625 219.56640625 C46.01325195 218.85097656 46.02259766 218.13554687 46.03222656 217.3984375 C46.0862947 214.12042433 46.16987096 210.84378264 46.25390625 207.56640625 C46.26808594 206.44105469 46.28226562 205.31570313 46.296875 204.15625 C46.52682564 196.29193796 47.61318361 190.66056552 52.6796875 184.54296875 C53.48986328 183.87394531 53.48986328 183.87394531 54.31640625 183.19140625 C55.11498047 182.49917969 55.11498047 182.49917969 55.9296875 181.79296875 C60.87076007 178.87112923 66.12888506 178.31738083 71.76538086 178.33935547 C73.06620102 178.33950653 74.36702118 178.33965759 75.70726013 178.33981323 C77.10692502 178.35002344 78.5065883 178.36045538 79.90625 178.37109375 C81.3535594 178.37482892 82.80087136 178.37767351 84.2481842 178.37966919 C88.03755812 178.38726601 91.8267761 178.40688 95.61608887 178.42907715 C99.49078259 178.44962122 103.36550176 178.45868913 107.24023438 178.46875 C114.8281957 178.49013008 122.41602904 178.52421763 130.00390625 178.56640625 C129.98295898 177.8300293 129.96201172 177.09365234 129.94042969 176.33496094 C129.85723481 172.99558183 129.80523468 169.65642076 129.75390625 166.31640625 C129.72039062 165.15753906 129.686875 163.99867188 129.65234375 162.8046875 C129.63945312 161.68964844 129.6265625 160.57460938 129.61328125 159.42578125 C129.59233398 158.39936523 129.57138672 157.37294922 129.54980469 156.31542969 C130.12503494 152.8331218 131.27640015 151.73433341 134.00390625 149.56640625 C137.10424805 148.1184082 137.10424805 148.1184082 140.703125 146.8046875 C141.33877884 146.56856247 141.97443268 146.33243744 142.62934875 146.0891571 C144.64637477 145.34198014 146.66846598 144.60990086 148.69140625 143.87890625 C150.72388695 143.13434362 152.75518776 142.38670794 154.78559875 141.63652039 C156.61889632 140.96073563 158.45525588 140.29327504 160.29174805 139.6262207 C162.88027488 138.82378695 162.88027488 138.82378695 164.00390625 137.56640625 C163.21125366 137.06826416 163.21125366 137.06826416 162.40258789 136.56005859 C159.95640584 135.02175718 157.51140322 133.48159049 155.06640625 131.94140625 C154.23560547 131.41933594 153.40480469 130.89726562 152.54882812 130.359375 C151.30649414 129.57626953 151.30649414 129.57626953 150.0390625 128.77734375 C148.91576538 128.07037354 148.91576538 128.07037354 147.76977539 127.34912109 C145.00390625 125.56640625 145.00390625 125.56640625 143.16496277 124.052948 C136.44873185 118.84654274 130.65823479 118.75650744 122.359375 118.90234375 C120.39267236 118.89589728 118.42596953 118.88943008 116.45927143 118.8817234 C113.72895118 118.87792262 110.99912332 118.9005653 108.2689209 118.92401123 C103.4695647 118.96419622 98.6704386 118.98548355 93.8709259 118.97183228 C91.32114979 118.96724745 88.77124978 118.98203292 86.22172546 119.01815796 C85.06985245 119.01780548 83.91797943 119.017453 82.73120117 119.01708984 C81.7191008 119.02630463 80.70700043 119.03551941 79.66423035 119.04501343 C76.28678173 118.43739154 75.11842029 117.20958246 73.00390625 114.56640625 C72.4375 112.56640625 72.4375 112.56640625 72.44140625 110.56640625 C72.41949219 109.90640625 72.39757812 109.24640625 72.375 108.56640625 C73.35781168 105.44094302 75.33824455 104.36896779 78.00390625 102.56640625 C80.72229099 102.06895357 80.72229099 102.06895357 83.72767639 102.07256413 C85.45181464 102.06001798 85.45181464 102.06001798 87.21078396 102.04721838 C88.46904019 102.0583894 89.72729643 102.06956041 91.02368164 102.08106995 C92.37737198 102.07877501 93.73106028 102.07471055 95.08474064 102.06902927 C98.80366982 102.05845441 102.5221553 102.07270153 106.24103975 102.09089601 C110.2519997 102.10611645 114.26291938 102.09819105 118.27389526 102.09286499 C125.22397764 102.0865927 132.17392969 102.09436697 139.12399292 102.11111641 C149.17807354 102.13488932 159.23201357 102.13194361 169.28611052 102.12148797 C185.60513825 102.10477957 201.92413143 102.10222098 218.24316406 102.11206055 C219.70833794 102.11293496 219.70833794 102.11293496 221.20311129 102.11382704 C232.10330504 102.12055675 243.00349581 102.12962998 253.90368652 102.14013672 C257.85734043 102.14387674 261.81099439 102.1475363 265.76464844 102.15112305 C266.74024235 102.15201396 267.71583627 102.15290488 268.72099364 102.15382279 C284.97868888 102.16810576 301.23631731 102.16300354 317.49400616 102.14320034 C327.52490938 102.13186247 337.55552341 102.13768761 347.58639598 102.16547918 C354.45686249 102.18334549 361.32718152 102.1835265 368.19765687 102.16969056 C372.16394637 102.16232382 376.12979412 102.16326957 380.096035 102.18597603 C383.72565075 102.20661838 387.35450023 102.20437926 390.98410976 102.18381941 C392.92177924 102.17888498 394.85946268 102.19870043 396.79702854 102.21933752 C403.29972872 102.17063407 403.29972872 102.17063407 409.19264221 99.71563625 C411.82461477 95.54684805 411.82461477 95.54684805 413.00390625 85.56640625 C275.72390625 85.56640625 138.44390625 85.56640625 -2.99609375 85.56640625 C-1.86087333 95.58503362 -1.86087333 95.58503362 0.93945312 99.71850586 C5.5607756 102.50521633 9.73629295 102.21757215 15.03515625 102.1328125 C16.63816589 102.14126442 16.63816589 102.14126442 18.27355957 102.14988708 C21.68412196 102.16633849 25.0933888 102.15079012 28.50390625 102.12890625 C31.91430218 102.11231357 35.32384392 102.10321361 38.73425293 102.11863708 C40.85445419 102.12791781 42.97483573 102.11875076 45.09484863 102.08900452 C52.23911952 102.11552363 52.23911952 102.11552363 56.13085938 104.40991211 C58.55444727 107.20026037 59.00390625 108.88028896 59.00390625 112.56640625 C56.87347147 117.13162364 56.87347147 117.13162364 54.00390625 118.56640625 C52.3567389 118.67699556 50.70522237 118.72554945 49.05444336 118.7434082 C47.50659401 118.76266106 47.50659401 118.76266106 45.92747498 118.78230286 C44.80672073 118.78968979 43.68596649 118.79707672 42.53125 118.8046875 C41.37903458 118.81275925 40.22681915 118.82083099 39.03968811 118.82914734 C36.59426381 118.84300088 34.14882007 118.85371733 31.70336914 118.86157227 C27.98090284 118.87872426 24.25933856 118.9225934 20.53710938 118.96679688 C18.16016278 118.97692903 15.78320863 118.98544349 13.40625 118.9921875 C12.29966537 119.00969559 11.19308075 119.02720367 10.05296326 119.04524231 C2.1499035 119.0233052 -3.86199297 117.572388 -10.30078125 112.890625 C-18.08548627 104.77671604 -19.05206616 96.39147048 -18.99609375 85.56640625 C-20.23697754 85.59782715 -20.23697754 85.59782715 -21.50292969 85.62988281 C-25.25052745 85.71302244 -28.99793124 85.76506156 -32.74609375 85.81640625 C-34.04804687 85.84992188 -35.35 85.8834375 -36.69140625 85.91796875 C-37.94179688 85.93085938 -39.1921875 85.94375 -40.48046875 85.95703125 C-41.63256836 85.97797852 -42.78466797 85.99892578 -43.97167969 86.02050781 C-46.99609375 85.56640625 -46.99609375 85.56640625 -49.36791992 83.96826172 C-51.54002673 80.76400519 -51.52794848 78.60306764 -51.5625 74.74609375 C-51.57179787 73.75804245 -51.57179787 73.75804245 -51.58128357 72.75003052 C-51.58837346 71.35648062 -51.58522192 69.96284588 -51.57250977 68.56933594 C-51.55876603 66.46774957 -51.59256137 64.37073301 -51.63085938 62.26953125 C-51.68528053 52.96454967 -50.51332252 45.43561963 -44.01904297 38.43530273 C-39.55379025 34.18544361 -34.64402032 30.65589363 -28.2890625 30.5 C-27.15404297 30.53287109 -27.15404297 30.53287109 -25.99609375 30.56640625 C-26.01929687 29.86515625 -26.0425 29.16390625 -26.06640625 28.44140625 C-26.22773872 19.9599278 -25.60890353 13.34901272 -20.703125 6.20703125 C-14.38661579 0.13624436 -8.39352925 -0.0379122 0 0 Z M-8.99609375 17.56640625 C-10.4704354 21.46238492 -10.4704354 21.46238492 -9.99609375 29.56640625 C6.17390625 29.56640625 22.34390625 29.56640625 39.00390625 29.56640625 C39.92840658 20.35223153 39.92840658 20.35223153 37.00390625 16.56640625 C33.10338285 15.26623178 29.38632225 15.40392175 25.3203125 15.3984375 C24.04244118 15.3934449 24.04244118 15.3934449 22.73875427 15.38835144 C20.93741394 15.38329019 19.13606424 15.38094287 17.3347168 15.38110352 C14.58040919 15.37891736 11.82650235 15.36075426 9.07226562 15.34179688 C7.32161595 15.33886272 5.57096438 15.33687807 3.8203125 15.3359375 C2.99729141 15.32875198 2.17427032 15.32156647 1.3263092 15.31416321 C-4.18862531 15.23493897 -4.18862531 15.23493897 -8.99609375 17.56640625 Z M166.00390625 118.56640625 C169.58990156 121.4352025 173.1397186 124.22262619 176.87890625 126.87890625 C177.86632812 127.59691406 178.85375 128.31492187 179.87109375 129.0546875 C184.61151281 131.34214657 188.37761482 130.07890579 193.27709961 128.53491211 C194.37159424 128.12120361 195.46608887 127.70749512 196.59375 127.28125 C197.78935547 126.83330078 198.98496094 126.38535156 200.21679688 125.92382812 C201.44591797 125.45525391 202.67503906 124.98667969 203.94140625 124.50390625 C205.21004128 124.0260413 206.47891965 123.54882184 207.74804688 123.07226562 C210.8357824 121.90996214 213.92089611 120.74117396 217.00390625 119.56640625 C217.00390625 119.23640625 217.00390625 118.90640625 217.00390625 118.56640625 C200.17390625 118.56640625 183.34390625 118.56640625 166.00390625 118.56640625 Z M171.98046875 152.3125 C171.23429291 152.60246353 170.48811707 152.89242706 169.71932983 153.19117737 C167.35032804 154.11532929 164.98978376 155.05921846 162.62890625 156.00390625 C161.01874737 156.63608707 159.40807478 157.26696116 157.796875 157.89648438 C153.8585941 159.43569921 149.93238949 161.00138347 146.00390625 162.56640625 C146.00390625 167.84640625 146.00390625 173.12640625 146.00390625 178.56640625 C173.39390625 178.56640625 200.78390625 178.56640625 229.00390625 178.56640625 C225.95921224 176.13065104 223.27048919 173.99891747 220.02734375 171.97265625 C219.28315186 171.50512939 218.53895996 171.03760254 217.7722168 170.5559082 C216.58752808 169.81860474 216.58752808 169.81860474 215.37890625 169.06640625 C213.68460666 168.00827538 211.99060525 166.94966696 210.296875 165.890625 C209.42724121 165.34712402 208.55760742 164.80362305 207.66162109 164.24365234 C205.00640279 162.56798178 202.37221399 160.86333063 199.7421875 159.1484375 C198.89543457 158.60058594 198.04868164 158.05273438 197.17626953 157.48828125 C195.55372967 156.43740851 193.93596223 155.37911982 192.32373047 154.3125 C191.58268066 153.83554687 190.84163086 153.35859375 190.078125 152.8671875 C189.11265747 152.23550659 189.11265747 152.23550659 188.12768555 151.59106445 C182.18039567 148.72167997 177.84487934 149.93033437 171.98046875 152.3125 Z M49.19140625 236.75390625 C46.9577189 239.62578999 46.00390625 240.95459187 46.00390625 244.56640625 C47.38948412 247.40354189 48.77392329 249.33642329 51.00390625 251.56640625 C56.5456398 252.16536041 56.5456398 252.16536041 61.44140625 250.00390625 C63.53958421 246.73074863 64.00390625 244.45222901 64.00390625 240.56640625 C62.23749453 237.76451179 60.97340803 236.05115714 58.00390625 234.56640625 C53.930347 234.02326502 52.48851364 234.18948939 49.19140625 236.75390625 Z M333.12890625 236.62890625 C330.76281718 239.45166687 330.76281718 239.45166687 330.37890625 243.06640625 C331.17506864 247.52491561 332.31204083 248.97424542 336.00390625 251.56640625 C339.50390625 252.39973958 339.50390625 252.39973958 343.00390625 251.56640625 C346.08723958 249.64973958 346.08723958 249.64973958 348.00390625 246.56640625 C348.75401992 243.02368983 348.75401992 243.02368983 348.00390625 239.56640625 C345.39273021 236.2589166 343.3778681 234.74960116 339.19140625 234.19140625 C335.85286757 234.32350389 335.85286757 234.32350389 333.12890625 236.62890625 Z " fill="#000000" transform="translate(50.99609375,244.43359375)"/>
<path d="M0 0 C4.28574369 2.85948159 7.97176808 6.35147372 11.64453125 9.94921875 C14.13093967 12.34067239 16.67808346 14.49846945 19.40625 16.60546875 C20.11910156 15.82300781 20.83195313 15.04054688 21.56640625 14.234375 C22.53302148 13.21145209 23.50051656 12.1893601 24.46875 11.16796875 C24.93474609 10.65169922 25.40074219 10.13542969 25.88085938 9.60351562 C28.47744328 6.9009487 30.34792184 5.62243578 33.96484375 4.5703125 C37.94550593 4.61097761 39.22096294 5.30474326 42.40625 7.60546875 C44.3190918 9.9621582 44.3190918 9.9621582 46.10546875 12.71875 C46.75708984 13.71970703 47.40871094 14.72066406 48.08007812 15.75195312 C48.74458984 16.79673828 49.40910156 17.84152344 50.09375 18.91796875 C51.10791992 20.46774414 51.10791992 20.46774414 52.14257812 22.04882812 C58.11136532 31.30787214 60.52539776 38.49207127 59.40625 49.60546875 C58.55646483 52.40606511 57.54292035 54.94478975 56.28125 57.58203125 C55.20779442 59.69697667 55.20779442 59.69697667 55.40625 62.60546875 C56.68232609 64.38885315 56.68232609 64.38885315 58.34375 66.10546875 C61.70209532 69.72581264 62.56556038 72.49805686 62.65625 77.41796875 C62.69492187 78.66513672 62.69492187 78.66513672 62.734375 79.9375 C61.68686235 88.4547755 54.36307617 95.2090221 48.14453125 100.546875 C42.35792788 104.98576668 37.71994067 106.47078385 30.40625 105.60546875 C25.4271223 103.89250681 21.35750616 101.06281789 17.40625 97.60546875 C17.40625 101.17533031 18.0107929 101.62641783 20.34375 104.16796875 C24.60413473 108.85137041 24.87656588 112.11609154 24.80859375 118.4375 C23.68088849 127.31681038 15.45140343 134.68272024 8.66796875 139.95703125 C3.73748603 143.35820792 -0.68080138 144.2043862 -6.59375 143.60546875 C-11.88202046 141.9024664 -14.81287673 139.60239192 -18.59375 135.60546875 C-19.25375 135.60546875 -19.91375 135.60546875 -20.59375 135.60546875 C-19.38645592 138.34931893 -17.89494456 140.47681655 -16.03125 142.79296875 C-12.68796769 147.43586525 -12.04348933 151.9935013 -12.8984375 157.60546875 C-15.46728875 166.33252505 -24.16253541 174.62238794 -31.59375 179.60546875 C-37.01626967 181.91506046 -41.93622855 182.04818825 -47.59375 180.60546875 C-51.07492974 178.67148001 -53.92982363 176.56538694 -56.59375 173.60546875 C-60.78648184 174.96220647 -60.78648184 174.96220647 -64.84375 176.66796875 C-72.8953487 179.41283194 -81.14748764 179.26638428 -88.81640625 175.51953125 C-91.48447048 173.97837896 -94.03314668 172.32039913 -96.59375 170.60546875 C-97.24988281 170.16895996 -97.90601562 169.73245117 -98.58203125 169.28271484 C-100.77974488 167.81608748 -102.96965425 166.33861634 -105.15625 164.85546875 C-105.87176025 164.37150635 -106.58727051 163.88754395 -107.32446289 163.38891602 C-107.9921167 162.92928467 -108.65977051 162.46965332 -109.34765625 161.99609375 C-110.24979858 161.37782715 -110.24979858 161.37782715 -111.17016602 160.74707031 C-113.49474088 158.88294545 -113.62074451 157.43675304 -114.09375 154.48046875 C-113.38131226 148.95907629 -110.45110897 146.4132685 -106.59375 142.60546875 C-105.789375 141.78046875 -104.985 140.95546875 -104.15625 140.10546875 C-103.640625 139.61046875 -103.125 139.11546875 -102.59375 138.60546875 C-104.12116974 134.87177605 -106.38320735 132.79687116 -109.34375 130.10546875 C-117.19986058 122.43126521 -121.6485148 113.43248818 -121.84375 102.41796875 C-121.58132666 86.08211582 -111.27781042 75.78503908 -100.09375 64.91796875 C-98.71703125 63.56155273 -98.71703125 63.56155273 -97.3125 62.17773438 C-95.07972367 59.97984517 -92.84021296 57.78935167 -90.59375 55.60546875 C-91.3367334 54.89914307 -92.0797168 54.19281738 -92.84521484 53.46508789 C-95.59375 50.60546875 -95.59375 50.60546875 -97.45556641 47.74389648 C-100.83296096 43.12464074 -103.75291879 40.17934586 -109.51452637 39.01544189 C-117.63842165 38.21522344 -125.7936151 38.41088787 -133.94421387 38.61975098 C-138.63023772 38.73135661 -143.31688737 38.77080628 -148.00405884 38.79917908 C-150.49181 38.81812601 -152.97951978 38.86048045 -155.46640015 38.92897034 C-163.83287529 39.04633504 -163.83287529 39.04633504 -167.85375977 36.71655273 C-169.72602648 34.4449812 -170.25278377 33.51283863 -170.15625 30.60546875 C-170.15753906 29.94546875 -170.15882813 29.28546875 -170.16015625 28.60546875 C-169.33173185 25.68027362 -167.94424176 24.50973334 -165.59375 22.60546875 C-162.69891357 22.0773468 -162.69891357 22.0773468 -159.29980469 22.0402832 C-157.38696686 22.00684563 -157.38696686 22.00684563 -155.43548584 21.97273254 C-154.04553441 21.96993568 -152.65557924 21.96864581 -151.265625 21.96875 C-149.83318546 21.95842864 -148.4007511 21.94736475 -146.96832275 21.93559265 C-143.96555999 21.91616624 -140.96326281 21.91273546 -137.96044922 21.91918945 C-134.1287863 21.92517152 -130.2995582 21.88104262 -126.46839523 21.82330036 C-123.50842023 21.78615481 -120.54902314 21.78140924 -117.5888443 21.78557396 C-116.1775162 21.7827166 -114.76616209 21.76875776 -113.35506439 21.74309731 C-100.97964313 21.54177805 -100.97964313 21.54177805 -95.88378906 25.93432617 C-94.75522267 27.12869658 -93.65670214 28.35234644 -92.59375 29.60546875 C-91.43643277 30.80208238 -90.26970337 31.98966445 -89.09375 33.16796875 C-88.53107422 33.74232666 -87.96839844 34.31668457 -87.38867188 34.90844727 C-85.48043021 36.71260774 -83.48874357 38.26339187 -81.375 39.8203125 C-80.66408203 40.34616943 -79.95316406 40.87202637 -79.22070312 41.41381836 C-78.68380859 41.80706299 -78.14691406 42.20030762 -77.59375 42.60546875 C-77.1524173 42.1552536 -76.71108459 41.70503845 -76.25637817 41.24118042 C-71.62832061 36.52408888 -66.98581493 31.8215675 -62.33496094 27.12695312 C-60.60503605 25.37701045 -58.87873014 23.62348202 -57.15625 21.86621094 C-54.66847569 19.32948737 -52.16763152 16.80628147 -49.6640625 14.28515625 C-48.52748703 13.11761307 -48.52748703 13.11761307 -47.36795044 11.92648315 C-35.08491435 -0.36156771 -16.91252554 -8.02186571 0 0 Z M-38.88598633 26.50952148 C-39.55387177 27.17214996 -40.2217572 27.83477844 -40.90988159 28.51748657 C-43.08939421 30.68392277 -45.25789732 32.86099468 -47.42578125 35.0390625 C-48.94989531 36.56115276 -50.47445422 38.0827977 -51.99943542 39.60401917 C-55.18217364 42.78235117 -58.3594648 45.96600326 -61.53295898 49.15356445 C-65.5923729 53.23009809 -69.6651475 57.2929747 -73.74208546 61.35197353 C-76.88827133 64.48730057 -80.02725456 67.62976036 -83.16412926 70.77440071 C-84.66298206 72.27524818 -86.16404843 73.77388852 -87.66739845 75.27023125 C-89.76845596 77.36363673 -91.85960259 79.46647749 -93.94848633 81.57202148 C-94.56516678 82.18262924 -95.18184723 82.793237 -95.81721497 83.42234802 C-101.17943146 88.86371996 -105.24120969 94.44549307 -105.90625 102.29296875 C-105.66475301 111.78035057 -99.30812735 117.31953899 -92.859375 123.48046875 C-91.73789063 124.53234375 -91.73789063 124.53234375 -90.59375 125.60546875 C-87.27523114 124.15805758 -85.09340138 122.35244541 -82.54412842 119.7963562 C-81.74769928 119.00267639 -80.95127014 118.20899658 -80.13070679 117.39126587 C-79.26611847 116.519487 -78.40153015 115.64770813 -77.51074219 114.74951172 C-76.13461258 113.37382019 -76.13461258 113.37382019 -74.73068237 111.97033691 C-72.21823703 109.45846515 -69.71200394 106.94047672 -67.20683956 104.42134619 C-64.58656223 101.78856255 -61.96061638 99.16144522 -59.33526611 96.53372192 C-54.36606118 91.55830194 -49.40197631 86.57780588 -44.4397099 81.59546673 C-38.78950337 75.92290202 -33.13361372 70.25601832 -27.47723913 64.58960509 C-15.8430733 52.93453668 -4.21606655 41.27235343 7.40625 29.60546875 C6.45328502 28.48237601 5.49870912 27.36065003 4.54345703 26.23950195 C4.01205109 25.61469437 3.48064514 24.98988678 2.93313599 24.34614563 C1.16936463 22.33541526 -0.69568929 20.54164673 -2.71875 18.79296875 C-3.36070312 18.22964844 -4.00265625 17.66632812 -4.6640625 17.0859375 C-8.49546321 14.14646205 -11.43619985 13.25747032 -16.28125 13.10546875 C-17.25449219 13.05390625 -18.22773438 13.00234375 -19.23046875 12.94921875 C-27.15499753 14.49546827 -33.36493492 20.93319494 -38.88598633 26.50952148 Z M33.40625 25.60546875 C-8.17375 67.18546875 -49.75375 108.76546875 -92.59375 151.60546875 C-91.31001932 155.45666078 -89.79463757 156.08128905 -86.40625 158.23046875 C-85.46394531 158.84148437 -84.52164063 159.4525 -83.55078125 160.08203125 C-79.21163457 162.31752293 -76.33745927 163.09695472 -71.57466125 161.75450134 C-65.6314156 159.05691932 -61.34374657 153.89425933 -56.82495117 149.32250977 C-55.75412807 148.25383466 -54.68243911 147.18602656 -53.60995483 146.11901855 C-50.71062417 143.22935108 -47.82389712 140.32739015 -44.93958449 137.42274213 C-41.91621234 134.38175935 -38.88225667 131.35136911 -35.84968567 128.31956482 C-30.7615139 123.22952239 -25.68113417 118.13180747 -20.60571289 113.02905273 C-14.73823237 107.13009021 -8.86033265 101.24167761 -2.97635859 95.35916954 C3.29175099 89.09241073 9.55222107 82.81806278 15.81046462 76.54145312 C17.61338986 74.73426613 19.41773168 72.92850385 21.22239113 71.12304878 C24.0564463 68.28698466 26.88534592 65.44587471 29.71033096 62.60077667 C30.74786323 61.5574035 31.78709143 60.51571364 32.82812691 59.4758358 C34.24831232 58.05663225 35.66172854 56.63066441 37.07478333 55.20436096 C37.86765149 54.40814111 38.66051966 53.61192125 39.47741413 52.79157352 C42.18128941 49.72705427 43.26178636 47.50836648 43.90625 43.48046875 C42.95081286 36.07583091 38.57089052 30.77010927 33.40625 25.60546875 Z M41.40625 72.60546875 C37.44625 76.56546875 33.48625 80.52546875 29.40625 84.60546875 C30.72625 86.25546875 32.04625 87.90546875 33.40625 89.60546875 C37.08694887 88.06903023 39.39400204 85.8239593 42.15625 82.98046875 C43.35507813 81.75457031 43.35507813 81.75457031 44.578125 80.50390625 C45.18140625 79.87742187 45.7846875 79.2509375 46.40625 78.60546875 C45.03641497 75.44431099 44.4171862 74.61275955 41.40625 72.60546875 Z M3.40625 110.60546875 C-0.22375 114.23546875 -3.85375 117.86546875 -7.59375 121.60546875 C-5.94518175 125.72950348 -5.94518175 125.72950348 -2.59375 127.60546875 C1.03625 123.97546875 4.66625 120.34546875 8.40625 116.60546875 C6.75768175 112.48143402 6.75768175 112.48143402 3.40625 110.60546875 Z M-34.59375 148.60546875 C-38.22375 152.23546875 -41.85375 155.86546875 -45.59375 159.60546875 C-43.94518175 163.72950348 -43.94518175 163.72950348 -40.59375 165.60546875 C-38.72372712 163.87008752 -36.87386908 162.11953525 -35.03125 160.35546875 C-34.49822266 159.86433594 -33.96519531 159.37320313 -33.41601562 158.8671875 C-30.44127326 156.12912567 -30.44127326 156.12912567 -29.50390625 152.37109375 C-30.67594286 150.12586425 -30.67594286 150.12586425 -34.59375 148.60546875 Z " fill="#000000" transform="translate(169.59375,2.39453125)"/>
<path d="M0 0 C1.27155945 -0.00852997 2.5431189 -0.01705994 3.85321045 -0.02584839 C5.24971021 -0.02514948 6.64620987 -0.02422648 8.04270935 -0.02310181 C9.52315102 -0.0290904 11.00358957 -0.03589671 12.48402405 -0.04345703 C16.49422395 -0.06108499 20.50433844 -0.0658109 24.51457334 -0.0670886 C27.02093404 -0.06851194 29.52727314 -0.07278486 32.03362846 -0.07808304 C40.77967072 -0.09656874 49.52565211 -0.10475499 58.27171326 -0.10317993 C66.42204753 -0.10197711 74.5721176 -0.1231107 82.72238499 -0.15466726 C89.72466196 -0.18081224 96.72685248 -0.19154806 103.72917789 -0.19026911 C107.90945706 -0.1897592 112.08950102 -0.19545938 116.26973152 -0.21662521 C120.19902859 -0.23597923 124.12786526 -0.2361519 128.0571785 -0.22159195 C129.498329 -0.21949959 130.93950814 -0.22423026 132.38060951 -0.23631287 C134.34905919 -0.25174736 136.31766565 -0.2400664 138.28613281 -0.22705078 C139.38725686 -0.22814032 140.48838091 -0.22922985 141.62287235 -0.2303524 C145.29517821 0.38790155 146.95810813 1.66586445 149.57957458 4.26742554 C150.83567474 7.95721974 150.92310272 9.53129383 149.26707458 13.07992554 C147.57957458 15.26742554 147.57957458 15.26742554 145.57957458 16.26742554 C143.60334184 16.37328353 141.62351757 16.41408029 139.64448547 16.42564392 C138.37961304 16.43543274 137.1147406 16.44522156 135.8115387 16.45530701 C134.40202369 16.46121158 132.99250829 16.46702201 131.58299255 16.4727478 C130.10488102 16.48232369 128.62677225 16.4923336 127.14866638 16.50274658 C123.12826947 16.52983308 119.10786077 16.55082233 115.08742285 16.57074857 C110.88866867 16.59258507 106.68995097 16.61998516 102.4912262 16.64680481 C94.53688648 16.69676335 86.58252656 16.74169043 78.62814724 16.78482717 C69.57383554 16.83417256 60.51956044 16.88910068 51.46528411 16.94450676 C32.83674823 17.05837533 14.20817783 17.16520373 -4.42042542 17.26742554 C-5.72859196 19.88375862 -5.54631842 21.80249905 -5.54740906 24.73348999 C-5.55163879 26.47500839 -5.55163879 26.47500839 -5.55595398 28.25170898 C-5.55392975 29.53177826 -5.55190552 30.81184753 -5.54981995 32.13070679 C-5.55117441 33.48734586 -5.55295461 34.84398456 -5.55513 36.20062256 C-5.55969891 39.89061251 -5.557917 43.58057458 -5.55475092 47.27056503 C-5.55222453 51.12669705 -5.55456564 54.98282663 -5.55613708 58.83895874 C-5.55795796 65.31544423 -5.55555461 71.79191833 -5.55079651 78.2684021 C-5.54535404 85.76309656 -5.54711676 93.25776382 -5.55262291 100.75245762 C-5.55715637 107.17965459 -5.55780345 113.60684335 -5.55518425 120.0340414 C-5.55362276 123.87605167 -5.55342422 127.71804914 -5.55672073 131.56005859 C-5.55960281 135.17151797 -5.55761753 138.78294217 -5.55182648 142.39439774 C-5.5498667 144.35731202 -5.55284994 146.32022928 -5.55595398 148.28314209 C-5.55313416 149.44415436 -5.55031433 150.60516663 -5.54740906 151.80136108 C-5.54703203 152.81457932 -5.54665501 153.82779755 -5.54626656 154.87171936 C-5.57968799 157.28196731 -5.57968799 157.28196731 -4.42042542 159.26742554 C66.52957458 159.26742554 137.47957458 159.26742554 210.57957458 159.26742554 C211.88774113 156.65109245 211.70546759 154.73235202 211.70655823 151.80136108 C211.70937805 150.64034882 211.71219788 149.47933655 211.71510315 148.28314209 C211.71307892 147.00307281 211.71105469 145.72300354 211.70896912 144.40414429 C211.71032358 143.04750522 211.71210378 141.69086652 211.71427917 140.33422852 C211.71884808 136.64423857 211.71706617 132.95427649 211.71390009 129.26428604 C211.7113737 125.40815402 211.71371481 121.55202444 211.71528625 117.69589233 C211.71710713 111.21940684 211.71470378 104.74293274 211.70994568 98.26644897 C211.70450321 90.77175451 211.70626593 83.27708726 211.71177208 75.78239346 C211.71630554 69.35519649 211.71695262 62.92800772 211.71433342 56.50080967 C211.71277193 52.6587994 211.71257339 48.81680193 211.7158699 44.97479248 C211.71875198 41.3633331 211.7167667 37.7519089 211.71097565 34.14045334 C211.70901587 32.17753905 211.71199911 30.2146218 211.71510315 28.25170898 C211.71228333 27.09069672 211.7094635 25.92968445 211.70655823 24.73348999 C211.7061812 23.72027176 211.70580418 22.70705353 211.70541573 21.66313171 C211.73883716 19.25288376 211.73883716 19.25288376 210.57957458 17.26742554 C209.32821716 17.25807983 208.07685974 17.24873413 206.7875824 17.23910522 C202.14301508 17.19922072 197.49911124 17.13346612 192.85496521 17.05990601 C190.84528631 17.03168747 188.83549624 17.01047733 186.82566833 16.99642944 C183.93576609 16.97501218 181.04720168 16.9283685 178.15769958 16.87680054 C177.259646 16.8755719 176.36159241 16.87434326 175.43632507 16.87307739 C169.19487803 16.72666145 169.19487803 16.72666145 166.01634216 14.3543396 C164.47042727 12.10888837 164.01179596 10.97008322 164.01707458 8.26742554 C163.99516052 7.60742554 163.97324646 6.94742554 163.95066833 6.26742554 C164.97580066 3.0073774 166.70079878 2.05837324 169.57957458 0.26742554 C172.7982783 -0.30964 175.96516344 -0.26972388 179.22801208 -0.22866821 C180.6241423 -0.23085106 180.6241423 -0.23085106 182.04847717 -0.233078 C184.01362747 -0.23142122 185.97879103 -0.21988468 187.9438324 -0.1991272 C190.9375634 -0.17023862 193.92951482 -0.17851016 196.92332458 -0.19155884 C198.83739563 -0.18531876 200.7514611 -0.17692572 202.66551208 -0.16616821 C203.99864944 -0.17057167 203.99864944 -0.17057167 205.35871887 -0.17506409 C213.02850092 -0.05982842 218.92315382 1.76812757 224.57957458 7.26742554 C227.10727063 11.55009783 227.95623027 14.68418978 227.96725464 19.63642883 C227.97715927 20.89668381 227.9870639 22.15693878 227.99726868 23.4553833 C227.99303118 24.8392649 227.98847337 26.22314555 227.98362732 27.60702515 C227.98933383 29.07437153 227.99629918 30.54171348 228.00442505 32.00904846 C228.02234073 35.98430723 228.02119111 39.95934507 228.01548266 43.93463206 C228.01238849 47.25717329 228.01848581 50.57967223 228.02452141 53.90220743 C228.03855981 61.74232581 228.03701108 69.5823352 228.02561951 77.42245483 C228.01413878 85.50232756 228.02821462 93.58186834 228.05501598 101.66169733 C228.07718919 108.60711689 228.08380672 115.55243238 228.07793957 122.49788481 C228.07457267 126.64244351 228.07696719 130.78678945 228.0941906 134.93131828 C228.10968364 138.82945407 228.10567848 142.72709897 228.08688545 146.62521553 C228.08320605 148.05261772 228.08628917 149.48005648 228.09677124 150.90742493 C228.18760452 164.30307483 228.18760452 164.30307483 223.57957458 170.26742554 C217.66273612 176.02855773 211.41119977 176.56404089 203.55982971 176.53485107 C202.66196617 176.53938219 201.76410263 176.5439133 200.8390311 176.54858172 C197.8359891 176.56122333 194.83312851 176.5596055 191.83006287 176.55795288 C189.67469551 176.56393823 187.51933029 176.57074379 185.3639679 176.57830811 C179.51272151 176.59597352 173.66153363 176.60066369 167.81026316 176.60193968 C164.15409518 176.6033614 160.49794208 176.60763138 156.8417778 176.61293411 C144.08525905 176.6314354 131.32878209 176.6396045 118.57225037 176.63803101 C106.68318931 176.63682923 94.79430968 176.65793861 82.90529454 176.68951833 C72.6953579 176.71567124 62.48548055 176.72639873 52.27551067 176.72512019 C46.17865106 176.72461031 40.08195273 176.73030788 33.9851265 176.75147629 C28.25098067 176.77084217 22.51715027 176.7709942 16.78299332 176.75644302 C14.68034403 176.75435187 12.57767508 176.75907399 10.47505951 176.77116394 C7.6007651 176.78661867 4.72755803 176.77730654 1.85328674 176.76190186 C1.02467357 176.77218898 0.19606039 176.78247611 -0.65766227 176.79307497 C-6.93799128 176.71888316 -12.15709491 175.12839718 -16.95011795 170.92633951 C-23.57226423 163.68344614 -22.71276411 154.77599227 -22.69508362 145.58041382 C-22.69943597 144.1949842 -22.70462086 142.80955698 -22.71057129 141.4241333 C-22.72391694 137.67610185 -22.72454488 133.92817151 -22.72200799 130.18012094 C-22.72093517 127.0441256 -22.72582962 123.90815046 -22.73061341 120.77215946 C-22.74169346 113.36968709 -22.7421546 105.96726546 -22.73609924 98.56478882 C-22.73006128 90.94453029 -22.74236933 83.32445649 -22.76366931 75.70422947 C-22.78132006 69.14687749 -22.78728117 62.58958412 -22.78403157 56.03220928 C-22.78222396 52.12237513 -22.78480242 48.21267275 -22.79874611 44.30286026 C-22.81137642 40.62392525 -22.80933163 36.94527689 -22.79633522 33.26634598 C-22.79286475 31.28454075 -22.80410922 29.30272655 -22.81590271 27.32095337 C-22.77167247 19.77260017 -22.53937268 12.36812375 -17.80714417 6.14633179 C-17.24640198 5.71191772 -16.68565979 5.27750366 -16.10792542 4.82992554 C-15.2784137 4.15123413 -15.2784137 4.15123413 -14.43214417 3.45883179 C-9.79168779 0.71060034 -5.32518308 0.01620366 0 0 Z " fill="#000000" transform="translate(284.42042541503906,36.732574462890625)"/>
<path d="M0 0 C3.99445751 0.57063679 5.09136668 1.35024874 7.5 4.5 C8.68009796 6.86019593 8.79767685 8.66095717 9.03515625 11.2890625 C9.12216797 12.23007813 9.20917969 13.17109375 9.29882812 14.140625 C9.38583984 15.12546875 9.47285156 16.1103125 9.5625 17.125 C9.69881836 18.61386719 9.69881836 18.61386719 9.83789062 20.1328125 C10.06218436 22.58823868 10.28273107 25.04394389 10.5 27.5 C11.76199219 27.48453125 13.02398437 27.4690625 14.32421875 27.453125 C18.87637165 27.39732742 21.91463909 28.07317519 25.375 31.1875 C27.03583755 34.60144385 26.41952707 36.88757223 25.5 40.5 C23.82098708 42.80252258 22.94693593 43.4243914 20.11157227 43.90405273 C17.09430723 43.93594103 14.07994035 43.95780082 11.0625 43.9375 C9.48758789 43.9674707 9.48758789 43.9674707 7.88085938 43.99804688 C6.86958984 43.99740234 5.85832031 43.99675781 4.81640625 43.99609375 C3.43110718 43.99887329 3.43110718 43.99887329 2.01782227 44.00170898 C-1.24054847 43.35243604 -2.41350948 42.02516287 -4.5 39.5 C-4.83 38.84 -5.16 38.18 -5.5 37.5 C-5.97050781 38.41523438 -6.44101562 39.33046875 -6.92578125 40.2734375 C-7.55428829 41.47416738 -8.18321663 42.6746768 -8.8125 43.875 C-9.12123047 44.47828125 -9.42996094 45.0815625 -9.74804688 45.703125 C-11.42609428 48.88258325 -12.44806328 50.46537552 -15.5 52.5 C-20.76180564 53.20157408 -23.35352775 51.65921695 -27.5 48.5 C-27.52578125 49.05042969 -27.5515625 49.60085937 -27.578125 50.16796875 C-28.04608623 57.02785497 -29.14609179 63.74273409 -30.375 70.5 C-30.61718262 71.89835083 -30.61718262 71.89835083 -30.86425781 73.32495117 C-31.03022461 74.20771729 -31.19619141 75.0904834 -31.3671875 76 C-31.51269043 76.7940625 -31.65819336 77.588125 -31.80810547 78.40625 C-32.61923643 80.86082274 -33.46952216 81.91865733 -35.5 83.5 C-38.875 84.4375 -38.875 84.4375 -42.5 84.5 C-47.80548202 81.39511432 -49.60506042 76.84896709 -52.00390625 71.45703125 C-52.61165138 70.13248177 -52.61165138 70.13248177 -53.23167419 68.78117371 C-54.52091274 65.96370134 -55.79184706 63.1383955 -57.0625 60.3125 C-57.92003772 58.43109949 -58.77875013 56.55023393 -59.63867188 54.66992188 C-63.30614655 46.63413358 -66.92081809 38.57547571 -70.5 30.5 C-71.180625 31.16 -71.86125 31.82 -72.5625 32.5 C-73.03333008 32.95084961 -73.50416016 33.40169922 -73.98925781 33.86621094 C-75.57131403 35.47973022 -75.57131403 35.47973022 -76.78417969 37.51660156 C-79.36699104 41.29950707 -81.24473026 43.22998986 -85.81420898 44.21289062 C-89.10160915 44.39410091 -92.33563222 44.44441292 -95.62573242 44.32324219 C-97.69453215 44.24975019 -99.75619724 44.24120659 -101.82617188 44.2421875 C-111.75852211 44.06613402 -111.75852211 44.06613402 -114.88793945 41.67675781 C-117.24511808 38.49387055 -117.05087678 36.35613746 -116.5 32.5 C-114.28136971 29.59282927 -112.98055071 28.66018357 -109.5 27.5 C-108.14461898 27.51195313 -106.78925332 27.57596371 -105.4375 27.67578125 C-96.62915592 28.22903808 -96.62915592 28.22903808 -88.63037109 25.19580078 C-85.37638135 21.92021593 -82.91488433 18.12157275 -80.53125 14.18505859 C-77.91825901 9.91544121 -75.23526833 6.13744551 -70.4375 4.375 C-66.8343294 4.52832641 -65.39441712 5.37082536 -62.5 7.5 C-60.8671875 10.01171875 -60.8671875 10.01171875 -59.375 13.1875 C-59.09640137 13.77039795 -58.81780273 14.3532959 -58.53076172 14.95385742 C-57.50094899 17.12726981 -56.49947079 19.31246263 -55.5 21.5 C-55.04689453 22.48645508 -54.59378906 23.47291016 -54.12695312 24.48925781 C-52.12423274 28.85129335 -50.12213922 33.21340108 -48.14404297 37.58666992 C-47.45785889 39.10031128 -47.45785889 39.10031128 -46.7578125 40.64453125 C-46.3467627 41.55565674 -45.93571289 42.46678223 -45.51220703 43.40551758 C-44.67159082 45.43806859 -44.67159082 45.43806859 -43.5 46.5 C-43.39977539 45.91508789 -43.29955078 45.33017578 -43.19628906 44.72753906 C-42.73056357 42.06519449 -42.24057171 39.4078736 -41.75 36.75 C-41.59273438 35.82960937 -41.43546875 34.90921875 -41.2734375 33.9609375 C-39.99322251 27.16595023 -39.99322251 27.16595023 -37.5703125 23.89453125 C-34.36799617 21.7374993 -32.26889528 21.91517142 -28.5 22.5 C-25.42491385 24.39828781 -23.04654053 26.95345947 -20.5 29.5 C-20.12713867 28.76362305 -19.75427734 28.02724609 -19.37011719 27.26855469 C-17.67140429 23.92490565 -15.96085578 20.587451 -14.25 17.25 C-13.66347656 16.09113281 -13.07695312 14.93226562 -12.47265625 13.73828125 C-11.89902344 12.62324219 -11.32539063 11.50820312 -10.734375 10.359375 C-10.21069336 9.33295898 -9.68701172 8.30654297 -9.14746094 7.24902344 C-6.60673709 3.00946348 -4.99879593 0.7141137 0 0 Z " fill="#000000" transform="translate(453.5,91.5)"/>
<path d="M0 0 C1.10214844 -0.020625 2.20429688 -0.04125 3.33984375 -0.0625 C4.40074219 -0.06765625 5.46164062 -0.0728125 6.5546875 -0.078125 C7.52647949 -0.0874707 8.49827148 -0.09681641 9.49951172 -0.10644531 C12.58556308 0.31252763 13.92195945 1.07274439 16.125 3.25 C17.22873378 7.22344161 17.54043583 9.33999772 15.8125 13.125 C14.125 15.25 14.125 15.25 12.125 16.25 C8.17284924 16.54557554 4.21190877 16.5279886 0.25 16.5625 C-0.85214844 16.59150391 -1.95429688 16.62050781 -3.08984375 16.65039062 C-4.68119141 16.66295898 -4.68119141 16.66295898 -6.3046875 16.67578125 C-7.76237549 16.69765503 -7.76237549 16.69765503 -9.24951172 16.7199707 C-12.62624896 16.11552406 -13.77017416 14.90431577 -15.875 12.25 C-17.05090974 8.56548282 -17.20981338 6.96745725 -15.5625 3.4375 C-11.80515344 -1.43313442 -5.65737823 0.02628283 0 0 Z " fill="#000000" transform="translate(308.875,146.75)"/>
<path d="M0 0 C1.051875 -0.00064453 2.10375 -0.00128906 3.1875 -0.00195312 C4.8271875 0.02801758 4.8271875 0.02801758 6.5 0.05859375 C7.593125 0.05150391 8.68625 0.04441406 9.8125 0.03710938 C19.05227903 0.11071056 19.05227903 0.11071056 22.5 3.49609375 C23.5948787 7.43765707 23.89415792 9.58953054 22.25 13.37109375 C20.5 15.49609375 20.5 15.49609375 17.5 16.49609375 C13.85807728 16.72644817 10.2109529 16.6812565 6.5625 16.68359375 C5.56025391 16.69583984 4.55800781 16.70808594 3.52539062 16.72070312 C2.07616211 16.72360352 2.07616211 16.72360352 0.59765625 16.7265625 C-0.28398193 16.73067139 -1.16562012 16.73478027 -2.07397461 16.73901367 C-4.68592974 16.47747645 -6.28054523 15.87422675 -8.5 14.49609375 C-10.38886253 11.97761037 -10.50715839 10.66789507 -10.375 7.49609375 C-8.72012296 1.8222296 -5.7669969 -0.01114255 0 0 Z " fill="#000000" transform="translate(302.5,91.50390625)"/>
<path d="M0 0 C0.84175781 -0.01611328 1.68351562 -0.03222656 2.55078125 -0.04882812 C7.34433019 -0.05260257 10.6444307 0.14648444 14.5 3.3125 C16.5 6.3125 16.5 6.3125 16.3125 9.8125 C15.26516177 14.32411082 15.26516177 14.32411082 12.5 16.3125 C9.8203125 16.70068359 9.8203125 16.70068359 6.625 16.7109375 C5.47515625 16.71480469 4.3253125 16.71867187 3.140625 16.72265625 C1.93921875 16.71105469 0.7378125 16.69945312 -0.5 16.6875 C-1.70140625 16.69910156 -2.9028125 16.71070313 -4.140625 16.72265625 C-5.86539062 16.71685547 -5.86539062 16.71685547 -7.625 16.7109375 C-8.67945313 16.70755371 -9.73390625 16.70416992 -10.8203125 16.70068359 C-13.5 16.3125 -13.5 16.3125 -15.3125 14.96728516 C-17.1318797 12.43197356 -17.37622344 10.40691388 -17.5 7.3125 C-16.26723184 4.29906672 -15.33931996 2.77752863 -12.4765625 1.19140625 C-8.2942153 -0.04353879 -4.33817585 -0.01660864 0 0 Z " fill="#000000" transform="translate(309.5,118.6875)"/>
<path d="M0 0 C0.89396484 -0.01611328 1.78792969 -0.03222656 2.70898438 -0.04882812 C7.61885974 -0.05247317 11.1321881 0.02826677 15.0625 3.3125 C17.0625 6.3125 17.0625 6.3125 16.875 9.8125 C15.83255387 14.3030372 15.83255387 14.3030372 13.0625 16.3125 C10.49047852 16.70068359 10.49047852 16.70068359 7.44140625 16.7109375 C6.34119141 16.71480469 5.24097656 16.71867187 4.10742188 16.72265625 C2.95822266 16.71105469 1.80902344 16.69945313 0.625 16.6875 C-1.09299805 16.70490234 -1.09299805 16.70490234 -2.84570312 16.72265625 C-4.49795898 16.71685547 -4.49795898 16.71685547 -6.18359375 16.7109375 C-7.19091553 16.70755371 -8.1982373 16.70416992 -9.23608398 16.70068359 C-12.34271779 16.25427169 -13.70387674 15.48802787 -15.9375 13.3125 C-17.10129881 9.74351699 -17.24670437 8.02855223 -15.75 4.5625 C-11.51630292 -0.69312396 -6.24064743 -0.02240003 0 0 Z " fill="#000000" transform="translate(308.9375,63.6875)"/>
</svg>
