<svg xmlns="http://www.w3.org/2000/svg" version="1.1" xmlns:xlink="http://www.w3.org/1999/xlink" width="512" height="512" x="0" y="0" viewBox="0 0 206.445 206.445" style="enable-background:new 0 0 512 512" xml:space="preserve" class=""><g><path d="M206.441 19.913c.09-6.19-1.52-10.984-4.783-14.248l-.556-.556c-3.176-3.177-7.81-4.787-13.771-4.787-13.165 0-29.559 8.002-36.609 15.476-5.103 5.409-11.239 12.087-17.984 19.579L46.2 16.381a11.244 11.244 0 0 0-2.407-.249c-3.662 0-7.681 1.559-9.999 3.879L23.215 30.588c-1.702 1.701-2.461 3.866-2.082 5.938.379 2.073 1.854 3.83 4.047 4.819l73.326 33.103c-8.514 9.975-16.993 20.112-24.867 29.805a1017.672 1017.672 0 0 0-15.003 18.89l-43.076-4.307c-2.37-.239-5.45.869-7.123 2.543l-6.952 6.952c-1.112 1.111-1.639 2.582-1.444 4.035s1.089 2.733 2.454 3.514l33.437 19.107c-9.113 14.779-8.389 19.074-6.085 21.378l.556.556c.962.963 2.28 1.45 3.918 1.45 3.492 0 9.506-2.765 17.217-7.478l18.707 32.736c.893 1.561 2.43 2.493 4.11 2.493 1.261 0 2.481-.526 3.438-1.483l6.952-6.952c1.688-1.687 2.782-4.75 2.543-7.124l-4.202-42.022c15.513-11.955 32.71-26.169 48.978-40.066l32.714 72.467c1.171 2.594 3.37 4.142 5.881 4.142 1.74 0 3.473-.772 4.877-2.177l10.579-10.578c2.92-2.922 4.515-8.371 3.629-12.407L170.966 74.38c8.333-7.493 15.26-13.859 20.005-18.335 7.287-6.876 15.275-22.646 15.47-36.132z" fill="#ffffff" opacity="1" data-original="#000000" class=""></path></g></svg>