<svg xmlns="http://www.w3.org/2000/svg" version="1.1" xmlns:xlink="http://www.w3.org/1999/xlink" width="512" height="512" x="0" y="0" viewBox="0 0 682.667 682.667" style="enable-background:new 0 0 512 512" xml:space="preserve" class=""><g><defs><clipPath id="a" clipPathUnits="userSpaceOnUse"><path d="M0 512h512V0H0Z" fill="#ffffff" opacity="1" data-original="#000000"></path></clipPath></defs><g clip-path="url(#a)" transform="matrix(1.33333 0 0 -1.33333 0 682.667)"><path d="M0 0c116.11 0 210.57-94.46 210.57-210.569" style="stroke-width:20;stroke-linecap:round;stroke-linejoin:round;stroke-miterlimit:10;stroke-dasharray:none;stroke-opacity:1" transform="translate(291.43 501.89)" fill="none" stroke="#ffffff" stroke-width="20" stroke-linecap="round" stroke-linejoin="round" stroke-miterlimit="10" stroke-dasharray="none" stroke-opacity="" data-original="#000000" opacity="1" class=""></path><path d="M0 0c82.931 0 150.41-67.48 150.41-150.41" style="stroke-width:20;stroke-linecap:round;stroke-linejoin:round;stroke-miterlimit:10;stroke-dasharray:none;stroke-opacity:1" transform="translate(291.43 441.73)" fill="none" stroke="#ffffff" stroke-width="20" stroke-linecap="round" stroke-linejoin="round" stroke-miterlimit="10" stroke-dasharray="none" stroke-opacity="" data-original="#000000" opacity="1" class=""></path><path d="M0 0c49.761 0 90.24-40.479 90.24-90.239" style="stroke-width:20;stroke-linecap:round;stroke-linejoin:round;stroke-miterlimit:10;stroke-dasharray:none;stroke-opacity:1" transform="translate(291.43 381.56)" fill="none" stroke="#ffffff" stroke-width="20" stroke-linecap="round" stroke-linejoin="round" stroke-miterlimit="10" stroke-dasharray="none" stroke-opacity="" data-original="#000000" opacity="1" class=""></path><path d="M0 0c16.61 0 30.08-13.471 30.08-30.08" style="stroke-width:20;stroke-linecap:round;stroke-linejoin:round;stroke-miterlimit:10;stroke-dasharray:none;stroke-opacity:1" transform="translate(291.43 321.4)" fill="none" stroke="#ffffff" stroke-width="20" stroke-linecap="round" stroke-linejoin="round" stroke-miterlimit="10" stroke-dasharray="none" stroke-opacity="" data-original="#000000" opacity="1" class=""></path><path d="M0 0c0-5.523-4.477-10-10-10-5.522 0-10 4.477-10 10 0 5.522 4.478 10 10 10C-4.477 10 0 5.522 0 0" style="fill-opacity:1;fill-rule:nonzero;stroke:none" transform="translate(187.418 187.196)" fill="#ffffff" data-original="#000000" opacity="1"></path><path d="M0 0a383.558 383.558 0 0 0-18.018 25.798c-7.439 11.649-5.189 27.079 4.58 36.849l33.951 33.951c7.309 7.299 7.309 19.149 0 26.45l-79.901 79.899c-7.3 7.311-19.149 7.311-26.449 0l-20.221-20.219c-32.819-32.811-41.689-82.89-21.089-124.47 36.65-73.99 112.07-187.41 257.37-258.66 41.71-20.441 92.02-11.771 124.86 21.069l20.68 20.681c7.309 7.299 7.309 19.149 0 26.46l-79.901 79.889c-7.3 7.311-19.149 7.311-26.449 0l-33.95-33.95c-9.771-9.769-25.2-12.019-36.851-4.58a383.454 383.454 0 0 0-36.228 26.25" style="stroke-width:20;stroke-linecap:round;stroke-linejoin:round;stroke-miterlimit:10;stroke-dasharray:none;stroke-opacity:1" transform="translate(148.197 221.393)" fill="none" stroke="#ffffff" stroke-width="20" stroke-linecap="round" stroke-linejoin="round" stroke-miterlimit="10" stroke-dasharray="none" stroke-opacity="" data-original="#000000" opacity="1" class=""></path></g></g></svg>