<svg xmlns="http://www.w3.org/2000/svg" version="1.1" xmlns:xlink="http://www.w3.org/1999/xlink" width="512" height="512" x="0" y="0" viewBox="0 0 512.001 512.001" style="enable-background:new 0 0 512 512" xml:space="preserve" class=""><g><path d="m511.512 501.838-75-197.57a7.5 7.5 0 0 0-3.33-3.872l-79.886-45.006 23.323-36.98c14.314-22.714 21.881-48.963 21.881-75.909 0-78.575-63.925-142.5-142.5-142.5s-142.5 63.925-142.5 142.5c0 26.953 7.57 53.203 21.892 75.911l23.317 36.98-79.889 45.004a7.498 7.498 0 0 0-3.331 3.872l-75 197.57a7.502 7.502 0 0 0 10.693 9.197l120.568-67.926 120.568 67.926a7.503 7.503 0 0 0 7.363 0l120.568-67.926 120.568 67.926a7.497 7.497 0 0 0 8.573-.847 7.501 7.501 0 0 0 2.122-8.35zM263.501 388.712a22.436 22.436 0 0 0 11.521-9.217c.381-.6 64.229-101.834 64.229-101.834l32.519 153.008-108.269 60.996zM148.08 210.409c-12.809-20.31-19.579-43.792-19.579-67.909 0-70.304 57.196-127.5 127.5-127.5s127.5 57.196 127.5 127.5c0 24.112-6.768 47.596-19.569 67.909-1.001 1.587-99.823 158.299-101.547 161.006-.016.023-.03.047-.045.07-1.391 2.2-3.76 3.515-6.339 3.515-2.581 0-4.961-1.321-6.354-3.511-1.002-1.589-100.021-158.611-101.533-161.025l-.034-.055zM88.548 312.131l69.916-39.387-12.18 57.304a7.5 7.5 0 0 0 7.343 9.062 7.503 7.503 0 0 0 7.328-5.942l11.797-55.502 64.221 101.849a22.53 22.53 0 0 0 11.526 9.196v102.956L140.232 430.67l14.487-68.159a7.5 7.5 0 0 0-5.776-8.896 7.495 7.495 0 0 0-8.896 5.776l-14.929 70.236-103.256 58.174zm298.335 117.497L353.54 272.743l69.913 39.388 66.687 175.67z" fill="#ffffff" opacity="1" data-original="#000000" class=""></path><path d="M338.501 142.5c0-45.49-37.01-82.5-82.5-82.5s-82.5 37.01-82.5 82.5 37.01 82.5 82.5 82.5 82.5-37.01 82.5-82.5zm-150 0c0-37.22 30.28-67.5 67.5-67.5s67.5 30.28 67.5 67.5-30.28 67.5-67.5 67.5-67.5-30.28-67.5-67.5z" fill="#ffffff" opacity="1" data-original="#000000" class=""></path><path d="M308.501 142.5c0-28.948-23.552-52.5-52.5-52.5s-52.5 23.552-52.5 52.5 23.552 52.5 52.5 52.5 52.5-23.552 52.5-52.5zm-90 0c0-20.678 16.822-37.5 37.5-37.5s37.5 16.822 37.5 37.5-16.822 37.5-37.5 37.5-37.5-16.822-37.5-37.5z" fill="#ffffff" opacity="1" data-original="#000000" class=""></path></g></svg>