<svg width="20" height="20" viewBox="0 0 20 20" fill="none" xmlns="http://www.w3.org/2000/svg">
<rect width="20" height="20" rx="10" fill="#12B5E4"/>
<path fill-rule="evenodd" clip-rule="evenodd" d="M6.11061 5.74798L9.04963 4.37919C9.65784 4.09593 10.3521 4.09593 10.9603 4.37919L13.8877 5.74256C14.7437 6.14124 15.3056 7.0373 15.2456 8.01693C15.0156 11.7745 13.9904 13.4732 11.2191 15.4439C10.4877 15.964 9.52299 15.9627 8.79109 15.4435C6.02832 13.4834 4.96508 11.8085 4.7536 8.00376C4.6995 7.03056 5.2605 6.14391 6.11061 5.74798ZM10 11.1667C10.6443 11.1667 11.1667 10.6444 11.1667 10.0001C11.1667 9.35575 10.6443 8.83341 10 8.83341C9.35567 8.83341 8.83333 9.35575 8.83333 10.0001C8.83333 10.6444 9.35567 11.1667 10 11.1667Z" fill="white"/>
</svg>
