<svg width="15" height="16" viewBox="0 0 15 16" fill="none" xmlns="http://www.w3.org/2000/svg">
<path d="M0.0200195 14.5V6H14.02V14.5C14.02 15.3438 13.3325 16 12.52 16H1.52002C0.67627 16 0.0200195 15.3438 0.0200195 14.5ZM10.02 8.375V9.625C10.02 9.84375 10.1763 10 10.395 10H11.645C11.8325 10 12.02 9.84375 12.02 9.625V8.375C12.02 8.1875 11.8325 8 11.645 8H10.395C10.1763 8 10.02 8.1875 10.02 8.375ZM10.02 12.375V13.625C10.02 13.8438 10.1763 14 10.395 14H11.645C11.8325 14 12.02 13.8438 12.02 13.625V12.375C12.02 12.1875 11.8325 12 11.645 12H10.395C10.1763 12 10.02 12.1875 10.02 12.375ZM6.02002 8.375V9.625C6.02002 9.84375 6.17627 10 6.39502 10H7.64502C7.83252 10 8.02002 9.84375 8.02002 9.625V8.375C8.02002 8.1875 7.83252 8 7.64502 8H6.39502C6.17627 8 6.02002 8.1875 6.02002 8.375ZM6.02002 12.375V13.625C6.02002 13.8438 6.17627 14 6.39502 14H7.64502C7.83252 14 8.02002 13.8438 8.02002 13.625V12.375C8.02002 12.1875 7.83252 12 7.64502 12H6.39502C6.17627 12 6.02002 12.1875 6.02002 12.375ZM2.02002 8.375V9.625C2.02002 9.84375 2.17627 10 2.39502 10H3.64502C3.83252 10 4.02002 9.84375 4.02002 9.625V8.375C4.02002 8.1875 3.83252 8 3.64502 8H2.39502C2.17627 8 2.02002 8.1875 2.02002 8.375ZM2.02002 12.375V13.625C2.02002 13.8438 2.17627 14 2.39502 14H3.64502C3.83252 14 4.02002 13.8438 4.02002 13.625V12.375C4.02002 12.1875 3.83252 12 3.64502 12H2.39502C2.17627 12 2.02002 12.1875 2.02002 12.375ZM12.52 2C13.3325 2 14.02 2.6875 14.02 3.5V5H0.0200195V3.5C0.0200195 2.6875 0.67627 2 1.52002 2H3.02002V0.5C3.02002 0.25 3.23877 0 3.52002 0H4.52002C4.77002 0 5.02002 0.25 5.02002 0.5V2H9.02002V0.5C9.02002 0.25 9.23877 0 9.52002 0H10.52C10.77 0 11.02 0.25 11.02 0.5V2H12.52Z" fill="white"/>
</svg>
