<svg width="152" height="102" viewBox="0 0 152 102" fill="none" xmlns="http://www.w3.org/2000/svg">
<path d="M88.7656 57.2344H107.766L76 25.7656L44.2344 57.2344H63.2344V82.7656H88.7656V57.2344ZM122.609 38.5312C130.724 39.125 137.651 42.4896 143.391 48.625C149.13 54.5625 152 61.6875 152 70C152 78.7083 148.833 86.2292 142.5 92.5625C136.365 98.6979 128.943 101.766 120.234 101.766H38C27.5104 101.766 18.5052 98.1042 10.9844 90.7812C3.66146 83.2604 0 74.2552 0 63.7656C0 54.4635 3.26562 46.151 9.79688 38.8281C16.526 31.3073 24.5417 27.0521 33.8438 26.0625C38 18.3438 43.8385 12.1094 51.3594 7.35938C58.8802 2.60938 67.0938 0.234375 76 0.234375C86.6875 0.234375 96.5833 3.99479 105.688 11.5156C114.99 19.0365 120.63 28.0417 122.609 38.5312Z" fill="#0F256F"/>
</svg>
