<svg width="122" height="40" viewBox="0 0 122 40" fill="none" xmlns="http://www.w3.org/2000/svg">
<g clip-path="url(#clip0_211_1681)">
<path d="M118.2 24.4454L121.584 26.6999C120.486 28.3166 117.859 31.0904 113.316 31.0904C107.676 31.0904 103.475 26.7297 103.475 21.1823C103.475 15.2792 107.72 11.2744 112.841 11.2744C117.992 11.2744 120.516 15.368 121.332 17.578L121.777 18.7054L108.507 24.1932C109.516 26.1808 111.09 27.1894 113.316 27.1894C115.543 27.1894 117.087 26.0918 118.2 24.4454ZM107.795 20.8711L116.656 17.1925C116.166 15.9616 114.712 15.0866 112.975 15.0866C110.763 15.0866 107.691 17.0444 107.795 20.8711Z" fill="#FF302F"/>
<path d="M97.0774 1.17383H101.352V30.1857H97.0774V1.17383Z" fill="#20B15A"/>
<path d="M90.3384 12.0457H94.4649V29.6664C94.4649 36.9786 90.1453 39.9895 85.039 39.9895C80.2297 39.9895 77.3353 36.7562 76.2516 34.131L80.0367 32.5586C80.7194 34.1752 82.3671 36.0888 85.039 36.0888C88.3194 36.0888 90.3384 34.0567 90.3384 30.2598V28.836H90.1899C89.2101 30.0224 87.3398 31.0902 84.9649 31.0902C80.007 31.0902 75.4646 26.7741 75.4646 21.2121C75.4646 15.6202 80.007 11.2598 84.9649 11.2598C87.325 11.2598 89.2101 12.3129 90.1899 13.4698H90.3384V12.0457ZM90.635 21.2121C90.635 17.7117 88.3046 15.1605 85.3359 15.1605C82.3373 15.1605 79.8139 17.7117 79.8139 21.2121C79.8139 24.6679 82.3373 27.1745 85.3359 27.1745C88.3049 27.1895 90.6352 24.6679 90.6352 21.2121" fill="#3686F7"/>
<path d="M51.9967 21.1384C51.9967 26.8489 47.5437 31.0463 42.0811 31.0463C36.6188 31.0463 32.1655 26.8342 32.1655 21.1384C32.1655 15.3984 36.6188 11.2158 42.0811 11.2158C47.5437 11.2158 51.9967 15.3984 51.9967 21.1384ZM47.6624 21.1384C47.6624 17.5789 45.0794 15.1313 42.0811 15.1313C39.0828 15.1313 36.4999 17.5789 36.4999 21.1384C36.4999 24.6684 39.0828 27.1456 42.0811 27.1456C45.0797 27.1456 47.6624 24.6684 47.6624 21.1384Z" fill="#FF302F"/>
<path d="M73.654 21.1823C73.654 26.8927 69.2007 31.0901 63.7384 31.0901C58.2758 31.0901 53.8228 26.8925 53.8228 21.1823C53.8228 15.4423 58.2758 11.2744 63.7384 11.2744C69.2007 11.2744 73.654 15.4275 73.654 21.1823ZM69.3046 21.1823C69.3046 17.6227 66.7219 15.1751 63.7233 15.1751C60.7248 15.1751 58.1421 17.6227 58.1421 21.1823C58.1421 24.7123 60.725 27.1894 63.7233 27.1894C66.7366 27.1894 69.3046 24.6975 69.3046 21.1823Z" fill="#FFBA40"/>
<path d="M15.8671 26.7449C9.64749 26.7449 4.77893 21.7315 4.77893 15.5168C4.77893 9.30224 9.64749 4.2889 15.8671 4.2889C19.2219 4.2889 21.6709 5.6089 23.4819 7.29986L26.4656 4.31867C23.9422 1.90105 20.5727 0.0615234 15.8671 0.0615234C7.34689 0.0617615 0.177246 7.00343 0.177246 15.5168C0.177246 24.0301 7.34689 30.972 15.8671 30.972C20.4688 30.972 23.9422 29.4591 26.6586 26.641C29.4491 23.8525 30.3101 19.9368 30.3101 16.7627C30.3101 15.7689 30.1914 14.7456 30.0577 13.9891H15.8671V18.1125H25.9757C25.6788 20.6934 24.8625 22.4584 23.6601 23.6596C22.2054 25.1282 19.9048 26.7449 15.8671 26.7449Z" fill="#3686F7"/>
</g>
<defs>
<clipPath id="clip0_211_1681">
<rect width="122" height="40" fill="white"/>
</clipPath>
</defs>
</svg>
