<?xml version="1.0" encoding="UTF-8"?>
<svg xmlns="http://www.w3.org/2000/svg" viewBox="0 0 300.7 39.3">
<title>Air Canada</title>
<desc>Air Canada logo</desc>
<metadata xmlns:rdf="http://www.w3.org/1999/02/22-rdf-syntax-ns#" xmlns:Airline="http://schema.org/Airline">
<rdf:RDF>
<Airline:name>Air Canada</Airline:name>
<Airline:iataCode>AC</Airline:iataCode>
<Airline:url>https://airlinelogos.aero/AC</Airline:url>
</rdf:RDF>
</metadata>
<g>
	<path fill="#D82F2E" d="M20.7,27.9c0-1.3,0.7-1.5,1.9-0.8c2.2,1.2,4.6,2.5,4.6,2.5c0.1-0.7,0.7-1.3,2-1c1.2,0.3,2.6,0.6,2.6,0.6
		s-0.7-1.7-1.1-2.4c-0.6-1.4,0-2,0.6-2.2c0,0-0.8-0.6-1.4-1c-1.2-0.8-0.9-1.7,0.2-2.2c1.6-0.7,3.6-1.6,3.6-1.6
		c-0.6-0.4-1.4-1.4-0.5-2.6c0.8-1.2,2-2.8,2-2.8s-2.2,0-3.6,0c-1.3,0-1.6-1.1-1.6-1.8c0,0-2.1,1.5-3.6,2.5c-1.3,0.9-2.4,0-2.2-1.5
		c0.3-2.3,0.6-4.9,0.6-4.9c-0.8,0.5-2.1,0.5-2.7-0.8C21.1,6.2,20,3.9,20,3.9s-1,2.2-1.9,4.1c-0.6,1.3-2,1.3-2.7,0.8
		c0,0,0.3,2.6,0.6,4.9c0.2,1.5-1,2.3-2.2,1.5c-1.5-1-3.6-2.5-3.6-2.5c0,0.7-0.3,1.8-1.6,1.8c-1.4,0-3.6,0-3.6,0s1.2,1.7,2,2.8
		c0.8,1.2,0.1,2.2-0.5,2.6c0,0,2,0.9,3.6,1.6c1.2,0.5,1.5,1.3,0.2,2.2c-0.6,0.4-1.4,1-1.4,1c0.6,0.2,1.2,0.8,0.6,2.2
		c-0.3,0.7-1.1,2.4-1.1,2.4s1.4-0.3,2.6-0.6c1.3-0.3,2,0.3,2,1c0,0,2.3-1.3,4.5-2.5c1.2-0.7,1.9-0.4,1.9,0.8V31c0,1.8-0.3,3.8-1,4.8
		C9.8,34.9,2.7,28.1,2.7,19.1C2.7,9.8,10.5,2.2,20,2.2c9.6,0,17.3,7.5,17.3,16.8c0,8.7-6.7,15.8-15.4,16.7v2.3
		c10.2-0.9,18.1-9.1,18.1-19C40.1,8.5,31.1,0,20,0C9,0,0,8.5,0,19.1c0,9.3,6.9,17,16.2,18.7c1.6,0.3,2.5,0.5,3.4,1.5
		c1-1.8,1.2-5.6,1.2-7.8V27.9z"/>
	<path d="M101.6,29.3V8.9h9.9c5.3,0,7.7,2.2,7.8,5.1c0.1,1.3-0.2,2.6-1.1,3.6c-0.9,1-1.3,1.4-3,2.2l7.5,9.5h-5.6l-6.6-8.4h-4.5v8.4
		H101.6z M106.1,18.1h2c5.5,0,6.6-0.9,6.6-3.6c0-2.6-2.4-3-6-3h-2.7V18.1z"/>
	<path d="M56.9,29.3l8.9-20.4h5.4l8.8,20.4h-5.5l-2.4-5.5h-9.4l-2.4,5.5H56.9z M63.9,21.1H71L67.5,13L63.9,21.1z"/>
	<rect x="86.4" y="8.9" width="4.8" height="20.4"/>
	<path d="M157,28.6c-2.3,0.9-5.1,1.3-8.4,1.3c-4,0-7.2-1-9.4-2.9c-2.3-1.9-3.4-4.6-3.4-8c0-3.5,1.1-6.1,3.4-8
		c2.3-1.9,5.5-2.8,9.7-2.8c2.7,0,5.4,0.3,8,0.8l0,3.3c-3-0.9-5.8-1.3-7.8-1.3c-2.6,0-4.6,0.7-6,2c-1.4,1.4-2.1,3.3-2.1,5.9
		c0,2.5,0.7,4.4,2.3,5.8c1.5,1.4,3.6,2.1,6.3,2.1c2.4,0,5.1-0.5,7.5-1.5V28.6z"/>
	<path d="M162.8,29.3l8.9-20.4h5.4l8.8,20.4h-5.5l-2.4-5.5h-9.4l-2.4,5.5H162.8z M169.8,21.1h7.1l-3.5-8.1L169.8,21.1z"/>
	<path d="M221.7,29.3l8.9-20.4h5.4l8.8,20.4h-5.5l-2.4-5.5h-9.4l-2.4,5.5H221.7z M228.7,21.1h7.1l-3.5-8.1L228.7,21.1z"/>
	<path d="M277.6,29.3l8.9-20.4h5.4l8.8,20.4h-5.5l-2.4-5.5h-9.4l-2.4,5.5H277.6z M284.6,21.1h7.1l-3.5-8.1L284.6,21.1z"/>
	<polygon points="192.7,29.3 192.7,8.9 198.2,8.9 211,23.4 211,8.9 214.9,8.9 214.9,29.3 209.9,29.3 196.6,14 196.6,29.3"/>
	<path d="M251.6,29.3V8.9h9.9c3.5,0,6.2,0.9,8.1,2.5c1.9,1.7,2.8,4.1,2.8,7.2c0,3.4-1,6-3,7.8c-2,1.9-4.8,2.8-8.4,2.8H251.6z
		 M256.3,26.4l3.5,0c2.5,0,4.3-0.6,5.6-1.8c1.2-1.2,1.8-3.1,1.9-5.6c0-1.9-0.5-3.6-1.5-4.9c-0.7-0.9-1.5-1.5-2.4-1.9
		c-1-0.3-2.3-0.5-4.2-0.5l-2.9,0V26.4z"/>
</g>
</svg>
