<?xml version="1.0" encoding="UTF-8"?>
<svg xmlns="http://www.w3.org/2000/svg" xmlns:xlink="http://www.w3.org/1999/xlink" viewBox="0 0 182.17 27.86">
<title>American Airlines</title>
<desc>American Airlines logo</desc>
<metadata xmlns:rdf="http://www.w3.org/1999/02/22-rdf-syntax-ns#" xmlns:Airline="http://schema.org/Airline">
<rdf:RDF>
<Airline:name>American Airlines</Airline:name>
<Airline:iataCode>AA</Airline:iataCode>
<Airline:url>https://airlinelogos.aero/AA</Airline:url>
</rdf:RDF>
</metadata>
<defs>
<style>.cls-1{fill:url(#linear-gradient);}.cls-2{fill:url(#linear-gradient-2);}.cls-3{fill:url(#linear-gradient-3);}.cls-4{fill:url(#linear-gradient-4);}.cls-5{fill:#36495a;}</style>
<linearGradient id="linear-gradient" x1="171.96" y1="15.81" x2="171.96" y2="33.9" gradientUnits="userSpaceOnUse"><stop offset="0" stop-color="#ed1c24"/><stop offset="0.13" stop-color="#e81b23"/><stop offset="0.27" stop-color="#db1a21"/><stop offset="0.42" stop-color="#c4171d"/><stop offset="0.58" stop-color="#a41317"/><stop offset="0.74" stop-color="#7b0e10"/><stop offset="0.75" stop-color="#780e0f"/></linearGradient><linearGradient id="linear-gradient-2" x1="163.73" y1="17.32" x2="170.33" y2="17.32" gradientUnits="userSpaceOnUse"><stop offset="0" stop-color="#69231d"/><stop offset="0.26" stop-color="#8d2922"/><stop offset="0.58" stop-color="#b22f26"/><stop offset="0.84" stop-color="#c93329"/><stop offset="1" stop-color="#d1342a"/></linearGradient><linearGradient id="linear-gradient-3" x1="163" y1="16.35" x2="170.36" y2="11.93" gradientUnits="userSpaceOnUse"><stop offset="0.1" stop-color="#e7ebee"/><stop offset="0.35" stop-color="#d5dce0"/><stop offset="0.85" stop-color="#a5b4bb"/><stop offset="1" stop-color="#96a7b0"/></linearGradient><linearGradient id="linear-gradient-4" x1="158.95" y1="12.63" x2="158.95" y2="0.13" gradientUnits="userSpaceOnUse"><stop offset="0" stop-color="#1c2f72"/><stop offset="0.13" stop-color="#174687"/><stop offset="0.4" stop-color="#0d72af"/><stop offset="0.65" stop-color="#0692cc"/><stop offset="0.86" stop-color="#02a6de"/><stop offset="1" stop-color="#00ade4"/></linearGradient>
</defs>
<path class="cls-1" d="M167,25.29a5.28,5.28,0,0,0,4.82,2.57H180l-9.67-11.74c-4.46.19-6.82,3.05-6.34,4.25Z"/>
<path class="cls-2" d="M164,20.37a3.74,3.74,0,0,1-.26-1.33c0-2.68,2.37-4.22,5.07-4.77l1.53,1.85C165.87,16.31,163.51,19.17,164,20.37Z"/>
<path class="cls-3" d="M167.72,11.65c-4.08,0-7.12.67-7.12,2.27a3.89,3.89,0,0,0,.68,2L164,20.37a3.74,3.74,0,0,1-.26-1.33c0-2.68,2.37-4.22,5.07-4.77a11.94,11.94,0,0,1,2.38-.24,5.25,5.25,0,0,1,1.76.21C172.65,13.21,171.91,11.65,167.72,11.65Z"/>
<path class="cls-4" d="M157,8.88c1.12,1.83,1.53,2.29,4.2,2.29h5.1l-7-8.87C157.72.38,156.83,0,155.4,0h-3.81Z"/>
<path class="cls-5" d="M79.08,22.29V15.6c0-1.28-.59-2.06-1.68-2.06C76,13.54,75,15.08,75,17.16v5.13H72.64V14.68c0-.84-.08-2.06-.12-2.75h1.89c.22,0,.28.09.28.28s0,1.29,0,1.29h.05a3.33,3.33,0,0,1,3.18-1.79A3.23,3.23,0,0,1,81.43,15v7.33ZM60.68,20c.07,0,.15,0,.17.22,0,.49.07,1.3.07,1.56a6.3,6.3,0,0,1-2.74.69c-3.14,0-5.06-1.82-5.06-5.38,0-3.34,1.71-5.4,5.06-5.4a6.25,6.25,0,0,1,2.74.7c0,.37,0,1.21-.07,1.56,0,.15-.08.22-.17.22a.43.43,0,0,1-.18,0,4.84,4.84,0,0,0-2.11-.55c-2,0-2.82,1.3-2.82,3.52,0,2,.66,3.51,2.82,3.51a4.8,4.8,0,0,0,2-.52A.45.45,0,0,1,60.68,20Zm8.13,2.27a.31.31,0,0,1-.36-.33c0-.34-.07-1-.07-1h0a3.62,3.62,0,0,1-3.15,1.53A3.18,3.18,0,0,1,62,19.16c0-2.42,2.35-3.64,5.83-3.64h.47v-.38c0-1.08-.77-1.66-2.22-1.66a6.34,6.34,0,0,0-2.79.67.56.56,0,0,1-.18,0c-.11,0-.17-.07-.18-.19,0-.39-.06-1.14-.06-1.61a9.88,9.88,0,0,1,3.38-.69c3.08,0,4.4,1.43,4.4,3.72v4a19.86,19.86,0,0,0,.19,2.82ZM68.25,17h-.4c-3,0-3.54,1-3.54,2.07A1.59,1.59,0,0,0,66,20.77c1.47,0,2.27-1.42,2.27-2.91ZM38.74,20c.13,0,.17.11.18.23,0,.44.08,1.44.07,1.7a10,10,0,0,1-3.21.54c-3.3,0-5.29-1.71-5.29-5.38,0-3.15,1.69-5.4,4.74-5.4a4.13,4.13,0,0,1,4.41,4.48c0,.29,0,.79-.09,1.44H32.91a2.9,2.9,0,0,0,3.2,3,5.57,5.57,0,0,0,2.43-.59A.43.43,0,0,1,38.74,20Zm-5.81-4h4.36c.09-1.67-.79-2.61-2.11-2.61S33,14.44,32.93,16.05Zm-6.5,6.24V15.66c0-1.19-.51-2.12-1.73-2.12s-2.16,1.51-2.16,3.61v5.14H20.19V15.64c0-1.08-.46-2.1-1.72-2.1S16.3,15,16.3,17.22v5.07H13.94V14.75c0-1-.08-2.36-.11-2.82h1.88c.21,0,.29.07.29.29s0,1.28,0,1.28h.05a3.27,3.27,0,0,1,3.08-1.79,3.1,3.1,0,0,1,3,1.89,3.43,3.43,0,0,1,3.11-1.89c2.11,0,3.55,1.14,3.55,3.41v7.17ZM43.8,17.24v5.05H41.44v-7.7c0-.74-.08-2.15-.11-2.66h1.9c.2,0,.27.09.27.29s0,1.28,0,1.28h0a2.87,2.87,0,0,1,2.81-1.79A3.23,3.23,0,0,1,47.6,12c0,.44-.05,1.42-.07,1.68s-.09.23-.17.23a.39.39,0,0,1-.17,0,2.58,2.58,0,0,0-1-.17C45,13.66,43.8,14.57,43.8,17.24Zm5.05,5.05V11.93H51.2V22.29Zm0-11.87V8.14h2.41v2.28ZM10.38,22.29,9.3,19.24H3.54L2.46,22.29H0L5.16,8.69H7.9L13,22.29ZM6.44,11.17h0L4.2,17.39H8.64ZM145.1,22.49c3.06,0,4.53-1.25,4.53-3.11s-1.3-2.6-2.68-3.06l-1.15-.38c-.94-.31-1.43-.72-1.43-1.33s.59-1.1,1.81-1.1a5.33,5.33,0,0,1,2.33.61.4.4,0,0,0,.21.07c.07,0,.16,0,.18-.23,0-.35.06-1,.06-1.58a6.43,6.43,0,0,0-3-.67c-2.53,0-4.09,1.32-4.09,3.06s1.16,2.45,2.42,2.87l1.15.38c1.32.44,1.7.84,1.7,1.46,0,.81-.86,1.21-2.34,1.21a5.18,5.18,0,0,1-2.38-.61.43.43,0,0,0-.2-.06c-.18,0-.18.23-.18.27s-.06,1.18-.06,1.54A7.64,7.64,0,0,0,145.1,22.49ZM139.59,20c.13,0,.17.11.18.23,0,.44.08,1.44.07,1.7a10,10,0,0,1-3.21.54c-3.3,0-5.29-1.7-5.29-5.38,0-3.15,1.7-5.4,4.74-5.4s4.4,2,4.4,4.48c0,.29,0,.79-.08,1.44h-6.64a2.9,2.9,0,0,0,3.21,3,5.52,5.52,0,0,0,2.42-.59A.51.51,0,0,1,139.59,20Zm-5.8-4h4.35c.09-1.67-.79-2.61-2.11-2.61S133.85,14.44,133.79,16.05Zm-6.51,6.24V15.6c0-1.28-.59-2.06-1.68-2.06-1.45,0-2.41,1.54-2.41,3.62v5.13h-2.35V14.68c0-.84-.08-2.06-.12-2.75h1.89c.22,0,.28.09.28.28s0,1.29,0,1.29h0a3.31,3.31,0,0,1,3.17-1.79A3.23,3.23,0,0,1,129.63,15v7.33Zm-21.42-5.05v5.05H103.5v-7.7c0-.74-.09-2.15-.11-2.66h1.9c.2,0,.26.09.27.29s0,1.28,0,1.28h0a2.85,2.85,0,0,1,2.81-1.79,3.23,3.23,0,0,1,1.22.25c0,.44,0,1.42-.07,1.68s-.09.23-.18.23a.34.34,0,0,1-.16,0,2.69,2.69,0,0,0-1-.16C107,13.67,105.86,14.57,105.86,17.24Zm7.49,5.05V8.16H111V22.29Zm-14.77,0V11.93h2.36V22.29Zm0-11.87V8.14H101v2.28Zm17.36,11.87V11.93h2.35V22.29Zm0-11.87V8.14h2.41v2.28ZM95,22.29l-1.07-3.05H88.17l-1.08,3.05H84.63l5.16-13.6h2.75l5.08,13.6ZM91.07,11.17h0l-2.2,6.22h4.45Z"/>
<path class="cls-5" d="M182.17,27.24a.63.63,0,1,1-.62-.63A.62.62,0,0,1,182.17,27.24Zm-1.13,0a.51.51,0,1,0,.51-.51A.51.51,0,0,0,181,27.24Zm.49,0h-.06v.25h-.11v-.62h.19c.14,0,.22.08.22.19a.16.16,0,0,1-.13.16l.16.27h-.13Zm0-.08c.09,0,.14,0,.14-.11s0-.1-.14-.1h-.05v.2Z"/>
</svg>
