<?xml version="1.0" encoding="UTF-8"?>
<svg xmlns="http://www.w3.org/2000/svg" viewBox="0 0 90 60">
<title>Emirates</title>
<desc>Emirates logo</desc>
<metadata xmlns:rdf="http://www.w3.org/1999/02/22-rdf-syntax-ns#" xmlns:Airline="http://schema.org/Airline">
<rdf:RDF>
<Airline:name>Emirates</Airline:name>
<Airline:alternateName>طَيَران الإمارات</Airline:alternateName>
<Airline:iataCode>EK</Airline:iataCode>
<Airline:url>https://airlinelogos.aero/EK</Airline:url>
</rdf:RDF>
</metadata>
<path fill="#d71921" d="M86 41.4V41c0-.3-.1-.5-.5-.5h-.2v1.1h.3c.1 0 .3 0 .4-.2m1 1.7h-.6l-.4-.6c-.3-.4-.5-.7-.7-.7v1.3h-.5v-2.8h.8c.8 0 1.1.2 1.1.7l-.2.6-.5.2c.2 0 .3.2.5.5l.4.8m.2-3c-.3-.3-.9-.5-1.4-.5-.5 0-1 .2-1.4.6a2 2 0 0 0-.6 1.4 2 2 0 0 0 2 2c.6 0 1-.2 1.4-.6.4-.3.6-1 .6-1.4 0-.5-.2-1-.6-1.4m.3 3c-.5.5-1 .7-1.7.7s-1.2-.2-1.7-.7a2.2 2.2 0 0 1 0-3.2c.5-.5 1-.8 1.7-.8s1.2.3 1.7.8c.5.4.8 1 .8 1.6a2 2 0 0 1-.8 1.6m-7.6-.4c-1.9 0-3.6 1.3-3.5 2.9 0 1.3.6 2.3 1.7 3l1.6 1c.9.6 1.2 1.2 1.2 1.8 0 .8-.7 1.9-2.3 1.9-1.6 0-2.2-1.6-2.2-1.6v2s1.1 1 2.8 1c2.2 0 4.3-1.7 4.3-4a3 3 0 0 0-.7-2c-.7-1-2-1.7-3-2.3-.7-.3-1-.9-1-1.2 0-.4.3-1.1 1.9-1.1 1.4 0 2 1.6 2 1.6v-2s-1-1-2.8-1m-25.4 0c-1.9 0-2.9 1-2.9 1v2s.6-1.6 2.2-1.6 1.7.8 1.7 1.2c0 0 .2.5-.3 1.2-.7 1.3-6.3 1.6-5.4 5.8.4 1.8 1.5 2.3 2.8 2.3 1.6 0 2.3-.7 2.7-1.4.2 1.3 1 1.4 1 1.4h3S58 54 58 52.3v-6.6c0-1.5-2-2.9-3.8-2.9m-.9 10.5c-.8 0-1.2-.7-1.2-1.4 0-3 2.3-3.4 3-4.2v5c-.3.2-.6.6-1.9.6M39.1 39c-.8 0-1.4.7-1.4 1.5 0 .7.7 1.4 1.4 1.4.8 0 1.5-.7 1.5-1.4 0-.8-.7-1.5-1.5-1.5M71.5 43c-3.3 0-5 2.9-5 6.1 0 3.3 2.1 5.7 5.1 5.7 2.5 0 3.4-1 3.4-1V52c-.8 1.2-1.7 1.5-2.4 1.5a3 3 0 0 1-1.2-.3c-1.5-.6-1.7-2.5-1.7-2.5 1.2-1.3 2.5-1 4.2-2.8 2.4-2.4.7-5-2.5-5m-1.9 6.6s-.3-5.4 1.8-5.6c1.7 0 1.3 2.4.8 3.2-.8 1.5-1.9 1.6-2.5 2.4m-5.7-9.1s-.8 1.1-2.2 2.3c-.9.7-2.7 1.6-2.7 1.6h2v8.2c0 2.2.9 2.2.9 2.2h3s-1.1-.7-1.1-2.3v-8h.7c1 0 2 .4 2 .4V43h-2.7v-2.6m-19.7 2.6h-2s1.2.5 1.2 2.3v7c0 2.4 1 2.4 1 2.4h3s-1.1-1-1.1-2.4v-5.7c0-.5.3-.9.7-1.2.4-.3.9-.4 1.4-.4.6 0 1.4.3 1.9 1v-2.2s-.4-.9-1.6-.9c-2 0-2.5 2.4-2.5 2.4-.1-1.9-.6-2.4-2-2.4m-5.6 0h-2s1.2.5 1.2 2.4v7c0 2.3 1 2.4 1 2.4h3.1s-1.2-.8-1.2-2.4v-6.6c0-2.7-1.5-2.7-2.1-2.7m-13 0c-2.3 0-2.9 2.2-2.9 2.2s0-2.2-2-2.2h-1.9s1 .5 1 2.4v7c0 2.3 1 2.4 1 2.4H24s-1.3-1-1.3-2.4v-6.2c0-.3.6-1.3 2-1.3.6 0 1.4.9 1.4 1.8v5.6c0 2.5 1 2.5 1 2.5h3s-1.1-1-1.1-2.4v-6.2c0-.3.5-1.2 1.7-1.2 1 0 1.7.8 1.7 1.6v5.8c0 2.4 1 2.4 1 2.4h3s-1.1-.8-1.1-2.4v-6.2c0-2.5-2-3.2-3.6-3.2-2 0-2.5 1.7-2.8 2.2-.4-1.6-2-2.3-3.2-2.3M13.9 40H6.5s1.3 1 1.2 3.3v9c0 2.3 1 2.4 1 2.4H16c1.6 0 2.1-1.2 2.1-1.9V52s-.4 1.1-2.6 1.1H12c-1 0-1-1-1-1.7v-4.9h2.5c.8 0 1.6.2 2.3.5 0 0-.9-2-3.3-2H11v-1.6s0-1.3-.3-1.8h2.2c2 0 3.5 0 5.2 1 0 0-.3-2.5-4.2-2.5M36 26.5L34 28.7c1.5 1.4 2 2.2 2.2 2.8 0 0 2.1-1.7 2.1-2.3 0-1-.6-1.3-2-2.7M31 22.6h-1s1 .7 1 2.3v5.4c0 3.5 3 6.7 6.5 6.7h2.9c1.9 0 2.5-.3 3.5-1.3l1-1.1c.7-.7 1.4-1.3 1.4-3v-1.9c0-1.5-1-2-1.4-2.5l-1-1v3.6l1 1c1.7 1.3.4 3.4-1 3.4h-6.5c-3.1-.1-5.6-2.6-5.6-5.7v-2.9c0-3-.8-3-.8-3M45 1.8l-1.5 1.4c-.6.7-.4 2 .9 3v3.2c0 .2-.3.5-.3.5s-1.7-1.5-3.3-1.5h-2.5c-1.5 0-2.8 1.3-2.9 1.4-.7.8-.8 2.3 0 3l1.6 1.6s-.4-2.7 0-4.5c0-.4.5-.9 1.1-.9 1.4 1 2.7 1.9 3.9 3l-4.5 4.7c-.2.2-.8.7-1.4.7-.8 0-1-.4-1.4-.8v2.2c0 .8 1 1.5 1.9 1.5h6c.4 0 1 0 1.4-.4l1.9-2.1c.4-.3.5-.7.5-1.2v-2.4c0-2.1-1.7-3.8-1.7-3.8S45 10 45 9V6.7s.7.7.8 1l1.2-1.2c.6-.6-.4-1.8-.7-2.2C45 3 45 1.7 45 1.7m-7.6 15.8l5.2-5s2 2 2.8 3.3c.3.5.7 1.7-1.1 1.7h-6.9m3 9l-2.1 2c1.5 1.5 1.9 2.3 2 3 .2-.1 2.2-1.8 2.2-2.4 0-1-.6-1.3-2-2.7M32.4 13h-1c.6.3 1.1 1.5 1.1 2.3v4.4c0 1.1 1 5.5 4.8 5.5h11.4v7.2c0 1.1-.4 1.9-.7 2.2L46.2 36h.8l3-2.8c.6-.6 1.4-1.4 1.4-3.6v-4.5l1.3-1.4 2.2-2c0 1.8 1 2.5 1.8 2.5a2 2 0 0 0 1.2-.5l2-1.9c1-.9 1.4-3.8-.8-3.8-1.4 0-3 2-3.2 2.3l-1-1v1.7c-.2.4-1 1-1.8 1h-1.6v-1.8c0-.8.3-1.8.7-2l1.8-1.7H53l-3.4 3.2c-.6.6-1 1.9-1 2.2H36c-1.5 0-2.5-1.5-2.5-2.8v-3.3c0-2.7-.7-2.9-.9-3m26 9.6c-.3 0-.6 0-1-.5a5 5 0 0 1-1-1.2c.1-.2.7-.4 1.2-.4.4 0 .7 0 1 .3.6 1 .4 1.8-.3 1.8m-4.7 2v3.6l1.1 1.3c1 1 1 2.8-2 5.8-.5.5-2 2-4.1 2h-5.5l3.3 2.8h2.1c2.2 0 4.2-1 5.6-2.3 1.2-1.3 1.9-3 1.9-4.7v-4.7c0-1.5-1-2.5-1.4-2.7l-1-1M53 1.8l-3.3 3c-.3.2-1 1.4-1 2.9v8.8a5 5 0 0 1-.7 2l-1.7 1.4h.7l3.2-2.8c.3-.5 1.2-1.4 1.2-3V5.5c0-1.3.6-2 1-2.4.1-.3 1.2-1.2 1.4-1.4l-.8.1"/>
</svg>
