<?xml version="1.0" encoding="UTF-8"?>
<svg xmlns="http://www.w3.org/2000/svg" viewBox="0 0 72 32">
<title>Etihad Airways logo</title>
<path d="M40.0592 2.36262L39.9923 2.29511L39.1214 1.41748L38.1836 2.36262L39.1214 3.30777L40.0592 2.36262Z" fill="#C4921B"/>
<path d="M42.0013 2.36262L41.8673 2.29511L40.9964 1.41748L40.0586 2.36262L40.9964 3.30777L42.0013 2.36262Z" fill="#C4921B"/>
<path d="M29.0059 2.16034C29.0059 2.36287 29.2068 2.43038 29.3408 2.49789C29.5418 2.5654 29.7427 2.70042 29.7427 2.97046V10.3291H37.8483V10.4641C37.8483 10.5316 37.8483 10.5316 37.8483 10.6667C37.8483 11.2743 38.0492 11.6793 38.3841 11.8143C38.3841 11.8143 38.5851 11.9494 38.8531 11.9494C39.054 11.9494 39.255 11.8819 39.4559 11.7468L39.5899 11.6793L39.4559 11.5443C39.255 11.3418 39.121 10.8017 39.121 10.4641V10.3966H42.1354V3.64557C42.1354 3.64557 41.7335 4.52321 40.2598 5.60338C40.2598 5.60338 40.3268 5.87341 40.5947 6.00844C40.9967 6.21097 40.9297 6.4135 40.9297 6.4135V9.11392H39.054V8.97891V8.84389C39.054 8.16878 38.8531 6.54852 37.0444 6.54852H36.9774C36.4415 6.54852 35.9056 6.54852 35.5037 6.54852H35.3697C34.2979 6.54852 33.762 6.41351 33.561 6.14347L33.494 6.00844L33.427 6.07595C33.2261 6.21097 33.0921 6.48101 33.0921 6.75106C33.0921 7.15612 33.36 7.6962 33.762 7.6962C34.0299 7.6962 34.4319 7.6962 34.8338 7.6962C35.5037 7.6962 36.2405 7.6962 36.2405 7.6962C37.7143 7.6962 37.7812 8.37131 37.7812 8.64135V8.97891H30.9485V0C30.9485 0 30.1447 1.08017 29.0059 1.8903V1.9578V2.16034Z" fill="#C4921B"/>
<path d="M24.3167 11.4093C24.3167 11.4093 24.1828 12.4895 26.3934 12.4895C28.202 12.4895 28.269 11.3418 28.269 11.3418V7.15619C28.269 6.88614 28.202 6.14353 27.4652 6.14353H21.1683V5.67095C21.1683 5.53593 21.2353 5.53593 21.3693 5.46842C21.7042 5.26589 21.7712 5.06336 21.7042 4.92834C20.9673 4.52327 20.2305 3.57812 20.2305 3.57812V7.22369H26.5273H26.5943C26.7953 7.22369 27.0632 7.2912 27.0632 7.69626V10.6667C27.0632 10.6667 27.0632 11.2743 26.4603 11.2743C25.4555 11.2743 25.5225 10.7342 25.5225 10.7342V9.11399H20.2305V10.3967H24.3837V11.4093H24.3167Z" fill="#C4921B"/>
<path d="M50.6438 2.9707C50.6438 2.63314 50.8448 2.56563 50.9788 2.49812C51.1128 2.43061 51.2467 2.36311 51.3137 2.09307V2.02555C51.3137 1.89053 51.2467 1.89053 51.1128 1.82302C50.9788 1.75551 50.7778 1.62048 50.3759 1.28293C49.706 0.742847 49.572 0.472807 49.572 0.472807L49.3711 0.135254V10.3969H50.6438C50.6438 10.3293 50.6438 3.17323 50.6438 2.9707Z" fill="#C4921B"/>
<path d="M46.3555 11.6796L45.4846 12.5572L44.6138 11.6796L45.4846 10.8019L46.3555 11.6796ZM43.475 11.6796L45.5516 13.7724L47.6282 11.6796L46.3555 10.3969L47.8962 8.77661V0.135254C47.8962 0.135254 47.2933 1.41796 46.2885 2.09307V2.16057C46.2885 2.3631 46.4224 2.43061 46.5564 2.49812C46.6904 2.56563 46.8243 2.70065 46.8243 2.9707C46.8243 3.24074 46.8243 8.16902 46.8243 8.16902L45.5516 9.51923L44.2788 8.16902C44.2788 8.10151 44.2788 3.17323 44.2788 2.9707C44.2788 2.63314 44.4128 2.56563 44.5468 2.49812C44.6808 2.43061 44.7477 2.3631 44.8147 2.16057V2.09307C43.8769 1.41796 43.207 0.135254 43.207 0.135254V8.91163L44.7477 10.4644L43.475 11.6796Z" fill="#C4921B"/>
<path d="M39.7904 16.2027L40.1253 16.4052C40.1923 16.4727 40.1923 16.4727 40.1923 16.5402V19.2406H34.3644L33.0246 20.9284V16.5402V16.4727L33.0916 16.4052L33.3596 16.2027V15.9326H30.4121V16.2027L30.6801 16.4052L30.747 16.4727V24.5065V24.6415L30.6801 24.709L30.4121 24.9115V25.1816H33.3596V24.9115L33.0246 24.709L32.9577 24.6415V20.9959L33.2926 21.0634L33.6945 20.8609L33.8955 20.7934C33.8955 20.7934 33.9625 20.7934 34.0294 20.7934H40.1253V23.6288L42.3359 21.2659V16.6077L42.4029 16.5402L42.7379 16.4052V16.1351H39.7904V16.2027Z" fill="#C4921B"/>
<path d="M71.2748 19.5105C70.9398 18.4304 70.136 17.5527 68.9302 16.8776C67.8584 16.27 66.3177 16 64.241 16H56.2695V16.27L56.6045 16.4726V17.4177H64.1741C65.7148 17.4177 66.8536 17.6203 67.5235 18.0253C68.5953 18.6329 69.1312 19.5105 69.1312 20.5232C69.1312 21.0633 68.9972 21.5359 68.7292 22.0084C68.4613 22.4135 67.9924 22.8186 67.4565 23.0886C66.7196 23.4937 65.5808 23.6962 64.1071 23.6962H60.1548V18.0928H58.0112V24.5063V24.5738L57.9442 24.6414L57.6763 24.7764V25.0464H64.1741C65.4468 25.0464 66.3847 24.9789 67.1216 24.8439C68.0594 24.6414 68.9302 24.3038 69.6001 23.8312C70.3369 23.3587 70.8729 22.7511 71.1408 22.1435C71.3418 21.6709 71.4758 21.1983 71.4758 20.6582C71.4088 20.2532 71.3418 19.8481 71.2748 19.5105Z" fill="#C4921B"/>
<path d="M46.8253 17.6201L39.7246 25.0463H43.007V24.7087H42.873H42.7391H42.6051L48.0311 18.9703L46.8253 17.6201Z" fill="#C4921B"/>
<path d="M53.9915 24.7764V25.1139H57.2069L48.6325 16L47.3597 17.3502L48.7664 18.8354L50.2402 20.3207H47.7616L46.4219 21.7384L46.6898 21.9409L47.0248 21.7384H47.0918C47.0918 21.7384 47.2257 21.7384 47.2927 21.7384H51.446L54.3264 24.8439C54.3264 24.8439 54.2595 24.9114 54.0585 24.9114H53.9915V24.7764Z" fill="#C4921B"/>
<path d="M29.1399 16.4052L29.4078 16.2027V15.9326H26.5273V16.2027L26.7953 16.4052L26.9293 16.5402V24.4389V24.574L26.8623 24.6415L26.5273 24.7765V25.0465H29.4078V24.7765L29.1399 24.6415L29.0729 24.574V16.5402V16.4727L29.1399 16.4052Z" fill="#C4921B"/>
<path d="M14.8043 23.2909H14.6703H14.3354L13.9334 23.4934C13.8665 23.561 13.7995 23.5609 13.7325 23.5609H7.23467C5.76094 23.5609 4.62215 23.3584 3.88528 22.9534C2.74649 22.3458 2.21059 21.5356 2.21059 20.388C2.21059 19.9154 2.34457 19.3753 2.67951 18.9702C3.21541 18.1601 4.01926 17.5525 5.22504 17.35C5.55998 17.2825 5.82793 17.2825 6.0289 17.2825H9.37829C9.57925 17.2825 9.57924 17.35 9.57924 17.35L9.51225 17.62H9.7802L11.1869 15.8647H7.16768C6.22985 15.8647 5.493 15.8648 5.02408 15.9323C4.75613 15.9323 4.48818 15.9998 4.28721 16.0673C3.61733 16.2023 3.01443 16.4723 2.41154 16.8099C1.40673 17.35 0.736865 18.0926 0.334939 18.9027C0.133975 19.3753 0 19.9154 0 20.523C0 22.0082 0.803853 23.1559 2.34457 24.0335C3.01445 24.4386 3.8183 24.7086 4.68914 24.8437C5.35902 24.9787 6.22986 24.9787 7.30166 24.9787H13.3306L14.8043 23.2909Z" fill="#C4921B"/>
<path d="M11.5213 21.1303L12.928 19.375H3.48275L2.54492 20.7927H11.0524C11.1863 20.7927 11.2533 20.8602 11.2533 20.8602L11.1863 21.1303H11.5213Z" fill="#C4921B"/>
<path d="M12.2597 15.9321L10.9199 17.6199L11.1879 17.6874H11.2549L11.6568 17.4849C11.7908 17.4174 11.8578 17.3498 11.9917 17.3498H17.2168V24.4385V24.506L17.1498 24.5735L16.8818 24.776V25.0461H19.8293V24.776L19.5613 24.5735L19.4943 24.506V24.4385V17.3498H24.1165C24.3175 17.3498 24.3175 17.4174 24.3175 17.4174V17.6874H24.5854L25.9922 15.9321H12.2597Z" fill="#C4921B"/>
</svg>
