<?xml version="1.0" encoding="UTF-8"?>
<svg xmlns="http://www.w3.org/2000/svg" viewBox="0 0 200 200">
<title>IndiGo logo</title>
<g transform="matrix(2.39 0 0 2.39 -115 -194)">
  <g transform="matrix(.265 0 0 .265 48.2 81.3)">
    <rect class="st0" width="316" height="316" fill="#3a469d"/>
    <g transform="matrix(1,0,0,-1,0,1638)">
      <path class="st1" d="m306 1392 0.4-5.4v-0.1h-1.1c-0.1 0-0.1 0-0.1 0.1l-0.2 2.2-0.7-2.3c0-0.1-0.1-0.1-0.1-0.1h-0.7c-0.1 0-0.1 0-0.1 0.1l-0.7 2.3-0.2-2.2v-0.1h-1c-0.1 0-0.1 0-0.1 0.1l0.4 5.4c0 0.1 0 0.1 0.1 0.1h1c0.1 0 0.1 0 0.1-0.1l0.9-3.6 0.9 3.6c0 0.1 0.1 0.1 0.1 0.1h1c0.1 0 0.1 0 0.1-0.1zm-9.5 0.2h4.3c0.1 0 0.1 0 0.1-0.1v-1c0-0.1 0-0.1-0.1-0.1h-1.6v-4.4c0-0.1 0-0.1-0.1-0.1h-1c-0.1 0-0.1 0-0.1 0.1v4.4h-1.7v1.1c0.1 0 0.2 0.1 0.2 0.1z" fill="#fff"/>
    </g>
    <g fill="#fff">
      <g stroke="#fff" stroke-miterlimit="10">
        <path class="st2" d="m273 304c-14.4-0.1-26.3-12.4-26.7-27.7-0.3-15.7 12.2-28.8 27.1-28.8 14.5 0.1 26.6 12.3 26.9 27.6 0.4 15.8-12.2 29.1-27.3 28.9zm1-47c-9.7-0.4-17.6 8.4-17.6 18.7 0 10 7.3 18.5 16.7 18.6 9.8 0.1 17.5-8.9 17.4-19.1-0.2-9.7-7.2-18-16.5-18.2z"/>
        <path class="st2" d="m200 305c-20.7-0.9-37.3-18.3-37.7-40-0.3-22.6 16.5-41.4 38.9-41.4 7 0 18.4 0.4 31.5 14.2l-7.4 7.8c-11.3-11-19.7-11.8-24.1-11.6-20 0.6-28.4 18.2-28 30.7 0.4 19.1 15.7 29.7 27.5 30.1 14.1 0.4 27.7-11 27.9-25.4h-26.7v-10.5h38.1c1.8 30.9-19.2 47.2-40 46.1z"/>
        <path class="st2" d="m14.3 303v-79.1h11.5v79.1z"/>
        <path class="st2" d="m109 304c-16.9-0.7-25.7-14-26.1-27.8-0.9-15.4 11.1-28.8 26.6-28.7 3.7 0 7.3 1.2 9.4 2.1l4 2v11.5l-1.7-1.9c-1.3-1.4-7.4-4.3-12.4-4.2-9.3 0.1-15.8 8.1-16 17.5-0.5 10.9 6.1 19.3 16.5 19.9 0.8 0 16.6-0.6 16.6-19v-51.5h10.4v51.8c0 14.3-10.9 29.1-27.3 28.3z"/>
        <path class="st2" d="m66.3 303v-28.7c0-15.9-7.8-16.2-11.9-16.6-5.4-0.9-12.7 4.8-12.7 14v31.4h-10v-30.8c0-16.1 11.6-24.5 23-24.6 5.5 0 22 4.7 22 24.1v31.2z"/>
        <path class="st2" d="m143 236c0.5-8.4 12.3-8 12.1 0.1-0.3 8.7-12.6 7.6-12.1-0.1zm1.3 67v-54.8h10.5v54.8z"/>
      </g>
      <circle class="st1" cx="210" cy="130" r="4.5"/>
      <circle class="st1" cx="210" cy="118" r="4.5"/>
      <circle class="st1" cx="186" cy="106" r="4.5"/>
      <circle class="st1" cx="198" cy="106" r="4.5"/>
      <circle class="st1" cx="208" cy="60" r="4.5"/>
      <circle class="st1" cx="220" cy="60" r="4.5"/>
      <circle class="st1" cx="232" cy="60" r="4.5"/>
      <circle class="st1" cx="244" cy="60" r="4.5"/>
      <circle class="st1" cx="256" cy="108" r="4.5"/>
      <circle class="st1" cx="256" cy="95.7" r="4.5"/>
      <circle class="st1" cx="256" cy="83.7" r="4.5"/>
      <circle class="st1" cx="256" cy="71.7" r="4.5"/>
      <circle class="st1" cx="210" cy="106" r="4.5"/>
      <circle class="st1" cx="219" cy="97.1" r="4.5"/>
      <circle class="st1" cx="227" cy="89.2" r="4.5"/>
      <circle class="st1" cx="236" cy="80.2" r="4.5"/>
      <circle class="st1" cx="244" cy="71.6" r="4.5"/>
      <circle class="st1" cx="256" cy="60" r="4.5"/>
      <circle class="st1" cx="264" cy="51.6" r="4.5"/>
      <circle class="st1" cx="273" cy="43.1" r="4.5"/>
    </g>
  </g>
</g>
</svg>
