<?xml version="1.0" encoding="UTF-8"?>
<svg xmlns="http://www.w3.org/2000/svg" viewBox="0 0 104.9 34">
<title>Qatar Airways logo</title>
<path fill="#525A68" d="M21.5,27.4c-0.2,0-0.4,0-0.6,0c-0.2,0-0.5,0-0.7,0l0.7-1.6L21.5,27.4z M22.3,29.2c0.1,0,0.3,0,0.5,0 c0.2,0,0.4,0,0.5,0c-0.3-0.6-0.7-1.6-1-2.2c-0.2-0.6-0.6-1.5-0.9-2.4c-0.1,0-0.1,0-0.2,0c-0.1,0-0.1,0-0.2,0 c-0.2,0.5-0.5,1.4-1.2,2.9l-0.8,1.7c0.1,0,0.2,0,0.3,0c0.1,0,0.2,0,0.3,0c0.1-0.4,0.3-0.9,0.5-1.4c0.3,0,0.5,0,0.8,0 c0.3,0,0.6,0,0.8,0l0.3,0.7L22.3,29.2z" />
<path fill="#525A68" d="M23.8,26.2c0,1.1,0,2.2-0.1,3c0.1,0,0.3,0,0.5,0c0.2,0,0.3,0,0.5,0c-0.1-0.5-0.1-1.2-0.1-2.2 c0-0.7,0-1.8,0.1-2.3c-0.2,0-0.3,0-0.5,0c-0.1,0-0.3,0-0.5,0C23.8,25.3,23.8,25.8,23.8,26.2" />
<path fill="#525A68" d="M27.8,27c0.6-0.1,1.1-0.5,1.1-1.2c0-0.3-0.1-0.5-0.3-0.7c-0.3-0.3-0.6-0.3-1-0.3c-0.2,0-0.9,0-1.1,0 c-0.3,0-0.5,0-0.7,0c0,0.8,0,0.9,0,1.8c0,1.3,0,1.4-0.1,2.7c0.1,0,0.3,0,0.5,0c0.2,0,0.3,0,0.4,0c0-0.2,0-1,0-1.2v-0.9h0.2 c0.4,0.5,0.8,1.1,1.1,1.6c0.1,0.2,0.2,0.4,0.3,0.5c0.2,0,0.3,0,0.5,0c0.2,0,0.4,0,0.6,0c-0.4-0.5-0.6-0.8-1.1-1.5 c-0.1-0.1-0.2-0.4-0.3-0.5L27.8,27z M26.7,25c0.1,0,0.3,0,0.5,0c0.2,0,0.4,0,0.6,0.2c0.2,0.2,0.3,0.4,0.3,0.7 c0,0.4-0.2,0.9-0.9,0.9c-0.2,0-0.3,0-0.5,0V25z" />
<path fill="#525A68" d="M31.2,27.7c-0.3-0.9-0.7-2.2-0.9-3c-0.2,0-0.3,0-0.5,0c-0.2,0-0.4,0-0.5,0c0.3,0.7,0.5,1.3,0.7,1.8 c0.3,0.9,0.5,1.4,0.7,2.2l0.2,0.5c0.1,0,0.2,0,0.3,0c0.1,0,0.1,0,0.2,0c0.1-0.3,0.2-0.8,0.3-1c0.3-0.8,0.3-0.9,0.6-1.8l0.2-0.5 c0.1,0.2,0.2,0.5,0.3,0.8c0.1,0.2,0.4,1.2,0.5,1.4c0.1,0.3,0.1,0.4,0.4,1.2c0.1,0,0.2,0,0.3,0c0.1,0,0.2,0,0.3,0 c0.3-0.8,0.3-0.9,0.6-1.9c0.4-1,0.6-1.6,1-2.6c-0.1,0-0.2,0-0.3,0c-0.1,0-0.2,0-0.3,0c-0.2,0.9-0.4,1.3-0.5,1.8 c-0.3,0.9-0.3,1-0.5,1.5c-0.2-0.6-0.4-1.1-0.6-1.7C33.4,26,33,24.7,33,24.7c-0.1,0-0.2,0-0.3,0c-0.1,0-0.2,0-0.3,0 c-0.2,0.8-0.9,2.7-1,2.9L31.3,28L31.2,27.7z" />
<path fill="#525A68" d="M37.8,27.4c-0.2,0-0.4,0-0.6,0c-0.2,0-0.5,0-0.7,0l0.7-1.6L37.8,27.4z M38.6,29.2c0.1,0,0.3,0,0.5,0 c0.2,0,0.4,0,0.5,0c-0.3-0.6-0.7-1.6-1-2.2c-0.2-0.6-0.6-1.5-0.9-2.4c-0.1,0-0.1,0-0.2,0c-0.1,0-0.1,0-0.2,0 c-0.2,0.5-0.5,1.4-1.2,2.9l-0.8,1.7c0.1,0,0.2,0,0.3,0c0.1,0,0.2,0,0.3,0c0.1-0.4,0.3-0.9,0.5-1.4c0.3,0,0.5,0,0.8,0 c0.3,0,0.6,0,0.8,0l0.3,0.7L38.6,29.2z" />
<path fill="#525A68" d="M41.3,27.4c0-0.1,0-0.1,0.1-0.2c0.3-0.5,0.5-1,0.8-1.4c0.1-0.2,0.6-0.9,0.7-1.1c-0.1,0-0.1,0-0.3,0 c-0.1,0-0.3,0-0.4,0c-0.5,1-0.6,1.3-1.1,2.2c-0.6-1-0.8-1.5-1.2-2.2c-0.2,0-0.4,0-0.5,0c-0.1,0-0.3,0-0.5,0 c0.3,0.6,0.9,1.5,1.2,2.1l0.4,0.7c0,0.4,0,1.3,0,1.8c0.1,0,0.3,0,0.4,0c0.2,0,0.3,0,0.5,0c0-0.6,0-1,0-1.5V27.4z" />
<path fill="#525A68" d="M43.3,28.2c0,0.3,0,0.4-0.2,0.7c0.2,0.1,0.7,0.3,1.2,0.3c1.2,0,1.7-0.8,1.7-1.4c0-0.2,0-0.6-0.3-0.9 c-0.2-0.2-0.4-0.3-0.9-0.5c-0.6-0.2-0.9-0.4-0.9-0.8c0-0.4,0.3-0.7,0.8-0.7c0.4,0,0.8,0.2,0.9,0.6h0.1c0.1-0.3,0.1-0.3,0.2-0.6 c-0.3-0.1-0.6-0.3-1.1-0.3c-1.2,0-1.5,0.7-1.5,1.3c0,0.5,0.2,0.9,0.8,1.2c0.2,0.1,0.5,0.2,0.7,0.3c0.1,0.1,0.5,0.2,0.5,0.8 c0,0.5-0.3,0.8-0.9,0.8C44,29,43.7,28.9,43.3,28.2L43.3,28.2z" />
<path fill="#5C0D34" d="M6.7,16c0-5,2.7-6.3,4.7-6.3c3.2,0,4.6,2.7,4.6,5.6c0,1.6-0.2,3.2-1,4.4c-0.8,1.2-2.2,2-3.6,2 C7.8,21.7,6.7,18.2,6.7,16 M16.6,26.2c0.6-0.4,1.5-0.9,2.2-1.2l-4.5-2.8c2.7-1,4.5-3.4,4.5-6.8c0-4.7-3.6-6.8-7.3-6.8 c-4,0-7.4,2.2-7.4,7.2C4,17,4.3,19,5.9,20.7c1.7,1.7,3.8,2,5.5,2c0.2,0,0.4,0,0.7,0L16.6,26.2z" />
<path fill="#5C0D34" d="M28,16.9c-0.6,0-1.2,0.1-1.8,0.1c-0.7,0-1.4-0.1-2.1-0.1l2-4.9L28,16.9z M30.2,22.4c0.4,0,0.9-0.1,1.5-0.1 c0.6,0,1.2,0.1,1.5,0.1c-0.9-1.9-2.2-4.9-2.9-6.6c-0.7-1.7-1.9-4.4-2.8-7.1c-0.2,0.1-0.4,0.1-0.6,0.1c-0.2,0-0.4,0-0.7-0.1 c-0.5,1.6-1.6,4.2-3.6,8.7l-2.3,5.1c0.3,0,0.6-0.1,0.9-0.1c0.3,0,0.7,0.1,0.9,0.1c0.3-1.1,0.9-2.8,1.6-4.3c0.8,0,1.6-0.1,2.4-0.1 c0.8,0,1.7,0,2.5,0.1l0.8,2.1L30.2,22.4z" />
<path fill="#5C0D34" d="M39,12.4c0-0.8,0-1.5,0-2.2c1.4,0,2.8,0,3.9,0.1c-0.1-0.3-0.1-0.5-0.1-0.7c0-0.2,0-0.4,0.1-0.8 C41,9,39.3,9,37.7,9c-1.5,0-3.7,0-5.3-0.1c0.1,0.2,0.1,0.5,0.1,0.7c0,0.2,0,0.5-0.1,0.7c1-0.1,2.9-0.1,3.1-0.1h1c0,0.8,0,1.5,0,2.2 l0,5.5c0,1.5-0.1,3-0.2,4.5c0.7-0.1,1-0.1,1.3-0.1c0.2,0,0.9,0.1,1.4,0.1C39,21.9,39,21.2,39,19.7V12.4z" />
<path fill="#5C0D34" d="M50,16.9c-0.6,0-1.2,0.1-1.8,0.1c-0.7,0-1.4-0.1-2.1-0.1l2-4.9L50,16.9z M52.2,22.4c0.4,0,0.9-0.1,1.5-0.1 c0.6,0,1.2,0.1,1.5,0.1c-0.9-1.9-2.2-4.9-2.9-6.6c-0.7-1.7-1.9-4.4-2.8-7.1c-0.2,0.1-0.4,0.1-0.6,0.1c-0.2,0-0.4,0-0.7-0.1 c-0.5,1.6-1.6,4.2-3.6,8.7l-2.3,5.1c0.3,0,0.6-0.1,0.9-0.1c0.3,0,0.7,0.1,0.9,0.1c0.3-1.1,0.9-2.8,1.6-4.3c0.8,0,1.6-0.1,2.4-0.1 c0.8,0,1.7,0,2.5,0.1l0.8,2.1L52.2,22.4z" />
<path fill="#5C0D34" d="M63.2,15.7c1.8-0.3,3.4-1.5,3.4-3.7c0-0.8-0.3-1.6-0.9-2.2c-0.8-0.8-1.8-1-3.1-1c-0.5,0-2.7,0.1-3.3,0.1 c-1,0-1.5-0.1-2-0.1c0.1,2.5,0.1,2.8,0.1,5.4c0,3.8,0,4.2-0.2,8.1c0.4-0.1,0.9-0.1,1.4-0.1c0.5,0,0.9,0.1,1.3,0.1 c0-0.5-0.1-3.1-0.1-3.6V16h0.5c1.1,1.5,2.3,3.2,3.3,4.8c0.3,0.5,0.7,1.2,1,1.6c0.6-0.1,0.8-0.1,1.6-0.1c0.7,0,1.2,0.1,1.8,0.1 c-1.2-1.6-1.8-2.3-3.3-4.4c-0.3-0.4-0.7-1.1-1-1.5L63.2,15.7z M59.9,9.9c0.3,0,1-0.1,1.4-0.1c0.7,0,1.3,0.1,1.8,0.5 c0.7,0.5,0.8,1.2,0.8,2.1c0,1.3-0.7,2.7-2.7,2.7c-0.5,0-1,0-1.4-0.1V9.9z" />
<path fill="#757F8B" d="M92.7,15.7c0,0.1-1.8,0.2-4.3,0.3c-0.5-0.3-0.8-0.5-1-0.7C90.4,15.5,92.7,15.6,92.7,15.7" />
<path fill="#757F8B" d="M90.9,11.4c0,0.1-1.5,0.2-3.6,0.3c0.3-0.2,0.6-0.4,1-0.5C89.8,11.3,90.9,11.3,90.9,11.4" />
<path fill="#757F8B" d="M74.9,20.7c-1,0-1.9,0-2.5,0c-1,0-1.8-0.3-1.8-0.7c0-0.4,0.8-0.7,1.8-0.7c0.9,0,2,0,3.4,0 C75.2,20.2,75,20.6,74.9,20.7C74.9,20.7,74.9,20.7,74.9,20.7" />
<path fill="#757F8B" d="M75.4,21.6c0.3,0.4,0.6,0.7,1.1,1.1c0,0,0.2,0.2,0.6,0c0.5-0.2,0.9-0.5,1.4-1.1c1.4,0,2.8,0.1,4.2,0.1 c0.1,0.2,0.4,0.5,0.6,1c-4,0.1-8.3,0.2-10.5,0.2c-0.9,0-1.7-0.3-1.7-0.6c0-0.4,0.7-0.6,1.7-0.6C73.6,21.6,74.4,21.6,75.4,21.6 C75.4,21.6,75.4,21.6,75.4,21.6" />
<path fill="#757F8B" d="M73.9,24.9c-0.8,0-1.5-0.3-1.5-0.6c0-0.3,0.7-0.6,1.5-0.6c2.2,0,6.6,0.1,10.4,0.2c0.2,0.3,0.4,0.5,0.5,0.8 C80.9,24.9,76.2,24.9,73.9,24.9" />
<path fill="#757F8B" d="M86.5,26.7c-3.2,0.1-8.7,0.2-10.9,0.2c-0.6,0-1.2-0.2-1.2-0.4c0-0.2,0.5-0.4,1.2-0.4 c2.2,0,7.3,0.1,10.5,0.2C86.2,26.4,86.3,26.6,86.5,26.7" />
<path fill="#757F8B" d="M78.2,27.9c1.9,0,7.6,0.1,7.6,0.3c0,0.2-5.7,0.3-7.6,0.3c-0.4,0-0.7-0.1-0.7-0.3 C77.5,28.1,77.8,27.9,78.2,27.9" />
<path fill="#757F8B" d="M78.2,16.4c-2.4,0-4.5,0.1-5.8,0.1c-1,0-1.8-0.3-1.8-0.7c0-0.4,0.8-0.7,1.8-0.7c1.6,0,4.2,0,7,0.1 C78.9,15.6,78.5,16,78.2,16.4" />
<path fill="#757F8B" d="M89.8,13.3c1.4,0.1,2.3,0.2,2.3,0.2c0,0.1-1.1,0.2-2.7,0.3C89.7,13.6,89.8,13.4,89.8,13.3" />
<path fill="#757F8B" d="M72.9,14.2c-0.9,0-1.7-0.3-1.7-0.6c0-0.4,0.7-0.6,1.7-0.6c1.9,0,5.3,0,8.7,0.1c-0.4,0.4-0.8,0.7-1.2,1.1 C77.4,14.2,74.6,14.2,72.9,14.2" />
<path fill="#757F8B" d="M83.2,11.9c-3.5,0.1-7.3,0.1-9.3,0.1c-0.8,0-1.5-0.3-1.5-0.6c0-0.3,0.7-0.6,1.5-0.6c2.2,0,6.6,0.1,10.4,0.2 c-0.2,0.1-0.4,0.3-0.6,0.4C83.5,11.6,83.3,11.7,83.2,11.9" />
<path fill="#757F8B" d="M75.5,9.7c-0.6,0-1.2-0.2-1.2-0.4c0-0.2,0.5-0.4,1.2-0.4C78,8.8,84,8.9,87,9.1c-0.2,0.1-0.4,0.3-0.6,0.4 C83.3,9.6,77.8,9.7,75.5,9.7" />
<path fill="#757F8B" d="M72.2,18.6c-1,0-1.8-0.3-1.8-0.7c0-0.4,0.8-0.7,1.8-0.7c1.2,0,3.1,0,5.2,0.1c-0.4,0.5-0.7,0.9-1,1.3 C74.7,18.6,73.2,18.6,72.2,18.6" />
<path fill="#757F8B" d="M77.5,7.6c0-0.2,0.3-0.3,0.7-0.3c1.9,0,7.6,0.1,7.6,0.3c0,0.2-5.7,0.3-7.6,0.3C77.8,7.9,77.5,7.7,77.5,7.6" />
<path fill="#5C0D34" d="M92.9,17.4c0,0.3,0,0.7,0,1c-3.3,0.1-6.5,0.3-6.5,0.6c0,0.2,3.1,0.4,6.4,0.6c-0.1,0.4-0.1,0.8-0.2,1.1 c-3.2,0.1-6.2,0.3-6.2,0.5c0,0.2,2.8,0.4,5.9,0.5c-0.1,0.4-0.3,0.8-0.5,1.2c-2.7,0.1-4.9,0.3-4.9,0.5c0,0.2,1.9,0.3,4.4,0.5 c-0.1,0.2-0.3,0.4-0.4,0.6c-0.2,0.2-0.3,0.4-0.5,0.7c-1.5,0.1-2.6,0.2-2.6,0.4c0,0.1,0.7,0.2,1.9,0.3c-0.6,0.6-1.4,1.2-2.2,1.7 c0,0-1-0.9-1.9-1.9c-0.8-0.9-2.4-3.4-2.7-3.9c-0.4-0.5-0.6-0.7-1.1-0.5c-0.6,0.2-1.3,0.3-1.5,0.3s-0.3-0.1,0-0.2 c0.4-0.1,1.8-0.8,2.4-2.2c0.8-1.5,0.1-3.7,0.1-3.7c-0.3,1.1-0.9,1.6-0.9,1.6c0.2-1.1,0-2-0.5-2.7L81,15.6c0,0-0.2,0-0.6,0.4 c-0.4,0.4-0.6,0.9-0.6,0.9c0.4,0.1,0.8-0.2,0.8-0.2c-0.5,2-1.3,3.7-1.9,4.6c-0.6,0.9-1,1.2-1.6,1.4c-0.5,0.2-0.6,0-0.6,0 c-0.4-0.4-0.7-0.7-1.1-1.1c0,0,0,0,0.1,0c0.2,0,0.7-0.4,0.7-0.6c0.1-0.2,0.1-0.3,0-0.3c-0.1,0-0.1,0.1-0.6,0.4 c-0.4,0.3-0.7,0.1-0.8-0.1c-0.1-0.1,0-0.3,0.1-0.4c0.1-0.1,2.4-4.5,8.7-9.2c8.2-6.1,13.5-7.7,13.8-7.9c0.2-0.1,0.5-0.2,0.6-0.1 c0.1,0.1,0.1,0.2,0.1,0.3c0,0.1-0.1,0.1-0.4,0.3c-3.2,1.4-6.9,3.7-8.9,5.1c-2.6,1.3-5,3.1-5.1,3.1c-0.2,0.1-0.1,0.3,0.1,0.2 c4.4-2.9,9.5-4.9,15.1-6.5c0.3-0.1,0.4-0.1,0.5,0c0.1,0.1,0.1,0.1,0.1,0.2c0,0.1-0.1,0.2-0.3,0.2c-6.1,2.3-10.5,4.3-13.4,6.3 c0,0-0.3,0.2-0.3,0.4c0,0.1,0.2,0.1,0.2,0.1c1.4,0,3.4,0.1,4.3,0.2c0,0-0.1,0.5-1,0.8c-0.7,0.3-1.3,0.2-1.9,0.2 c-0.1,0-0.3,0.1-0.1,0.3C86.8,14.8,88.1,16.9,92.9,17.4" />
<path fill="#5C0D34" d="M49,28.5h-0.8c0,0-0.1-0.5,0.2-0.7c0.3-0.2,0.6-0.3,0.6-0.3V28.5z M52.8,26.6c0,0-0.5,0.3-0.8,0.6 c-0.3,0.3,0.1,0.4,0.1,0.4v0.9h-2.4v-3.3c0,0-0.9,0.8-0.9,0.9c-0.1,0.1,0.2,0.2,0.2,0.2l0,0.3c0,0-0.3,0.2-0.8,0.5 c-0.4,0.3-0.7,0.6-0.7,0.9c0,0.2-0.1,1.2-0.1,1.2h5.5V26.6z M47.9,25.4c0.3,0,0.5-0.1,0.5-0.3c0-0.2-0.1-0.4-0.5-0.4 c-0.3,0-0.4,0.1-0.4,0.4C47.6,25.3,47.7,25.4,47.9,25.4 M48.9,25.4c0.3,0,0.5-0.1,0.5-0.3c0-0.2-0.1-0.4-0.5-0.4 c-0.3,0-0.4,0.1-0.4,0.4C48.6,25.3,48.7,25.4,48.9,25.4 M50.5,29.5c-0.3,0-0.4,0.1-0.4,0.4c0,0.2,0.1,0.3,0.4,0.3 c0.3,0,0.5-0.1,0.5-0.3C50.9,29.6,50.8,29.5,50.5,29.5 M51.5,29.5c-0.3,0-0.4,0.1-0.4,0.4c0,0.2,0.1,0.3,0.4,0.3 c0.3,0,0.5-0.1,0.5-0.3C52,29.6,51.8,29.5,51.5,29.5 M63.3,25.4c0.3,0,0.5-0.1,0.5-0.3c0-0.2-0.1-0.4-0.5-0.4 c-0.3,0-0.4,0.1-0.4,0.4C62.9,25.3,63,25.4,63.3,25.4 M64.3,25.4c0.3,0,0.5-0.1,0.5-0.3c0-0.2-0.1-0.4-0.5-0.4 c-0.3,0-0.4,0.1-0.4,0.4C63.9,25.3,64,25.4,64.3,25.4 M67.2,25.5c-0.1,0.1-0.1,0.3,0.1,0.3v3.5h0.8v-4.3 C68.1,24.9,67.3,25.3,67.2,25.5 M64.1,27.4h-0.5c0-0.3,0.5-0.4,0.5-0.4V27.4z M60.8,28c0,0.1,0,0.3,0,0.5h-4.4v-0.8 c0.1-0.3,0.3-0.3,0.6-0.3h3.2C60.9,27.4,60.8,27.8,60.8,28 M65.9,25.7v2.8h-1V26c0,0-0.2,0.1-0.5,0.2c-0.3,0.1-1.3,0.6-1.3,1.1V28 h1.1v0.5h-2.5c0-0.1,0-0.3,0-0.6c0-0.8-0.7-1.3-1.3-1.3h-2.9c-0.5,0-0.8,0.1-0.9,0.3v-2.1c0,0-0.5,0.3-0.8,0.6 c-0.3,0.3,0,0.4,0,0.4v2.7h-1l0-2.3c0,0-0.7,0.5-0.9,0.6c-0.2,0.1-0.1,0.3,0.1,0.3c0,0,0,1.7,0,2.1c0,0.4-0.3,0.9-1,0.7 c0,0-0.2,0,0,0.2c0.2,0.2,0.4,0.3,0.7,0.3c0.3,0,1.2-0.2,1.2-1.2h12.1v-4.3c0,0-0.7,0.5-0.9,0.6C65.7,25.6,65.7,25.7,65.9,25.7" />
</svg>
