<?xml version="1.0" encoding="UTF-8"?>
<svg xmlns="http://www.w3.org/2000/svg" viewBox="0 0 81 29">
<title>Singapore Airlines</title>
<desc>Singapore Airlines logo</desc>
<metadata xmlns:rdf="http://www.w3.org/1999/02/22-rdf-syntax-ns#" xmlns:Airline="http://schema.org/Airline">
<rdf:RDF>
<Airline:name>Singapore Airlines</Airline:name>
<Airline:iataCode>SQ</Airline:iataCode>
<Airline:url>https://airlinelogos.aero/SQ</Airline:url>
</rdf:RDF>
</metadata>
<polyline fill="#FF9F00" points="0.416410256 27.5886667 0.416410256 28.8304615 55.6881795 28.8304615 56.5618974 27.5886667 0.416410256 27.5886667"/>
<path fill="#FF9F00" d="M63.990359,26.3728974 C63.990359,26.3728974 67.8235641,20.6472564 68.1693333,20.0828718 C68.5909487,19.3898462 68.6102821,18.2885897 68.2303077,17.6981795 C68.0369744,17.3888462 62.3217436,8.34976923 62.3217436,8.34976923 C61.8079231,7.37269231 61.9358205,6.7064359 62.2786154,6.22905128 C62.8422564,5.39771795 63.8356923,3.92392308 63.8356923,3.92392308 C63.8356923,3.92392308 70.7748718,14.8100769 71.0633846,15.2941538 C71.8084615,16.5359487 71.601,17.7539487 70.9882821,18.7942308 C70.4737179,19.674641 65.9787179,26.3728974 65.9787179,26.3728974 L63.990359,26.3728974"/>
<path fill="#FF9F00" d="M62.756,26.9915641 C62.756,26.9915641 67.1915128,20.4970513 67.5216667,19.9594359 C67.9090769,19.3028462 67.8666923,18.3770769 67.5216667,17.8178974 C67.3372564,17.5226923 61.177359,7.82702564 61.177359,7.82702564 C61.177359,7.82702564 60.0842821,9.47630769 59.74,9.98566667 C59.3942308,10.4927949 59.1912308,11.1241026 59.781641,12.1398462 C59.781641,12.1398462 64.1926154,19.1028205 64.3785128,19.3980256 C64.7391538,19.9653846 64.7220513,21.0093846 64.3205128,21.6659744 C63.9911026,22.1968974 59.4418205,28.8304615 59.4418205,28.8304615 C59.4418205,28.8304615 71.2537436,28.8304615 72.5698974,28.8304615 C73.904641,28.8304615 74.6363333,28.3129231 75.2795385,27.3849231 C75.8387179,26.5967179 77.9981026,23.4580256 78.3297436,22.9657692 C78.6561795,22.4735128 79.3142564,22.1441026 79.6079744,22.1441026 C79.9039231,22.1441026 80.6341282,22.1441026 80.6341282,22.1441026 L78.6323846,19.0998462 C78.6323846,19.0998462 76.0625385,19.0998462 75.4394103,19.0998462 C74.8296667,19.0998462 74.0920256,19.6411795 73.7038718,20.2152308 C73.4019744,20.6673333 71.2173077,23.9391282 70.8239487,24.4655897 C70.6001282,24.7622821 70.4097692,24.8284615 70.2313077,24.8292051 C70.1338974,24.8299487 69.8528205,24.8284615 69.8163846,24.8284615 C69.9465128,24.5659744 73.6153846,19.2292308 74.3374103,18.0536154 C75.2074103,16.6080769 75.4059487,14.6970513 74.3693846,12.8641026 C73.9886667,12.1985897 66.3653846,0.169538462 66.3653846,0.169538462 C66.3653846,0.169538462 65.3503846,1.6314359 64.9272821,2.25753846 C64.5844872,2.76838462 64.4788974,3.43612821 64.972641,4.41320513 C64.972641,4.41320513 71.3727179,14.5922051 71.6783333,15.0591795 C72.4211795,16.2199231 72.3289744,17.7695641 71.6783333,18.8276923 C71.1466667,19.6969487 66.7252821,26.3728974 66.7252821,26.3728974 C66.7252821,26.3728974 69.9427949,26.3728974 70.2283333,26.3728974 C71.4961538,26.3728974 71.8084615,25.9022051 72.1586923,25.5118205 C72.5089231,25.1206923 74.414,22.2311026 74.6303846,21.9262308 C74.8497436,21.6258205 75.4059487,20.7729231 76.1368974,20.7729231 C76.5518205,20.7729231 78.4368205,20.7729231 78.4368205,20.7729231 L78.4368205,20.8391026 C77.9467949,20.938 77.4642051,21.2332051 77.1132308,21.7150513 C76.7637436,22.1887179 74.4504359,25.6129487 74.1730769,26.0115128 C73.8228462,26.5149231 73.4220513,26.9915641 72.4159744,26.9915641 C71.8188718,26.9915641 62.756,26.9915641 62.756,26.9915641"/>
<polygon fill="#00266B" points="33.3091026 24.6269487 34.5501538 24.6269487 34.5501538 18.9719487 33.3091026 18.9719487"/>
<polyline fill="#00266B" points="32.4331538 24.6269487 32.4331538 23.5926154 29.5405897 23.5926154 29.5405897 18.9719487 28.2935897 18.9719487 28.2935897 24.6269487 32.4331538 24.6269487"/>
<path fill="#00266B" d="M13.3333077,22.9858462 L15.9693333,22.9873333 L16.7010256,24.6269487 L18.0565897,24.6269487 L15.2882051,18.9719487 L14.007,18.9719487 L11.2386154,24.6269487 L12.6031026,24.6269487 L13.3333077,22.9858462 Z M14.6479744,19.9475385 L15.5447436,21.9909231 L13.7564103,21.994641 L14.6479744,19.9475385 Z"/>
<path fill="#00266B" d="M23.0810256,20.0055385 L25.0299744,20.0055385 C25.4857949,20.0055385 25.7750513,20.445 25.7750513,20.8391026 C25.7750513,21.2332051 25.4857949,21.6592821 25.0299744,21.6592821 L23.5048718,21.6592821 L25.9750769,24.6269487 L27.4458974,24.6269487 L25.694,22.5181282 L25.6962308,22.5181282 C26.4502308,22.2742308 26.9335641,21.5841795 26.9335641,20.8041538 C26.9335641,19.8293077 26.1810513,18.9719487 25.0835128,18.9719487 L21.8593077,18.9719487 L21.8593077,24.6269487 L23.0810256,24.6269487 L23.0810256,20.0055385"/>
<polygon fill="#00266B" points="18.8901538 24.6269487 20.1312051 24.6269487 20.1312051 18.9719487 18.8901538 18.9719487"/>
<path fill="#00266B" d="M50.4332308,22.3344615 C50.9849744,22.3344615 52.0222821,22.3344615 52.0222821,22.3344615 C52.3881282,22.3344615 52.6335128,22.5448974 52.6335128,22.9501538 C52.6335128,23.3554103 52.3881282,23.5665897 52.0222821,23.5665897 C52.0222821,23.5665897 49.1438462,23.5665897 48.6032564,23.5665897 L48.6032564,24.6284359 C48.6032564,24.6284359 51.3530513,24.6284359 51.9033077,24.6284359 C53.1837692,24.6284359 53.8143333,23.7829744 53.8143333,22.9256154 C53.8143333,22.0675128 53.1837692,21.2302308 51.9033077,21.2302308 C51.3530513,21.2302308 50.3038462,21.2332051 50.3038462,21.2332051 C49.9498974,21.2332051 49.7104615,21.0279744 49.7104615,20.635359 C49.7104615,20.2397692 49.9498974,20.0352821 50.3038462,20.0352821 C50.3038462,20.0352821 53.2075641,20.0352821 53.7303077,20.0352821 L53.7303077,18.9734359 C53.7303077,18.9734359 50.9849744,18.9734359 50.4332308,18.9734359 C49.1654103,18.9734359 48.5415385,19.7214872 48.5415385,20.6576667 C48.5415385,21.5938462 49.1654103,22.3344615 50.4332308,22.3344615"/>
<polyline fill="#00266B" points="47.3473333 24.6269487 47.3473333 23.5926154 44.0361282 23.5926154 44.0361282 22.1448462 46.9212564 22.1448462 46.9212564 21.1172051 44.0361282 21.1172051 44.0361282 20.0055385 47.3473333 20.0070256 47.3473333 18.9719487 42.7898718 18.9719487 42.7898718 24.6269487 47.3473333 24.6269487"/>
<path fill="#00266B" d="M37.3125897,20.0055385 C37.3125897,20.0055385 39.1299231,20.0055385 39.3686154,20.0055385 C39.8727692,20.0055385 40.1947436,20.4650769 40.1947436,20.8918974 L40.1947436,24.6269487 L41.4335641,24.6269487 L41.4335641,20.7335128 C41.4335641,19.7705641 40.7479744,18.9719487 39.6482051,18.9719487 C38.8793333,18.9719487 38.0212308,18.9719487 38.0212308,18.9719487 L37.3125897,19.9140769 L37.3125897,18.9719487 L36.0722821,18.9719487 L36.0722821,24.6269487 L37.3125897,24.6269487 L37.3125897,20.0055385"/>
<path fill="#00266B" d="M2.30884615,15.2592051 C2.86058974,15.2592051 3.89789744,15.2592051 3.89789744,15.2592051 C4.263,15.2592051 4.50912821,15.469641 4.50912821,15.8748974 C4.50912821,16.2801538 4.263,16.4905897 3.89789744,16.4905897 C3.89789744,16.4905897 1.01871795,16.4905897 0.478871795,16.4905897 L0.478871795,17.5531795 C0.478871795,17.5531795 3.22866667,17.5531795 3.77892308,17.5531795 C5.05938462,17.5531795 5.68994872,16.7077179 5.68994872,15.8496154 C5.68994872,14.9915128 5.05938462,14.1549744 3.77892308,14.1549744 C3.22866667,14.1549744 2.18020513,14.1572051 2.18020513,14.1572051 C1.82476923,14.1572051 1.58607692,13.9527179 1.58607692,13.559359 C1.58607692,13.1645128 1.82476923,12.9600256 2.18020513,12.9600256 C2.18020513,12.9600256 5.08317949,12.9600256 5.60592308,12.9600256 L5.60592308,11.8974359 C5.60592308,11.8974359 2.86058974,11.8974359 2.30884615,11.8974359 C1.04102564,11.8974359 0.416410256,12.6447436 0.416410256,13.5816667 C0.416410256,14.5178462 1.04102564,15.2592051 2.30884615,15.2592051"/>
<path fill="#00266B" d="M19.2961538,17.5509487 C20.2241538,17.5509487 21.820641,17.5509487 21.820641,17.5509487 L21.820641,13.8612564 L20.5795897,13.8612564 L20.5795897,16.459359 C19.2753333,16.459359 19.1377692,16.459359 19.1266154,16.459359 C18.0766667,16.459359 17.3732308,15.8533333 17.3732308,14.6940769 C17.3732308,13.5288718 18.0766667,12.9295385 19.1266154,12.9295385 C19.1266154,12.9295385 21.6801026,12.9295385 21.820641,12.9295385 L21.820641,11.8966923 C21.820641,11.8966923 20.2241538,11.8966923 19.2961538,11.8966923 C17.1672564,11.8966923 16.1173077,13.4240256 16.1173077,14.7297692 C16.1173077,16.0355128 17.1672564,17.5509487 19.2961538,17.5509487"/>
<polygon fill="#00266B" points="6.95925641 17.5516923 8.1995641 17.5516923 8.1995641 11.8966923 6.95925641 11.8966923"/>
<path fill="#00266B" d="M10.9753846,12.9295385 C10.9753846,12.9295385 12.7934615,12.9295385 13.0321538,12.9295385 C13.5363077,12.9295385 13.8575385,13.3883333 13.8575385,13.8158974 L13.8575385,17.5509487 L15.096359,17.5509487 L15.096359,13.6582564 C15.096359,12.6953077 14.4107692,11.8966923 13.3117436,11.8966923 C12.5421282,11.8966923 11.6840256,11.8966923 11.6840256,11.8966923 L10.9753846,12.8388205 L10.9753846,11.8966923 L9.73507692,11.8966923 L9.73507692,17.5509487 L10.9753846,17.5509487 L10.9753846,12.9295385"/>
<path fill="#00266B" d="M43.9387179,12.9302821 L45.8869231,12.9302821 C46.3427436,12.9302821 46.632,13.369 46.632,13.7638462 C46.632,14.1579487 46.3427436,14.5832821 45.8869231,14.5832821 L44.3625641,14.5832821 L46.8320256,17.5509487 L48.3028462,17.5509487 L46.5516923,15.4428718 L46.5531795,15.4428718 C47.3071795,15.1982308 47.7905128,14.5081795 47.7905128,13.7281538 C47.7905128,12.7533077 47.0387436,11.8966923 45.9404615,11.8966923 L42.717,11.8966923 L42.717,17.5509487 L43.9387179,17.5509487 L43.9387179,12.9302821"/>
<polyline fill="#00266B" points="53.7288205 17.5509487 53.7288205 16.5166154 50.4176154 16.517359 50.4176154 15.0688462 53.3027436 15.0688462 53.3027436 14.0412051 50.4176154 14.0412051 50.4176154 12.9295385 53.7288205 12.9310256 53.7288205 11.8966923 49.1706154 11.8966923 49.1706154 17.5509487 53.7288205 17.5509487"/>
<path fill="#00266B" d="M24.5711795,15.9105897 L27.2064615,15.9113333 L27.9388974,17.5509487 L29.2937179,17.5509487 L26.5253333,11.8966923 L25.2448718,11.8966923 L22.4764872,17.5509487 L23.8409744,17.5509487 L24.5711795,15.9105897 Z M25.8858462,12.8715385 L26.7826154,14.9156667 L24.9942821,14.9193846 L25.8858462,12.8715385 Z"/>
<path fill="#00266B" d="M31.1727692,14.806359 L31.1727692,14.8033846 L31.8814103,15.7447692 C31.8814103,15.7447692 32.4524872,15.7447692 33.1492308,15.7447692 C34.2155385,15.7447692 34.9673077,14.8561795 34.9673077,13.8322564 C34.9673077,12.8023846 34.2155385,11.8966923 33.1492308,11.8966923 L29.9257692,11.8966923 L29.9257692,17.5509487 L31.1727692,17.5509487 L31.1727692,14.806359 Z M31.1727692,12.9295385 L33.0964359,12.9295385 C33.5515128,12.9295385 33.8422564,13.4046923 33.8422564,13.8322564 C33.8422564,14.2575897 33.5515128,14.7186154 33.0964359,14.7186154 C32.8770769,14.7186154 31.1727692,14.7186154 31.1727692,14.7186154 L31.1727692,12.9295385 Z"/>
<path fill="#00266B" d="M38.7157436,17.7874103 C40.4088974,17.7874103 41.7860256,16.4095385 41.7860256,14.7163846 C41.7860256,13.0165385 40.4088974,11.6394103 38.7157436,11.6394103 C37.016641,11.6394103 35.6469487,13.0165385 35.6469487,14.7163846 C35.6469487,16.4095385 37.016641,17.7874103 38.7157436,17.7874103 Z M38.7157436,12.7808205 C39.7783333,12.7808205 40.6446154,13.6471026 40.6446154,14.7163846 C40.6446154,15.7789744 39.7783333,16.6437692 38.7157436,16.6437692 C37.6464615,16.6437692 36.7809231,15.7789744 36.7809231,14.7163846 C36.7809231,13.6471026 37.6464615,12.7808205 38.7157436,12.7808205 Z"/>
</svg>
