<?xml version="1.0" encoding="UTF-8"?>
<svg xmlns="http://www.w3.org/2000/svg" viewBox="0 0 692.47 273.65">
<title>South African Airways</title>
<desc>South African Airways logo</desc>
<metadata xmlns:rdf="http://www.w3.org/1999/02/22-rdf-syntax-ns#" xmlns:Airline="http://schema.org/Airline">
<rdf:RDF>
<Airline:name>South African Airways</Airline:name>
<Airline:iataCode>SA</Airline:iataCode>
<Airline:url>https://airlinelogos.aero/SA</Airline:url>
</rdf:RDF>
</metadata>
<path fill="#163683" d="M560.66,233.23h10.68a2.87,2.87,0,0,0-1.28,2.72c0,1.63,6,22.85,6,22.85l8.31-25.57,9.71,25.61s4.88-16,6-21.4c.88-3.17-.77-3.95-.77-4.21h8.49c-2.11,1.56-2.81,3.46-3.45,5.92l-8.2,29.31h-5.89L584,249.64l-6.23,18.82h-5.66l-8.13-30.29a8.93,8.93,0,0,0-3.28-4.94"/>
<path fill="#163683" d="M509.83,233.23h10.78a7,7,0,0,0-1.69,3.05,4.88,4.88,0,0,0-.23,1.78V263.7a6.26,6.26,0,0,0,.36,2.1,5.8,5.8,0,0,0,1.61,2.66H509.83a5.51,5.51,0,0,0,1.56-2.66,6.12,6.12,0,0,0,.41-2.1V238.06a8.14,8.14,0,0,0-.26-1.78,5.21,5.21,0,0,0-1.71-3.05"/>
<path fill="#163683" d="M646.5,268.46c1.51-1.38,1.28-2.85,1.28-3.94v-12.2c-1.13-2.25-7.75-14.15-8.76-15.71a9.06,9.06,0,0,0-3.55-3.37h10.22a2.81,2.81,0,0,0-.72,2.1c0,1.13.46,1.5,1.06,2.72.79,1.64,5.33,10,5.33,10s5.37-8.73,6.15-10.06c.66-1.17,1.25-2.25,1.06-3.14a2.1,2.1,0,0,0-.92-1.58h8.92c-3.34,2.72-3.76,4-5.54,7.08-1.51,2.62-6.77,12-6.77,12v12.2c.1,1.1-.12,2.62,1.44,3.94Z"/>
<path fill="#163683" d="M691.81,234.85l-1.55,5.46c-.92-2.3-3-4.83-8.78-4.83-4.48,0-6.44,2.72-6.44,5.22,0,7,18,6.41,18,18.29,0,3.55-2.21,10.45-13.51,10.45a25.09,25.09,0,0,1-11.66-2.62l2.08-5.64c1.67,2.07,3.9,4.76,9.58,4.76,4.19,0,7.16-2.48,7.16-6,0-7.78-17.75-7-17.75-18.1,0-4.22,2.8-9.5,12.55-9.5,6.51,0,8.07,1.28,10.33,2.47"/>
<path fill="#163683" d="M504.6,268.46c-4.41-3.23-5.15-6.87-7.3-11.87L481.54,220l-14.85,36.43c-2.08,5.07-2.95,8.6-7.24,12H470.2a4.14,4.14,0,0,1-1-2.89c0-2.17.72-3.33,1.52-5.34l1.48-3.64a7.1,7.1,0,0,1,.71-1.7h14.93a6.6,6.6,0,0,1,.78,1.78c.55,1.27.86,2,1.37,3.27.77,1.94,1.51,3,1.78,5.08a6.52,6.52,0,0,1,0,.78,5,5,0,0,1-.85,2.66Zm-29.88-17.95,5.53-13.76L486,250.51Z"/>
<path fill="#163683" d="M640.81,268.46a10.38,10.38,0,0,1-3.34-4.29L621.76,231l-12.34,27.71a37.84,37.84,0,0,1-5.63,9.77H613a2.62,2.62,0,0,1-1-2.38,9.32,9.32,0,0,1,1.23-4.16c.71-1.64,1-2.61,1.78-4.23h12.38c.81,1.54,1.08,2.5,1.81,4.07a8.77,8.77,0,0,1,1.26,4.2,3.51,3.51,0,0,1-1.18,2.5Zm-24.1-14.85,4.34-10.24,4.46,10.24Z"/>
<path fill="#163683" d="M528.53,233.23c6.61,0,10.33-.06,16.93,0,4.93.06,9.87,3,9.87,9.36,0,7.22-5.64,8.71-6.9,9.4,3.43,4.28,8.42,11.27,8.42,11.27,4.86,6.64,8.64,9.08,10.34,9.95-8.62,1.46-13.06-1.77-17.62-8.7-2-3-8.42-12.27-8.8-13.09,1.64-.07,7.61-1.65,7.61-7.84,0-5.27-3.46-6.66-5.92-6.66h-5.12v26.45a7.26,7.26,0,0,0,1.94,5.1H528.49a8.77,8.77,0,0,0,2-5.1V237.88a7.14,7.14,0,0,0-1.93-4.65"/>
<path fill="#163683" d="M408.71,233.32h8.45l19.39,24.35V238.08a6.12,6.12,0,0,0-.45-2.27,5.52,5.52,0,0,0-1.48-2.49h9.23a6.27,6.27,0,0,0-2,4.9c0,11.83,0,18.5,0,30.33H436.5L416,242.13v21.79a5.71,5.71,0,0,0,.4,2.05,5.59,5.59,0,0,0,1.56,2.58h-9.27a5.56,5.56,0,0,0,1.56-2.69,5.81,5.81,0,0,0,.37-1.94c.05-9.92.08-15.53,0-25.48a6.49,6.49,0,0,0-2-5.12"/>
<path fill="#163683" d="M282.53,233.32c6.61,0,10.34-.06,16.93,0,4.93.06,9.87,3,9.87,9.35,0,7.23-5.64,8.71-6.91,9.4,3.44,4.29,8.42,11.27,8.42,11.27,4.87,6.65,8.65,9.09,10.36,10-8.63,1.46-13.07-1.78-17.63-8.7-2-3-8.42-12.28-8.79-13.1,1.64-.06,7.6-1.64,7.6-7.83,0-5.28-3.45-6.66-5.91-6.66h-5.13v26.46a7.22,7.22,0,0,0,2,5.09H282.5a8.8,8.8,0,0,0,2-5.09V238a7.09,7.09,0,0,0-1.93-4.65"/>
<path fill="#163683" d="M355.32,232.48A32.68,32.68,0,0,1,369.06,235c-.73,2.53-2,6.19-2,6.19-1.83-2.5-3.15-4.83-11.78-4.83-2.28,0-12.26,1.23-12.26,14.65,0,12.89,11.07,14.28,14,14.28,3.6,0,6.75,0,9.9-1.88l-1.23,4.12a27.63,27.63,0,0,1-10.4,2c-10.26,0-19.52-6.38-19.52-18.77,0-9.59,6.77-18.27,19.52-18.27"/>
<path fill="#163683" d="M320.34,233.32h10.79a6.74,6.74,0,0,0-1.69,3,5,5,0,0,0-.24,1.79v25.64a6.08,6.08,0,0,0,.37,2.1,5.73,5.73,0,0,0,1.59,2.66H320.34a5.51,5.51,0,0,0,1.56-2.66,6.37,6.37,0,0,0,.41-2.1V238.15a8.32,8.32,0,0,0-.26-1.79,5.3,5.3,0,0,0-1.71-3"/>
<path fill="#163683" d="M252.26,233.32h26.2l-1.7,6.59a6,6,0,0,0-5.05-2.16c-4.15,0-6.49,0-10.62,0v10.61h9.55a7.08,7.08,0,0,0,4-1c.48-.29.64-.62,1.11-.93v7.75a6.53,6.53,0,0,0-4.86-1.93c-3.8,0-5.94,0-9.75,0,0,4.45-.05,7,0,11.42a6.2,6.2,0,0,0,2,4.87H252.26a5.49,5.49,0,0,0,1.6-2.45,6,6,0,0,0,.36-2.22V238.23a7.59,7.59,0,0,0-.26-1.63,5.63,5.63,0,0,0-1.7-3.28"/>
<path fill="#163683" d="M248.49,268.55c-4.39-3.23-5.15-6.87-7.31-11.87L225.44,220.1l-14.87,36.43c-2.06,5.07-2.93,8.59-7.22,12h10.76a4.07,4.07,0,0,1-1-2.89c0-2.17.71-3.33,1.52-5.35l1.48-3.63a7.35,7.35,0,0,1,.71-1.71h14.92a6.55,6.55,0,0,1,.79,1.79c.54,1.27.86,2,1.36,3.26.79,2,1.51,3,1.79,5.09a6.44,6.44,0,0,1,0,.77,5.05,5.05,0,0,1-.85,2.67Zm-29.86-18,5.51-13.76,5.79,13.76Z"/>
<path fill="#163683" d="M77.88,233.28h10.9c-1.19,1.64-1.89,2.66-1.89,4.68v18.6c0,4.14,2.3,9,7.63,9h2.3c3.64,0,6.94-3.1,6.94-9V238a6.37,6.37,0,0,0-1.93-4.68h9.56a6,6,0,0,0-2,4.68c-.07,7.16,0,18.6,0,18.6,0,5.57-3.13,13-12.57,13H92.64c-5.68,0-12.79-3.16-12.79-13V238a7.52,7.52,0,0,0-2-4.68"/>
<path fill="#163683" d="M152.1,233.32h10.78a6.18,6.18,0,0,0-1.93,4.77c0,3.95,0,6.18,0,10.13h16.94V238.13a6.7,6.7,0,0,0-.37-2.08,5.38,5.38,0,0,0-1.55-2.73h10.79a5.6,5.6,0,0,0-1.56,2.73,6.21,6.21,0,0,0-.41,2.08v25.59a6.69,6.69,0,0,0,.44,2.38,5.27,5.27,0,0,0,1.53,2.45H175.93a4.74,4.74,0,0,0,1.48-2.45,6,6,0,0,0,.48-2.26V252.52H161c0,4.4,0,6.88,0,11.28a6.11,6.11,0,0,0,2,4.75H152.1a6.32,6.32,0,0,0,2-5.05V238.39a8,8,0,0,0-.29-1.89,5.7,5.7,0,0,0-1.67-3.18"/>
<path fill="#163683" d="M115.9,233.32h31.87l-1.48,5.82c-.4-.33-.51-.64-.93-.93a5.73,5.73,0,0,0-3.78-1.18c-2.43-.05-3.8,0-6.22,0,0,10.36-.06,16.2,0,26.55a7.31,7.31,0,0,0,.46,2.66,4.24,4.24,0,0,0,1.54,2.32h-11a6.37,6.37,0,0,0,2-5.09V237h-5.74a7.5,7.5,0,0,0-2.74.48,3.81,3.81,0,0,0-2.44,1.71Z"/>
<path fill="#163683" d="M55.8,232.48c-12.72,0-17.71,8.66-17.71,18.25,0,12.4,7.47,18.79,17.71,18.79s17.71-6.39,17.71-18.79c0-9.59-5-18.25-17.71-18.25m0,33.2c-2.93,0-10.46-1.79-10.46-14.68,0-13.43,8.18-14.66,10.46-14.66S66.26,237.57,66.26,251c0,12.89-7.55,14.68-10.47,14.68"/>
<path fill="#163683" d="M31.47,226.32l-2.59,6.5c-1.17-2.91-3.83-6.11-11.1-6.11-5.67,0-8.16,3.43-8.16,6.6,0,8.83,22.75,8.12,22.75,23.12,0,4.49-2.79,13.22-17.08,13.22A31.55,31.55,0,0,1,.56,266.34l2.63-7.13c2.09,2.6,4.92,6,12.1,6,5.29,0,9.06-3.13,9.06-7.54,0-9.83-22.45-8.84-22.45-22.89,0-5.32,3.56-12,15.88-12,8.22,0,10.7,1.76,13.69,3.51"/>
<path fill="#163683" d="M406.24,268.55a10.29,10.29,0,0,1-3.34-4.29l-15.71-33.19-12.35,27.71a37.81,37.81,0,0,1-5.62,9.77h9.18a2.61,2.61,0,0,1-1-2.39c0-1.69.56-2.6,1.23-4.15s1-2.61,1.77-4.23h12.38c.82,1.53,1.09,2.5,1.82,4.07a8.9,8.9,0,0,1,1.27,4.2,3.56,3.56,0,0,1-1.19,2.5Zm-24.1-14.86,4.34-10.23,4.45,10.23Z"/>
<polygon fill="#fff" points="208.14 0 279.66 185.54 489.98 185.54 286.4 0 208.14 0"/>
<path fill="#163683" d="M284.12,177.14l124.15-57.27,40,36.28c12,10.75,23.77,21.71,23.77,21.71H284.4Z"/>
<polygon fill="#d92632" points="238.44 60.62 342.26 60.62 283.85 6.64 217.77 6.64 238.44 60.62"/>
<polygon fill="#008a43" points="239.25 62.5 355.54 72.8 399.17 111.99 282.37 174.09 364.1 97.29 239.25 62.5"/>
<polygon fill="#231f20" points="239.96 64.41 313.35 111.97 281.64 172.13 239.96 64.41"/>
<path fill="#fcaf17" d="M246.75,34.89a15.67,15.67,0,0,1,31.34,0,15.67,15.67,0,0,1-31.34,0"/>
<polygon fill="#fcaf17" points="239.96 64.41 313.35 111.97 281.64 172.13 282.38 174.09 364.1 97.29 239.25 62.5 239.96 64.41"/>
</svg>
