<?xml version="1.0" encoding="UTF-8"?>
<svg xmlns="http://www.w3.org/2000/svg" viewBox="11 0 123 33">
<title>Turkish Airlines logo</title>
<path fill="#FFFFFF" d="M 23.226562 16.84375 C 24.601562 11.675781 23.03125 6.261719 19.28125 3.390625 C 14.167969 6.628906 11.21875 12.710938 12.285156 19.050781 C 12.636719 21.148438 13.398438 23.074219 14.464844 24.761719 C 18.460938 23.648438 21.976562 21.542969 23.226562 16.84375 M 30.125 31.757812 C 38.5625 30.34375 44.25 22.355469 42.832031 13.921875 C 41.65625 6.902344 35.929688 1.785156 29.179688 1.078125 C 27.820312 0.9375 26.414062 0.972656 24.992188 1.210938 C 23.308594 1.492188 21.742188 2.039062 20.3125 2.796875 C 27.746094 5.320312 31.746094 9.15625 32.023438 13.082031 C 32.160156 15.507812 31.03125 17.261719 29.550781 18.691406 L 40.066406 17.957031 C 40.363281 17.9375 40.457031 18.28125 40.09375 18.386719 L 15.015625 25.578125 C 17.570312 29.09375 21.535156 31.433594 25.9375 31.894531 C 27.300781 32.035156 28.707031 32 30.125 31.757812 M 29.277344 0.15625 C 37.539062 1.015625 43.980469 7.992188 43.984375 16.480469 C 43.984375 25.546875 36.636719 32.902344 27.566406 32.90625 C 18.496094 32.910156 11.144531 25.558594 11.140625 16.492188 C 11.136719 7.421875 18.488281 0.066406 27.554688 0.066406 C 28.136719 0.066406 28.710938 0.097656 29.277344 0.15625" />
<path fill="#CF181F" d="M 12.285156 19.050781 C 12.636719 21.148438 13.394531 23.074219 14.464844 24.761719 C 18.464844 23.648438 21.976562 21.542969 23.226562 16.84375 C 24.601562 11.675781 23.03125 6.261719 19.277344 3.390625 C 14.167969 6.628906 11.21875 12.714844 12.285156 19.050781 M 42.832031 13.921875 C 44.25 22.355469 38.5625 30.34375 30.125 31.757812 C 28.707031 32 27.300781 32.035156 25.9375 31.890625 C 21.535156 31.433594 17.570312 29.09375 15.015625 25.578125 L 40.09375 18.386719 C 40.457031 18.28125 40.363281 17.9375 40.0625 17.957031 L 29.550781 18.691406 C 31.03125 17.261719 32.160156 15.507812 32.023438 13.082031 C 31.746094 9.152344 27.75 5.320312 20.3125 2.800781 C 21.742188 2.042969 23.308594 1.492188 24.992188 1.210938 C 26.410156 0.972656 27.820312 0.933594 29.179688 1.078125 C 35.929688 1.785156 41.652344 6.902344 42.832031 13.921875" />
<path fill="#231F20" d="M 128.957031 14.53125 L 128.957031 9.132812 L 123.542969 9.132812 L 123.542969 14.53125 L 120.570312 14.53125 L 120.570312 1.671875 L 123.542969 1.671875 L 123.542969 6.796875 L 128.957031 6.796875 L 128.957031 1.671875 L 131.949219 1.671875 L 131.949219 14.53125 Z M 128.957031 14.53125" />
<path fill="#231F20" d="M 64.917969 1.671875 L 64.917969 9.722656 C 64.917969 10.613281 65.046875 11.382812 65.308594 12.011719 C 65.5625 12.628906 65.9375 13.148438 66.414062 13.542969 C 66.894531 13.945312 67.476562 14.242188 68.140625 14.421875 C 68.816406 14.609375 69.578125 14.703125 70.402344 14.703125 C 71.230469 14.703125 71.984375 14.609375 72.644531 14.421875 C 73.296875 14.242188 73.851562 13.945312 74.296875 13.546875 C 74.738281 13.152344 75.089844 12.636719 75.332031 12.011719 C 75.578125 11.390625 75.699219 10.617188 75.699219 9.722656 L 75.699219 1.671875 L 72.921875 1.671875 L 72.921875 9.636719 C 72.921875 10.449219 72.71875 11.105469 72.320312 11.585938 C 71.914062 12.074219 71.269531 12.324219 70.402344 12.324219 C 69.554688 12.324219 68.910156 12.074219 68.5 11.585938 C 68.09375 11.109375 67.890625 10.453125 67.890625 9.636719 L 67.890625 1.671875 Z M 64.917969 1.671875" />
<path fill="#231F20" d="M 56.34375 14.535156 L 56.34375 4.074219 L 52.851562 4.074219 L 52.851562 1.671875 L 62.832031 1.671875 L 62.832031 2.824219 C 62.832031 3.511719 62.273438 4.074219 61.582031 4.074219 L 59.316406 4.074219 L 59.316406 14.535156 Z M 56.34375 14.535156" />
<path fill="#231F20" d="M 104.105469 1.671875 L 107.078125 1.671875 L 107.078125 14.53125 L 104.105469 14.53125 Z M 104.105469 1.671875" />
<path fill="#231F20" d="M 94.207031 8.535156 L 94.308594 8.664062 L 98.105469 13.554688 C 98.589844 14.179688 99.316406 14.535156 100.105469 14.535156 L 102.472656 14.535156 L 97.035156 7.617188 L 96.953125 7.515625 L 97.03125 7.414062 L 101.503906 1.667969 L 98.410156 1.667969 L 94.3125 7.210938 L 94.207031 7.34375 L 94.207031 1.667969 L 91.234375 1.667969 L 91.234375 14.527344 L 94.207031 14.527344 Z M 94.207031 18.535156" />
<path fill="#231F20" d="M 81.417969 7.558594 L 83.152344 7.558594 C 83.773438 7.558594 84.25 7.386719 84.5625 7.050781 C 84.871094 6.714844 85.03125 6.285156 85.03125 5.761719 C 85.03125 5.230469 84.875 4.789062 84.574219 4.457031 C 84.269531 4.117188 83.789062 3.945312 83.152344 3.945312 L 81.417969 3.945312 Z M 87.359375 14.53125 C 86.480469 14.53125 85.652344 14.0625 85.195312 13.3125 L 82.882812 9.492188 L 81.417969 9.492188 L 81.417969 14.53125 L 78.449219 14.53125 L 78.449219 1.671875 L 83.742188 1.671875 C 85.105469 1.671875 86.167969 2.027344 86.910156 2.726562 C 87.648438 3.425781 88.023438 4.382812 88.023438 5.574219 C 88.023438 6.175781 87.863281 6.789062 87.542969 7.390625 C 87.230469 7.980469 86.679688 8.464844 85.898438 8.832031 L 85.726562 8.910156 L 89.332031 14.53125 Z M 87.359375 14.53125" />
<path fill="#231F20" d="M 109.515625 13.988281 L 109.515625 11.523438 C 110.464844 11.957031 111.683594 12.390625 112.945312 12.390625 C 114.394531 12.390625 115.128906 11.894531 115.128906 10.941406 C 115.128906 9.820312 114.140625 9.699219 112.164062 8.847656 C 110.820312 8.246094 109.539062 7.316406 109.539062 5.160156 C 109.539062 2.652344 111.453125 1.472656 114.097656 1.472656 C 115.507812 1.472656 116.703125 1.804688 117.378906 2.054688 L 117.378906 4.457031 C 116.703125 4.144531 115.507812 3.773438 114.308594 3.773438 C 113.007812 3.773438 112.398438 4.25 112.398438 5.078125 C 112.398438 5.949219 113.132812 6.21875 114.457031 6.714844 C 116.160156 7.5625 118.132812 7.9375 118.132812 10.835938 C 118.132812 13.34375 116.136719 14.710938 113.46875 14.710938 C 111.832031 14.710938 110.527344 14.421875 109.515625 13.988281" />
<path fill="#231F20" d="M 114.160156 31.316406 L 114.160156 18.457031 L 122.214844 18.457031 L 122.214844 19.625 C 122.214844 20.304688 121.660156 20.859375 120.980469 20.859375 L 117.132812 20.859375 L 117.132812 23.625 L 121.453125 23.625 L 121.453125 25.769531 L 117.132812 25.769531 L 117.132812 28.917969 L 122.214844 28.917969 L 122.214844 31.316406 Z M 114.160156 31.316406" />
<path fill="#231F20" d="M 84.777344 31.316406 L 84.777344 18.457031 L 86.222656 18.457031 C 87.066406 18.457031 87.75 19.140625 87.75 19.984375 L 87.75 29 L 92.496094 29 L 92.496094 31.316406 Z M 84.777344 31.316406" />
<path fill="#231F20" d="M 66.382812 31.316406 L 66.382812 18.460938 L 69.355469 18.460938 L 69.355469 31.316406 Z M 66.382812 31.316406" />
<path fill="#231F20" d="M 75.050781 24.34375 L 76.78125 24.34375 C 77.40625 24.34375 77.882812 24.171875 78.195312 23.835938 C 78.503906 23.5 78.660156 23.066406 78.660156 22.546875 C 78.660156 22.015625 78.507812 21.574219 78.207031 21.242188 C 77.902344 20.902344 77.421875 20.730469 76.78125 20.730469 L 75.050781 20.730469 Z M 80.992188 31.316406 C 80.113281 31.316406 79.28125 30.847656 78.828125 30.09375 L 76.515625 26.277344 L 75.050781 26.277344 L 75.050781 31.316406 L 72.078125 31.316406 L 72.078125 18.457031 L 77.375 18.457031 C 78.738281 18.457031 79.800781 18.8125 80.542969 19.511719 C 81.28125 20.210938 81.65625 21.167969 81.65625 22.355469 C 81.65625 22.960938 81.492188 23.570312 81.175781 24.175781 C 80.863281 24.765625 80.308594 25.25 79.527344 25.613281 L 79.355469 25.695312 L 82.964844 31.316406 Z M 80.992188 31.316406" />
<path fill="#231F20" d="M 56.167969 26.632812 L 57.335938 23.382812 C 57.59375 22.648438 57.855469 21.878906 58.027344 21.308594 L 58.070312 21.308594 C 58.222656 21.898438 58.480469 22.628906 58.738281 23.382812 L 59.863281 26.632812 Z M 59.839844 18.457031 L 56.425781 18.457031 L 51.574219 31.316406 L 53.71875 31.316406 C 54.261719 31.316406 54.742188 30.96875 54.910156 30.453125 L 55.410156 28.945312 L 60.625 28.945312 L 61.390625 31.316406 L 64.605469 31.316406 Z M 59.839844 18.457031" />
<path fill="#231F20" d="M 124.601562 30.773438 L 124.601562 28.308594 C 125.546875 28.742188 126.765625 29.179688 128.027344 29.179688 C 129.476562 29.179688 130.210938 28.679688 130.210938 27.726562 C 130.210938 26.609375 129.222656 26.484375 127.25 25.636719 C 125.90625 25.035156 124.621094 24.101562 124.621094 21.945312 C 124.621094 19.441406 126.535156 18.257812 129.183594 18.257812 C 130.589844 18.257812 131.789062 18.589844 132.460938 18.839844 L 132.460938 21.242188 C 131.789062 20.933594 130.589844 20.558594 129.390625 20.558594 C 128.089844 20.558594 127.480469 21.035156 127.480469 21.863281 C 127.480469 22.734375 128.214844 23.003906 129.539062 23.5 C 131.242188 24.351562 133.21875 24.722656 133.21875 27.625 C 133.21875 30.128906 131.222656 31.496094 128.550781 31.496094 C 126.914062 31.496094 125.609375 31.207031 124.601562 30.773438" />
<path fill="#231F20" d="M 100.097656 18.457031 L 101.941406 18.457031 C 102.816406 18.457031 103.628906 18.910156 104.089844 19.652344 L 107.675781 25.414062 C 108.082031 26.054688 108.550781 26.898438 108.828125 27.5 L 108.894531 27.5 C 108.851562 26.921875 108.828125 26.117188 108.828125 25.539062 L 108.828125 18.457031 L 111.433594 18.457031 L 111.433594 31.316406 L 108.175781 31.316406 L 103.8125 24.359375 C 103.410156 23.722656 102.980469 22.957031 102.679688 22.378906 L 102.640625 22.378906 C 102.660156 22.9375 102.703125 23.597656 102.703125 24.21875 L 102.703125 31.316406 L 100.097656 31.316406 Z M 100.097656 18.457031" />
<path fill="#231F20" d="M 94.40625 18.464844 L 97.378906 18.464844 L 97.378906 31.316406 L 94.40625 31.316406 Z M 94.40625 18.464844" />
</svg>
