<?xml version="1.0" encoding="UTF-8"?>
<svg xmlns="http://www.w3.org/2000/svg" viewBox="0 0 900.3 164">
<title>United Airlines</title>
<desc>United Airlines logo</desc>
<metadata xmlns:rdf="http://www.w3.org/1999/02/22-rdf-syntax-ns#" xmlns:Airline="http://schema.org/Airline">
<rdf:RDF>
<Airline:name>United Airlines</Airline:name>
<Airline:iataCode>UA</Airline:iataCode>
<Airline:url>https://airlinelogos.aero/UA</Airline:url>
</rdf:RDF>
</metadata>
<path fill="#0033A0" d="M892.7,162.3c-3.1,0-5.7-2.5-5.7-5.7c0-3.2,2.6-5.7,5.7-5.7c3.1,0,5.7,2.5,5.7,5.7
	C898.4,159.7,895.7,162.3,892.7,162.3 M892.7,149.9c-3.8,0-6.7,3-6.7,6.7c0,3.7,3,6.7,6.7,6.7c3.7,0,6.7-3,6.7-6.7
	C899.4,152.8,896.4,149.9,892.7,149.9"/>
<path fill="#0033A0" d="M892.4,155.8h-1.2v-1.9h2c0.8,0,1.8,0.1,1.8,0.9C894.9,155.9,893.3,155.8,892.4,155.8 M896,154.8
	c0-1.6-1.3-1.9-2.6-1.9h-3.2v7.3h1v-3.4h1.2l2.2,3.4h1.2l-2.2-3.4C894.9,156.8,896,156.2,896,154.8"/>
<path fill="#0033A0" d="M849.5,163.4c1.3-3.6,2.5-7.4,3.5-11.2c1.9-7.8,2.9-16,2.9-24.2c0-4.8-0.3-9.5-1-14.2
	c-0.5,6.8-1.7,12.7-1.7,12.7c0.3,0.9,0.8,2.4,1,3.3l0,0c-0.7,7-2.1,13.8-3.9,20.3c-0.9-3.3-2.1-6.4-2.2-6.6c0,0,0,0,0,0
	c-2.4,6.4-6,13.9-9.2,20H849.5z"/>
<path fill="#0033A0" d="M827.3,163.4h6.1c17.4-25.7,18.3-48.5,18.3-52.9c0-8.3-1.4-15.8-3.7-21.8c0,0-3.6-9.3-9.2-17.6
	c0.6,1.9,1.8,5.6,2.4,9c0,0.2,0.1,0.4,0.1,0.6c1.1,1.8,6.1,10.7,6.8,20.4c0,0,0,0,0,0s-3.5-4.9-6.2-8.1c-0.1,5.3-0.8,10.7-1.9,15.8
	c0,0,5.2,6.1,7.6,10c0,0-1.6,8.5-5,16.7c-3.5-5.1-7.9-10-7.9-10c-2.6,6.4-5.9,12.9-9.5,18.9c0,0,6.6,7.8,8.1,10
	C831.4,157.5,829.5,160.4,827.3,163.4z"/>
<path fill="#0033A0" d="M805.5,163.4c11.6-12.9,21.4-28.1,27.3-44.4c5.1-14.1,7.9-31.4,3.4-46.7c-0.3-1-0.6-2-1-3.1
	c-1.5-3.8-3.3-7-5.4-9.6c-5.5-6.2-11.8-11.7-18.7-16.4c1,1.3,1.9,2.6,2.7,4c0,0,8.4,6.2,13.2,12.5c-6.2-4.4-9.7-6.2-10.2-6.5
	c0,0,0,0-0.1,0c2.4,5.8,3.1,10.6,3.1,10.7c0,0,7.4,3.9,14,9.6c0.9,4.3,1.3,8.6,1.2,13c-6.7-5.9-14.4-10.5-14.4-10.5
	c-0.1,5-0.8,10-1.9,15c0,0,7.3,4.6,14.5,11.1c0,0-2,9.2-5.4,16.4c-6.8-6.4-13.5-11.3-14-11.7c0,0-3.4,8.9-8.9,17.8
	c6.9,6,13.3,12.1,13.3,12.1c-3.9,6.1-8.4,12-13.2,17.4l0,0l-12.3-12.2c-5,6.2-10.4,12-16.2,17.3c0.3,0.3,2.7,3,3.8,4.2H805.5z"/>
<path fill="#0033A0" d="M808.7,44.5c-0.8-1.1-1.7-2.2-2.7-3.2c-0.9-0.9-1.8-1.6-2.7-2.3c-10.2-7.7-29-11.5-29-11.5
	c1.8,1,3.3,1.9,3.3,1.9c0.1,0,7.7,1.9,14.4,5.2c0,0-6.1-1.4-10-1.9c1.6,1.4,3.2,3.1,4.5,4.8c0,0,12.5,2.3,17.9,5.3
	c0,0,2.6,2.7,4.8,7.4c-8.5-3.5-18.2-5.3-18.2-5.3c1.3,2.9,2.2,6,2.8,9.2c0,0,10.6,2.6,18.6,6.4c0.7,3.8,0.9,7.7,0.8,11.7
	c-9.4-4.7-18.8-7.7-18.8-7.7c-0.2,4.1-0.8,8.3-2,12.7c0,0,12.9,5.8,18.7,9.2c-1.3,5.1-3.1,10.1-5.2,14.9
	c-8.8-5.7-18.1-10.8-18.1-10.8c-2.3,5.6-8.1,14.8-8.1,14.8l0,0v0l0,0c0.1,0.1,9.7,6.7,17.1,12.5c-3.7,5.5-7.8,10.9-12.3,15.9
	c-1.5-1.5-15.7-14-15.7-14c-4.3,4.9-9,9.8-14.2,14.4c0,0,0,0,0,0l13.6,15.4c0,0,0,0,0,0l0,0c-8.8,7.3-17.7,12.8-17.7,12.8
	l-11.4-16.1c0,0-8,6.1-21.5,12.5v4.7h44.4C811.4,125.9,829,72.3,808.7,44.5z"/>
<path fill="#0033A0" d="M783.6,38.9c-12.3-16.6-31.6-14.2-37.3-13.4c-6.3,0.9-11.1,2.3-11.1,2.3c1.4,0.1,3.3,0.4,4.7,0.7
	c1-0.2,9.9-2.3,16.3-1.4c0,0,0,0,0,0c-4.7,0.5-11.2,2.5-11.9,2.7c0,0,0,0,0,0c0,0,0,0,0,0c0.2,0.1,2.1,0.6,4.5,2
	c0.7-0.2,9.5-2.5,17.8-2.7v0c0,0,3.1,1.4,6.1,3.4c-10.8,0-19.7,2-20,2.1c1.3,1.1,2.5,2.5,3.7,4.1c11.8-1.8,22-1,22-1s1.4,1.7,2,2.6
	c0.8,1.1,1.6,2.6,2.2,3.8c-12.1-1.4-23.6-0.4-23.6-0.4c0.8,2.1,1.3,4.3,1.6,6.6c1.3,0,11.6,0,24.6,2.4c0.4,3,0.5,6.2,0.1,9.6
	c-2.2-0.6-12.9-3.2-24.6-4.4c-0.2,2.9-0.8,6-1.6,9.1c1.3,0.3,15.7,3.7,23.8,7c-0.2,0.5-0.3,1-0.5,1.5c-1.2,3.5-2.6,6.9-4.3,10.4
	c-6.5-3.2-22.4-9.4-22.4-9.4c-1.6,3.6-3.5,7.2-5.8,10.8c0,0,13.7,7.8,20.3,12.1c-3,4.3-6.5,8.6-10.3,12.7
	c-4.8-4.3-16.7-13.5-17.6-14.2c-3.9,4.6-8.7,9.4-10.2,10.8l14.3,16.4c-0.1,0.1-0.3,0.2-0.4,0.4c-3.1,2.6-6.4,5-9.3,6.9
	c-2.5,1.7-4.5,3-5.2,3.4c-0.2-0.3-9.5-15.2-11-17.6c-1,0.8-2.1,1.5-3.1,2.2v30.8c1.7-0.8,3.4-1.7,5.1-2.5c8.1-4,15.9-9,23.2-14.9
	c4.7-3.7,9.6-8.1,14.4-13.1c5.8-5.9,10.8-12.1,14.9-18.4C791,78.9,795.2,54.6,783.6,38.9z"/>
<path fill="#0033A0" d="M751.7,37.7c-5.9-6.7-15.6-9-26.9-7.4c-0.3,0-0.6,0.1-0.9,0.1c-0.9,0.1-1.7,0.3-2.6,0.5
	c-1.7,0.4-2.9,0.8-3.6,1.1v3.4c1.1-0.9,2.3-1.7,3.4-2.5c2.3-0.5,4.5-0.8,6.6-0.9c-3.3,1.9-7,4.4-10,6.7v2.6l0.1,0.1
	c0,0,8.3-6.6,14.9-9.4c1.6,0.1,3.1,0.3,4.6,0.7c-9.9,4.2-17.1,9.4-17.6,9.7c1,0.6,1.9,1.4,2.1,1.4c0.1-0.1,9.7-6.1,20.2-9.6
	c1.4,0.7,2.8,1.5,4,2.4c-11.5,3.2-22.5,9-22.5,9c0.6,0.7,1.2,1.5,1.6,2.3c0.1,0,0.1-0.1,0.2-0.1c11.7-5,24.2-7.6,24.2-7.6
	c1,1.3,1.8,2.8,2.4,4.5c0,0-11.2,1.3-25.6,5.9c0.6,2,0.8,3.5,0.8,3.5c0,0,13.6-3,26.1-3.4c0.2,2,0.1,4.3-0.2,6.6
	c-7.4-0.4-25,0.5-25.7,0.6c0,0-0.1,2.5-0.7,4.9c0,0,12.9,0.4,24.6,2.6c-0.9,2.8-2.1,5.6-3.4,8.3c-7.8-2.3-19.7-5.2-22.8-5.9
	c-0.8,2-1.9,4-3.1,6c0,0,14.5,6.3,20,9.4h0l0,0c-2.4,3.6-7.2,8.7-7.2,8.7c-1.4-1-2.7-2-3.9-2.9c-3.8-2.7-9.5-6.7-13-9.1
	c0,0,0,0,0,0v12l7.5,8.8c-2.5,2-5,3.8-7.5,5.4v7.1c0.1-0.1,0.2-0.1,0.3-0.2c3.4-2.3,6.8-4.9,10.1-7.8
	C753.9,82.6,764.5,52.4,751.7,37.7z"/>
<path fill="#0033A0" d="M717.5,72c6.6-9.4,7.6-20.2,1.8-25.5c-0.5-0.5-1.1-0.9-1.8-1.3V72z"/>
<path fill="#0033A0" d="M753.7,21.3c58.7,0,106.5,48,106.5,106.9c0,12-2,23.9-5.9,35.1h26.1V0.5H717.5v27.2l0.1,0
	C729.2,23.4,741.4,21.3,753.7,21.3z"/>
<path fill="#0033A0" d="M634.7,92.1c-0.9,2.7-2.4,4.9-4.4,6.6c-2,1.7-4.6,2.9-7.9,3.6c-3.2,0.7-7.1,1.1-11.7,1.1h-19.2V60.5h19.2
	c4.7,0,8.7,0.4,11.9,1.2c3.2,0.8,5.8,2.1,7.8,3.8c2,1.7,3.4,4,4.3,6.7c0.9,2.7,1.3,6,1.3,9.8C636.1,86,635.6,89.4,634.7,92.1
	 M649.4,52.4c-4-3.5-9.1-6.3-15.2-8.2c-6.2-2-13.6-2.9-22.3-2.9H568v81.3h43.9c15.6,0,27.7-3.4,36.3-10.1
	c8.6-6.8,12.8-16.9,12.8-30.5c0-6.1-0.9-11.6-2.8-16.6C656.3,60.3,653.4,56,649.4,52.4"/>
<polygon fill="#0033A0" points="474.6,89.2 519.1,89.2 519.1,73.2 474.6,73.2 474.6,59.8 527.4,59.8 527,41.3 451,41.3 451,122.6 
	529.2,122.6 529.6,104.2 474.6,104.2"/>
<polygon fill="#0033A0" points="331,41.3 330.4,60.5 361.5,60.5 361.5,122.6 385.2,122.6 385.2,60.5 416.3,60.5 415.8,41.3"/>
<rect x="270.3" y="41.3" fill="#0033A0" width="24.1" height="81.3"/>
<polygon fill="#0033A0" points="203.5,81.7 203.8,90.4 203.5,90.6 197.4,84.3 153.4,41.3 133.8,41.3 133.8,122.6 155.3,122.6 
	155.3,79.9 155.1,71.1 155.4,71 161.6,77.1 209.5,122.6 225,122.6 225,41.3 203.5,41.3"/>
<path fill="#0033A0" d="M68.5,87.1c0,6.1-1.7,10.7-5.2,13.7c-3.5,3-9,4.5-16.7,4.5c-7.7,0-13.4-1.5-17-4.5c-3.6-3-5.4-7.6-5.4-13.7
	V41.3H0.5v45.6c0,12.6,4,22,11.9,28.1c7.9,6.2,19.3,9.3,34.2,9.3c15,0,26.3-3.1,33.9-9.2C88.2,108.9,92,99.5,92,86.9V41.3H68.5
	V87.1z"/>
</svg>
