<?xml version="1.0" encoding="UTF-8"?>
<svg xmlns="http://www.w3.org/2000/svg" viewBox="0 0 140 33">
<title>Virgin Atlantic Airways logo</title>
<defs>
<linearGradient id="paint0_linear" x2="1" gradientUnits="userSpaceOnUse" gradientTransform="translate(4.24839 2.19583) scale(18.041 12.6249) rotate(33.5473)">
<stop stop-color="#E96E85"/>
<stop offset="0.023062" stop-color="#E5566C"/>
<stop offset="0.0506833" stop-color="#E24256"/>
<stop offset="0.0833096" stop-color="#E03245"/>
<stop offset="0.123658" stop-color="#DE263A"/>
<stop offset="0.180256" stop-color="#DD2033"/>
<stop offset="0.337423" stop-color="#DD1E31"/>
<stop offset="0.516817" stop-color="#DA1E30"/>
<stop offset="0.646871" stop-color="#D11D2F"/>
<stop offset="0.761373" stop-color="#C11B2C"/>
<stop offset="0.866884" stop-color="#AB1928"/>
<stop offset="0.965325" stop-color="#8E1622"/>
<stop offset="1" stop-color="#821520"/>
</linearGradient>
<linearGradient id="paint1_linear" x2="1" gradientUnits="userSpaceOnUse" gradientTransform="translate(19.0148 12.3975) scale(18.0516 12.671) rotate(-127.59)">
<stop offset="0.84" stop-color="#C52032"/>
<stop offset="0.868297" stop-color="#C62335"/>
<stop offset="0.889821" stop-color="#C82D3E"/>
<stop offset="0.909114" stop-color="#CD3D4D"/>
<stop offset="0.927111" stop-color="#D35462"/>
<stop offset="0.944205" stop-color="#DA727D"/>
<stop offset="0.960618" stop-color="#E4969F"/>
<stop offset="0.976481" stop-color="#EFC2C7"/>
<stop offset="0.991548" stop-color="#FCF3F4"/>
<stop offset="0.995" stop-color="white"/>
</linearGradient>
</defs>
<path fill-rule="evenodd" clip-rule="evenodd" d="M69.9868 16.2754V4.39062H72.5981V3.24805H69.9868V0H68.7354V3.25V4.39258V16.2754H69.9868ZM15.7012 0.00195312H14.4507V1.49414H15.7012V0.00195312ZM108.044 1.49414H106.794V0.00195312H108.044V1.49414ZM6.05762 16.2734H7.2124L13.1729 3.25H11.7871L6.66699 14.7656L1.47803 3.25H0L6.05762 16.2734ZM15.7012 16.2734H14.4507V3.25H15.7012V16.2734ZM37.8462 1.49414H39.0967V0.00195312H37.8462V1.49414ZM39.0967 16.2734H37.8462V3.25H39.0967V16.2734ZM73.604 16.2734H74.853V0.00195312H73.604V16.2734ZM108.044 16.2734H106.794V3.25H108.044V16.2734ZM102.918 4.39062V16.2754H101.672V4.39258V3.25V0H102.918V3.25H105.532V4.39062H102.918ZM66.0269 8.23828V8.06055C66.0269 5.40625 64.3955 4.2793 61.7935 4.2793C60.4229 4.2793 59.1323 4.62109 57.7617 5.28516L57.3105 4.27148C58.6968 3.57031 60.3296 3.11719 61.9658 3.11719C63.668 3.11719 65.0366 3.5332 65.9492 4.44141C66.9492 5.43555 67.23 6.72461 67.23 8.04297V16.2734H66.0269V14.209C65.771 14.7324 64.1689 16.5547 61.1807 16.5547C58.6626 16.5547 56.332 15.0762 56.332 12.4941V12.4473C56.332 8.24805 60.8252 8.23828 62.1548 8.23828H66.0269ZM66.0508 11.084C66.0508 14.1465 63.5977 15.4355 61.292 15.4355C59.168 15.4355 57.6118 14.1797 57.6118 12.4219C57.6118 10.1504 59.1846 9.35156 62.312 9.35156H66.0508V11.084ZM86.1411 8.23828V8.06055C86.1411 5.40625 84.5083 4.2793 81.9062 4.2793C80.5332 4.2793 79.2441 4.62109 77.8745 5.28516L77.4233 4.27148C78.8105 3.57031 80.4419 3.11719 82.0796 3.11719C83.7788 3.11719 85.1494 3.5332 86.062 4.44141C87.0605 5.43555 87.3428 6.72461 87.3428 8.04297V16.2734H86.1411V14.209C85.8848 14.7324 84.2827 16.5547 81.291 16.5547C78.7754 16.5547 76.4448 15.0762 76.4448 12.4941V12.4473C76.4448 8.24805 80.9395 8.23828 82.27 8.23828H86.1411ZM86.1631 11.084C86.1631 14.1465 83.709 15.4355 81.4033 15.4355C79.2793 15.4355 77.7231 14.1797 77.7231 12.4219C77.7231 10.1504 79.2969 9.35156 82.4253 9.35156H86.1631V11.084ZM50.5977 16.2734H51.8491V8.6543C51.8491 4.88867 49.8989 3.02344 46.7163 3.02344C43.3857 3.02344 42.0728 5.52734 41.9502 5.84375V3.24805H40.7021V16.2734H41.9502V9.93555C41.9502 5.91992 44.0234 4.16406 46.54 4.16406C50.5566 4.16406 50.5977 7.7832 50.5977 9.37891V16.2734ZM100.12 16.2734H98.8701V9.37891C98.8701 7.7832 98.8286 4.16406 94.8101 4.16406C92.2954 4.16406 90.2222 5.91992 90.2222 9.93555V16.2734H88.9731V3.24805H90.2222V5.84375C90.3462 5.52734 91.6577 3.02344 94.9883 3.02344C98.1714 3.02344 100.12 4.88867 100.12 8.6543V16.2734ZM30.0283 20.0254C31.8926 20.0254 33.5312 19.418 34.624 18.2988C35.6445 17.2578 36.2217 15.8457 36.2217 13.4785V3.24805H35.0068V5.89648C34.3257 4.44141 32.2642 3.02539 29.7295 3.02539C26.6704 3.02539 23.6401 5.43555 23.6401 9.16797V9.2207C23.6401 12.9258 26.6704 15.3105 29.7295 15.3105C32.2383 15.3105 34.2925 13.8359 35.0068 12.3145V13.5078C35.0068 17.0566 33.1274 18.8574 30.0532 18.8574C27.9443 18.8574 26.418 18.0938 24.9268 17.043L24.2129 18.0449C25.0532 18.7656 27.208 20.0254 30.0283 20.0254ZM24.9565 9.16797C24.9565 12.0312 27.2197 14.123 29.8618 14.123C32.4956 14.123 34.9917 12.1348 34.9917 9.19336V9.14062C34.9917 6.14648 32.4888 4.21875 29.8535 4.21875C27.1948 4.21875 24.9565 6.09766 24.9565 9.11719V9.16797ZM120.854 13.2539C120.211 13.9629 118.748 15.2637 116.509 15.2637C113.544 15.2637 111.218 12.793 111.218 9.69141V9.64062C111.218 6.56445 113.468 4.11914 116.408 4.11914C117.782 4.11914 119.306 4.58789 120.836 6.08984L121.614 5.24219C120.783 4.26562 119.012 2.96094 116.434 2.96094C112.561 2.96094 109.874 6.08594 109.874 9.69141V9.74219C109.874 13.3477 112.566 16.4219 116.434 16.4219C119.142 16.4219 121.027 14.9082 121.66 13.9883L120.854 13.2539ZM18.6499 16.2715H17.3994V3.24609H18.6499V6.84961C19.7017 4.53906 21.8398 3.02344 24.4155 3.12305V4.4375H24.2871C21.2764 4.4375 18.6499 6.69727 18.6499 10.9082V16.2715Z" transform="translate(0.000488281 12.291)" fill="#5B056A"/>
<path d="M23.3024 0H13.6048C10.6029 0 9.86961 0.493263 8.67326 1.7987L0 11.2617C6.927 10.9384 9.06306 17.8779 16.096 15.9763L23.3024 0Z" transform="translate(116.434 0.03125)" fill="url(#paint0_linear)"/>
<path d="M15.8676 15.8151C8.91244 17.6959 6.74654 10.9296 0 11.0924L8.56584 1.74615C9.72766 0.478491 10.4426 0 13.3781 0H23.0018L15.8676 15.8151H15.8621H15.8676Z" transform="translate(116.663 0.193359)" fill="url(#paint1_linear)"/>
<path fill-rule="evenodd" clip-rule="evenodd" d="M4.76403 2.17194C4.76403 2.17194 5.19616 1.37898 5.53698 1.11921C5.53698 1.11921 5.90954 0.894601 5.92028 0.52546C5.92028 0.52546 5.94811 0.277414 5.74694 0.12507C5.74694 0.12507 5.22106 -0.302665 4.79479 0.423898C4.79479 0.423898 2.78258 4.21296 2.08971 8.03132C2.08971 8.03132 2.03649 8.15632 2.02282 7.80671L1.7152 4.4864L1.71178 4.44538C1.70202 4.31452 1.68395 4.08015 1.44225 4.06257C1.44225 4.06257 1.12487 4.00398 0.937857 4.47859L0.0452791 6.66609C0.0452791 6.66609 -0.102182 6.94148 0.135123 7.04499C0.135123 7.04499 0.40026 7.19343 0.573599 6.82429L0.985709 5.94343C1.06823 5.76374 1.12926 5.78913 1.12926 5.78913C1.17663 5.7989 1.19616 5.97859 1.19616 5.97859L1.56237 10.3145C1.56676 10.3477 1.59899 10.6934 1.88952 10.6934C2.10143 10.6915 2.16735 10.4571 2.20934 10.2618L2.23571 10.1348C2.34069 9.61921 2.7152 7.77937 3.29821 5.81257C3.72643 4.36726 4.27868 2.92194 4.76403 2.17194ZM4.17028 5.9239C3.75524 6.01765 3.70104 6.48835 3.70104 6.48835L3.44665 8.3614C3.40563 8.73444 3.89049 8.46296 3.89049 8.46296C4.08971 8.34577 4.12487 8.09968 4.12487 8.09968L4.20202 7.63093L4.43786 6.36335C4.51452 5.83405 4.17028 5.9239 4.17028 5.9239ZM4.84118 7.28523C4.86315 7.06843 4.99938 6.09187 4.99938 6.09187C5.04528 5.48249 5.37536 5.46882 5.37536 5.46882L5.68249 5.42976C5.68249 5.42976 5.78991 5.41999 5.99206 5.32819C6.2567 5.21296 6.34118 5.42976 6.34118 5.42976C6.47741 5.7071 6.02965 5.90632 6.02965 5.90632C5.61217 6.13093 5.5902 6.65437 5.5902 6.65437L5.51842 7.3614C5.46227 7.8614 5.10387 7.96101 5.10387 7.96101C4.65954 8.10944 4.84118 7.28523 4.84118 7.28523ZM4.65417 4.97273C4.9276 4.75398 4.84655 4.57429 4.84655 4.57429C4.74499 4.28132 4.37389 4.59382 4.37389 4.59382C4.06139 4.81648 4.17028 5.03327 4.17028 5.03327C4.307 5.26765 4.65417 4.97273 4.65417 4.97273ZM9.61901 5.85944C9.55651 6.25984 9.20153 6.33601 9.20153 6.33601C8.87633 6.41999 8.94665 6.10163 8.94665 6.10163L8.99499 5.8028L9.26012 4.33015C9.32165 3.99616 9.66198 3.92976 9.66198 3.92976C9.93981 3.86921 9.84753 4.26179 9.83874 4.31257C9.82946 4.36335 9.61901 5.85944 9.61901 5.85944ZM10.0507 3.2071C10.0507 3.2071 10.3475 2.96296 10.2123 2.78327C10.2123 2.78327 10.0858 2.59577 9.73424 2.84382C9.73424 2.84382 9.4193 3.09968 9.61217 3.28132C9.61217 3.28132 9.79528 3.45319 10.0507 3.2071ZM13.1932 4.96491C13.515 4.82624 13.6962 4.91023 13.766 5.02937C13.8387 5.15632 13.8173 5.27937 13.7577 5.36726C13.6556 5.51569 13.3085 5.63288 13.0399 5.71101C12.8387 5.7696 12.682 5.82819 12.682 5.82819C12.2064 5.97859 11.6478 6.19929 11.6478 6.19929C10.3568 6.74421 9.20251 7.34187 8.19665 7.92976C8.18249 8.07429 8.17223 8.19148 8.1693 8.27351C8.1693 8.27351 7.98669 10.3946 7.96227 10.7071C7.96227 10.7071 7.95495 11.0938 8.00866 11.3282L8.02575 11.3985C8.08825 11.6505 8.19421 12.0801 7.89977 12.2676C7.63561 12.4376 7.40124 12.2384 7.34899 12.1739C7.31286 12.129 7.21667 12.0098 7.28991 11.4141C7.28991 11.4141 7.44909 9.89069 7.4862 9.39851L7.57067 8.30671C4.94518 9.92976 3.52379 11.3809 3.52379 11.3809C3.37975 11.5137 3.03014 11.8106 2.7777 11.4844C2.53991 11.1798 3.17711 10.713 3.17711 10.713C4.56432 9.54109 6.17174 8.50398 7.61852 7.67194L7.64342 7.33405C7.64342 7.33405 7.66003 7.22663 7.54479 7.3028C7.54479 7.3028 7.05651 7.58796 6.70006 7.4239C6.70006 7.4239 6.41393 7.2989 6.42467 6.87702C6.42467 6.87702 6.42321 5.54694 6.98327 4.99421C6.98327 4.99421 7.30553 4.66023 7.61999 4.67194C7.80895 4.67976 7.78503 4.95515 7.53405 5.16804C7.31969 5.34968 7.26256 5.57038 7.19665 5.83015L7.15758 5.97859C7.15758 5.97859 6.95788 6.88093 7.29333 6.84382C7.29333 6.84382 7.63268 6.86921 7.73717 6.2989L7.99108 4.89265L7.9945 4.87312C8.01989 4.70905 8.07116 4.38484 8.3612 4.39655C8.3612 4.39655 8.66979 4.39655 8.63659 4.64851C8.63659 4.64851 8.40514 6.19538 8.26891 7.30476C10.2421 6.21491 11.7743 5.56452 11.7743 5.56452C11.8334 5.53327 11.808 5.52155 11.808 5.52155C11.5716 5.44148 11.6835 4.91804 11.6835 4.91804L11.7987 3.85944C11.8031 3.59773 11.4828 3.75398 11.4828 3.75398C11.2567 3.87898 11.1009 4.16999 11.1009 4.16999C10.9686 4.35163 10.8885 5.27741 10.8885 5.27741C10.8568 5.75007 10.579 5.82819 10.579 5.82819C10.2508 5.94148 10.2132 5.75984 10.2132 5.75984C10.1737 5.67585 10.2499 5.22468 10.2499 5.22468L10.3924 4.07234C10.4188 3.58601 10.7757 3.49226 10.7757 3.49226C10.8568 3.46882 10.9608 3.45124 11.077 3.4903C11.1927 3.52937 11.2733 3.52155 11.3412 3.50398C11.4608 3.47468 11.6161 3.33015 11.6161 3.33015C11.934 3.05085 12.1307 3.07429 12.1307 3.07429C12.5028 3.07234 12.452 3.54499 12.452 3.54499L12.3221 4.84577C12.2811 5.39851 12.6893 5.18757 12.6996 5.18171L13.1932 4.96491Z" transform="translate(122.26 1.55273)" fill="white"/>
</svg>
