<svg width="40" height="30" viewBox="0 0 40 30" fill="none" xmlns="http://www.w3.org/2000/svg">
<path d="M33.4576 0.992042L30.8986 2.98025L20.0025 11.0325L9.1064 2.90072L6.54732 0.912513C5.94444 0.416545 5.2085 0.107369 4.43065 0.0232876C3.65281 -0.0607937 2.86725 0.0839155 2.17131 0.439487C1.47536 0.795058 0.899599 1.34587 0.515364 2.02367C0.131129 2.70148 -0.0446981 3.47649 0.00966531 4.2527V27.296C0.00966531 28.0132 0.296133 28.7009 0.806049 29.208C1.31596 29.7151 2.00756 30 2.72869 30H9.1064V14.651L20.0025 22.7828L30.8986 14.651V30H37.2763C37.9974 30 38.689 29.7151 39.1989 29.208C39.7088 28.7009 39.9953 28.0132 39.9953 27.296V4.2527C40.0328 3.48319 39.8448 2.7194 39.454 2.05419C39.0632 1.38897 38.4865 0.850971 37.794 0.505588C37.1015 0.160205 36.323 0.0223119 35.5532 0.108671C34.7834 0.19503 34.0554 0.501922 33.4576 0.992042Z" fill="#1E1E1E"/>
</svg>
