<svg width="40" height="51" viewBox="0 0 40 51" fill="none" xmlns="http://www.w3.org/2000/svg">
<path d="M20 0C14.6976 0.00626657 9.61415 2.11918 5.86478 5.87525C2.11541 9.63131 0.00626795 14.7238 1.25531e-05 20.0357C-0.0048626 24.3763 1.41039 28.599 4.0291 32.0571C4.0291 32.0571 4.57456 32.7766 4.66365 32.8804L20 51L35.3436 32.8713C35.4236 32.7748 35.9709 32.0571 35.9709 32.0571L35.9727 32.0517C38.5897 28.5948 40.0042 24.3743 40 20.0357C39.9937 14.7238 37.8846 9.63131 34.1352 5.87525C30.3859 2.11918 25.3024 0.00626657 20 0ZM20 27.3214C18.5616 27.3214 17.1555 26.8941 15.9595 26.0936C14.7635 25.293 13.8313 24.1551 13.2809 22.8238C12.7304 21.4925 12.5864 20.0276 12.867 18.6143C13.1476 17.2011 13.8403 15.9029 14.8574 14.8839C15.8745 13.865 17.1704 13.1711 18.5812 12.89C19.9919 12.6089 21.4542 12.7532 22.7832 13.3046C24.1121 13.856 25.2479 14.7899 26.0471 15.988C26.8462 17.1861 27.2727 18.5947 27.2727 20.0357C27.2703 21.9673 26.5033 23.819 25.1399 25.1848C23.7766 26.5506 21.9281 27.319 20 27.3214Z" fill="black"/>
</svg>
