<svg width="40" height="40" viewBox="0 0 40 40" fill="none" xmlns="http://www.w3.org/2000/svg">
<path d="M37.6667 40C33.037 40 28.463 38.9911 23.9444 36.9733C19.4259 34.9556 15.3148 32.0941 11.6111 28.3889C7.90741 24.6837 5.04667 20.5726 3.02889 16.0556C1.01111 11.5385 0.00148148 6.96445 0 2.33333C0 1.66667 0.222222 1.11111 0.666667 0.666667C1.11111 0.222222 1.66667 0 2.33333 0H11.3333C11.8519 0 12.3148 0.176296 12.7222 0.528889C13.1296 0.881481 13.3704 1.29778 13.4444 1.77778L14.8889 9.55556C14.963 10.1481 14.9444 10.6481 14.8333 11.0556C14.7222 11.463 14.5185 11.8148 14.2222 12.1111L8.83333 17.5556C9.57407 18.9259 10.4533 20.2496 11.4711 21.5267C12.4889 22.8037 13.6096 24.0356 14.8333 25.2222C15.9815 26.3704 17.1852 27.4356 18.4444 28.4178C19.7037 29.4 21.037 30.2978 22.4444 31.1111L27.6667 25.8889C28 25.5556 28.4356 25.3059 28.9733 25.14C29.5111 24.9741 30.0385 24.9274 30.5556 25L38.2222 26.5556C38.7407 26.7037 39.1667 26.9726 39.5 27.3622C39.8333 27.7519 40 28.1867 40 28.6667V37.6667C40 38.3333 39.7778 38.8889 39.3333 39.3333C38.8889 39.7778 38.3333 40 37.6667 40Z" fill="#1E1E1E"/>
</svg>
