<svg width="40" height="40" viewBox="0 0 40 40" fill="none" xmlns="http://www.w3.org/2000/svg">
<mask id="mask0_526_1943" style="mask-type:luminance" maskUnits="userSpaceOnUse" x="0" y="0" width="40" height="40">
<path d="M0 0H40V40H0V0Z" fill="white"/>
</mask>
<g mask="url(#mask0_526_1943)">
<path d="M23.775 0.36417L22.5747 0.1964C18.9672 -0.322309 15.286 0.190853 11.9602 1.67606C8.63444 3.16127 5.8011 5.55733 3.79052 8.58491C1.65131 11.4789 0.376073 14.9156 0.111566 18.4995C-0.152941 22.0834 0.604032 25.6688 2.29537 28.8432C2.46846 29.1613 2.57623 29.5106 2.61239 29.8706C2.64854 30.2307 2.61236 30.5943 2.50595 30.9403C1.64256 33.8972 0.842338 36.8752 0 39.9999L1.05292 39.6853C3.89581 38.9303 6.7387 38.1754 9.58159 37.4833C10.1816 37.3591 10.8053 37.4175 11.3716 37.6511C13.9222 38.8907 16.7095 39.5727 19.5466 39.6513C22.3836 39.7299 25.2047 39.2032 27.8205 38.1067C30.4364 37.0101 32.7864 35.369 34.7129 33.2935C36.6395 31.218 38.0979 28.7562 38.9904 26.0731C39.8829 23.3901 40.1888 20.5481 39.8876 17.7376C39.5863 14.9272 38.6849 12.2134 37.2438 9.7785C35.8028 7.34356 33.8553 5.24375 31.5323 3.62001C29.2092 1.99627 26.5643 0.886154 23.775 0.36417ZM29.0817 27.8785C28.3164 28.5609 27.3831 29.0291 26.3769 29.2353C25.3707 29.4416 24.3276 29.3787 23.3538 29.0529C18.942 27.8138 15.1142 25.057 12.5508 21.2725C11.572 19.9337 10.7853 18.4656 10.2133 16.9105C9.90347 16.0083 9.8476 15.0388 10.0518 14.1071C10.2559 13.1755 10.7124 12.3174 11.3716 11.6257C11.6925 11.2179 12.1293 10.9157 12.6251 10.7586C13.1209 10.6015 13.6527 10.5967 14.1513 10.745C14.5724 10.8498 14.8673 11.458 15.2463 11.9193C15.5552 12.7862 15.9132 13.632 16.3203 14.4569C16.6286 14.8774 16.7574 15.4023 16.6785 15.917C16.5996 16.4317 16.3194 16.8944 15.8991 17.2041C14.9515 18.043 15.0989 18.735 15.7728 19.6787C17.2617 21.8168 19.3176 23.5011 21.7113 24.544C22.3851 24.8376 22.8905 24.9006 23.3328 24.2085C23.5223 23.9359 23.775 23.7052 23.9856 23.4535C25.207 21.9226 24.8279 21.9436 26.7653 22.7825C27.383 23.0411 27.9797 23.3417 28.5552 23.6842C29.1238 24.0198 29.9872 24.3763 30.1136 24.8796C30.2351 25.4256 30.2031 25.9944 30.0211 26.5235C29.839 27.0526 29.514 27.5215 29.0817 27.8785Z" fill="black"/>
</g>
</svg>
