<svg width="28" height="21" viewBox="0 0 28 21" fill="none" xmlns="http://www.w3.org/2000/svg">
<path d="M27.0625 18C27.4062 18 27.75 18.3438 27.75 18.6875V20.0625C27.75 20.4492 27.4062 20.75 27.0625 20.75H0.9375C0.550781 20.75 0.25 20.4492 0.25 20.0625V18.6875C0.25 18.3438 0.550781 18 0.9375 18H27.0625ZM3.6875 13.4453L0.421875 9.87891C0.078125 9.49219 0.207031 8.89062 0.636719 8.67578L2.39844 7.77344C2.48438 7.73047 2.61328 7.6875 2.74219 7.6875C2.82812 7.6875 2.95703 7.73047 3.08594 7.77344L6.17969 9.36328L10.6055 7.08594L3.90234 2.875C3.55859 2.48828 3.64453 1.88672 4.11719 1.67188L6.95312 0.210938C7.03906 0.167969 7.16797 0.167969 7.29688 0.167969C7.46875 0.167969 7.59766 0.210938 7.72656 0.296875L17.1367 3.82031L21.3477 1.67188C22.5078 1.07031 23.7969 0.726562 25.043 0.8125C26.5039 0.898438 27.2344 1.37109 27.5781 2.01562C27.8789 2.61719 27.793 3.51953 27.0195 4.72266C26.2891 5.83984 25.2578 6.65625 24.1406 7.25781L11.6367 13.5742C11.25 13.7891 10.8203 13.875 10.3477 13.875H4.71875C4.33203 13.875 3.94531 13.7461 3.6875 13.4453Z" fill="white"/>
</svg>
