<svg width="29" height="22" viewBox="0 0 29 22" fill="none" xmlns="http://www.w3.org/2000/svg">
<path d="M26.9336 2.11328C27.4062 2.32812 27.75 2.84375 27.75 3.35938V17.0234C27.75 17.7969 27.0625 18.3555 26.332 18.3555C26.2031 18.3555 26.0312 18.3555 25.9023 18.3125C24.5703 17.8828 23.2383 17.7109 21.9062 17.7109C16.6211 17.7109 11.3359 20.375 6.05078 20.375C4.375 20.375 2.69922 20.1172 1.02344 19.4297C0.550781 19.2148 0.25 18.6992 0.25 18.1836V4.51953C0.25 3.74609 0.894531 3.14453 1.625 3.14453C1.75391 3.14453 1.92578 3.1875 2.05469 3.23047C3.38672 3.66016 4.71875 3.83203 6.05078 3.83203C11.3359 3.83203 16.6211 1.125 21.9062 1.125C23.582 1.125 25.2578 1.42578 26.9336 2.11328ZM14 14.875C15.8906 14.875 17.4375 13.0703 17.4375 10.75C17.4375 8.47266 15.8906 6.625 14 6.625C12.0664 6.625 10.5625 8.47266 10.5625 10.75C10.5625 13.0703 12.0664 14.875 14 14.875Z" fill="white"/>
</svg>
