<svg width="22" height="22" viewBox="0 0 22 22" fill="none" xmlns="http://www.w3.org/2000/svg">
<path d="M14.7773 6.625H7.17188C7.81641 2.80078 9.27734 0.09375 10.9961 0.09375C12.6719 0.09375 14.1758 2.80078 14.7773 6.625ZM6.87109 10.75C6.87109 9.80469 6.91406 8.90234 7 8H14.9492C15.0352 8.90234 15.0781 9.80469 15.0781 10.75C15.0781 11.7383 15.0352 12.6406 14.9492 13.5H7C6.91406 12.6406 6.87109 11.7383 6.87109 10.75ZM20.793 6.625H16.1523C15.7656 4.21875 15.0781 2.02734 14.0039 0.566406C17.0977 1.46875 19.5898 3.74609 20.793 6.625ZM7.94531 0.566406C6.87109 2.02734 6.18359 4.21875 5.79688 6.625H1.15625C2.35938 3.74609 4.85156 1.46875 7.94531 0.566406ZM21.2656 8C21.4805 8.90234 21.6094 9.80469 21.6094 10.75C21.6094 11.7383 21.4805 12.6406 21.2656 13.5H16.3242C16.4102 12.5977 16.4961 11.6953 16.4961 10.75C16.4961 9.84766 16.4102 8.90234 16.3242 8H21.2656ZM5.49609 10.75C5.49609 11.6953 5.53906 12.5977 5.625 13.5H0.683594C0.46875 12.6406 0.339844 11.7383 0.339844 10.75C0.339844 9.80469 0.46875 8.90234 0.683594 8H5.625C5.53906 8.90234 5.49609 9.84766 5.49609 10.75ZM7.17188 14.875H14.7773C14.1758 18.7422 12.6719 21.4062 10.9961 21.4062C9.27734 21.4062 7.81641 18.7422 7.17188 14.875ZM14.0039 20.9766C15.0781 19.5156 15.8086 17.3242 16.1523 14.875H20.793C19.5898 17.7969 17.0977 20.0742 14.0039 20.9766ZM1.15625 14.875H5.79688C6.18359 17.3242 6.87109 19.5156 7.94531 20.9766C4.85156 20.0742 2.35938 17.7969 1.15625 14.875Z" fill="white"/>
</svg>
