<svg xmlns="http://www.w3.org/2000/svg" version="1.1" xmlns:xlink="http://www.w3.org/1999/xlink" width="512" height="512" x="0" y="0" viewBox="0 0 372.064 372.064" style="enable-background:new 0 0 512 512" xml:space="preserve"><g><path d="M365.437 35.312c-4.096-2.56-8.704-3.584-14.336-3.072-9.728 1.536-17.92 5.12-25.6 10.752-6.656 5.12-14.336 11.264-23.04 18.432l-12.288 10.752c-2.56 2.56-5.12 4.608-7.68 7.168-2.56 2.048-4.608 3.072-7.68 2.56-1.536-.512-3.584-1.024-5.632-1.536l-95.744-35.84c-3.072-1.024-6.144-2.048-9.728-3.072-7.168-2.048-12.288 0-15.36 2.56-5.632 4.096-10.24 9.216-13.312 14.848-3.584 5.632-2.56 11.776 2.56 16.384a37.343 37.343 0 0 0 5.632 4.608c17.408 12.288 35.328 24.064 52.736 36.352 6.656 4.608 12.8 8.704 17.408 14.336 1.024 1.536 2.048 2.56 3.072 4.096l-33.28 31.744c-3.584 3.584-7.168 6.656-10.752 10.24-.512 0-1.024-.512-1.536-.512l-5.632-2.56c-4.608-2.048-8.704-4.608-13.312-6.656-5.632-2.56-11.776-2.048-16.384 2.048-2.56 2.048-5.12 4.608-7.68 7.168-4.608 4.608-5.12 10.24-1.024 15.36 1.024 1.536 2.048 2.56 3.072 3.584l9.728 12.288c11.264 14.848 23.04 29.696 34.816 44.032 1.536 2.048 3.072 3.584 5.12 4.608 2.048 1.024 6.144 3.584 11.264 2.048 6.144-2.048 10.752-6.144 12.8-12.288 2.048-5.12 2.56-10.752.512-16.896l-1.024-4.608-3.072-12.288c13.824-10.752 27.648-20.992 40.96-31.744l6.656-5.12 1.536 2.56c3.584 5.632 6.656 11.264 8.704 17.408l23.552 60.416c1.536 3.584 2.56 7.168 4.096 10.24 2.56 5.632 6.656 8.704 11.776 8.704 2.048 0 4.096-.512 6.144-1.536 1.536-.512 3.072-1.024 4.096-2.048 8.192-4.096 13.312-9.728 15.36-17.408 1.536-6.144 1.024-11.776.512-15.872l-12.288-89.6c-1.024-7.168-2.048-14.848-3.072-22.016-.512-3.584.512-5.632 3.072-7.68l10.752-9.216c8.704-7.168 16.896-14.336 25.6-21.504 7.168-6.144 11.776-11.776 15.872-17.92 3.072-4.608 6.144-10.24 7.68-16.384 2.56-6.656 0-13.824-5.632-17.92zm-4.096 15.872c-1.536 5.12-4.096 9.728-6.656 13.824-3.072 5.12-7.68 10.24-13.824 15.36-8.192 7.168-16.896 14.336-25.6 21.504l-10.24 8.704c-5.632 4.096-8.192 10.24-7.168 17.408 1.024 7.168 2.048 14.336 3.072 22.016l12.288 89.6c.512 5.12.512 8.704-.512 11.776-1.536 4.608-4.608 8.192-9.728 10.752-1.024.512-2.048 1.024-3.584 1.536-3.072 1.024-4.096.512-5.12-2.048-1.536-3.072-2.56-6.656-4.096-10.24l-22.528-60.416c-2.56-6.656-6.144-12.8-9.728-18.944l-3.072-5.12-4.608-6.656-15.872 11.776c-14.336 10.752-28.672 22.016-42.496 32.768-3.584 2.56-3.072 5.632-2.56 7.68 1.024 4.608 2.56 9.216 3.584 13.824l1.024 4.608c1.024 4.096 1.024 7.68-.512 10.752-1.536 3.072-3.584 5.12-7.168 6.144 0 0-1.024 0-2.56-1.024-1.024-.512-2.048-1.536-2.56-2.56-11.776-14.848-23.04-29.184-34.304-44.032l-9.728-12.288c-1.024-1.024-1.536-2.048-2.56-3.584-.512-.512-.512-1.024-.512-1.024l1.024-1.024c2.048-2.048 4.608-4.608 6.656-6.144 1.536-1.536 3.584-1.536 5.632-.512 4.608 2.048 8.704 4.096 13.312 6.656l5.632 2.56 3.072 1.536c2.56 1.536 5.632 1.024 8.192-1.024 4.096-4.096 8.192-7.68 12.288-11.776l35.328-33.28 4.096-4.096-2.56-3.584c-.512-1.024-1.024-1.536-1.536-2.56-1.536-2.048-2.56-4.096-4.096-5.632-5.632-6.656-12.288-11.776-19.456-16.384-17.408-11.776-35.328-24.064-52.736-36.352-1.536-1.024-3.072-2.048-4.608-3.584-1.536-1.536-1.536-2.048-.512-3.072 2.56-4.608 6.656-8.704 11.264-12.288 1.024-1.024 2.56-1.536 6.144-.512s6.656 2.048 9.216 3.072l95.744 35.84c2.56 1.024 5.12 1.536 7.168 2.048 5.632 1.024 11.264-.512 15.872-4.608 2.56-2.56 5.12-4.608 7.68-7.168l12.288-10.752c8.704-7.168 15.872-13.312 22.528-18.432 6.144-4.608 13.312-7.68 20.992-8.704 2.56-.512 4.608 0 6.656 1.024 2.048.512 3.072 3.584 2.048 6.656zM136.061 228.848c-1.536-2.048-5.12-2.56-7.168-1.024L1.917 324.592c-2.048 1.536-2.56 5.12-1.024 7.168 1.024 1.536 2.56 2.048 4.096 2.048 1.024 0 2.048-.512 3.072-1.024l126.976-96.768c2.56-1.536 2.56-4.608 1.024-7.168zM152.957 252.912c-2.048-2.048-5.12-2.56-7.68-1.024L67.965 311.28c-2.048 1.536-2.56 5.12-1.024 7.168 1.024 1.536 2.56 2.048 4.096 2.048 1.024 0 2.048-.512 3.072-1.024l77.824-59.392c2.048-1.536 2.56-5.12 1.024-7.168zM61.821 322.032c-1.536-2.048-5.12-2.56-7.168-1.024l-12.8 9.728c-2.048 1.536-2.56 5.12-1.024 7.168 1.024 1.536 2.56 2.048 4.096 2.048 1.024 0 2.048-.512 3.072-1.024l12.8-9.728c2.048-1.536 2.56-5.12 1.024-7.168zM44.925 264.688c-1.536-2.048-5.12-2.56-7.168-1.024l-12.8 9.728c-2.048 1.536-2.56 5.12-1.024 7.168 1.024 1.536 2.56 2.048 4.096 2.048 1.024 0 2.048-.512 3.072-1.024l12.8-9.728c2.048-1.536 2.56-5.12 1.024-7.168zM119.165 208.88c-1.536-2.048-5.12-2.56-7.168-1.024l-60.928 46.08c-2.048 1.536-2.56 5.12-1.024 7.168 1.024 1.024 2.56 2.048 4.096 2.048 1.024 0 2.048-.512 3.072-1.024l60.928-46.08c2.048-1.536 2.56-5.12 1.024-7.168z" fill="#ffffff" opacity="1" data-original="#000000"></path></g></svg>