<svg xmlns="http://www.w3.org/2000/svg" version="1.1" xmlns:xlink="http://www.w3.org/1999/xlink" width="512" height="512" x="0" y="0" viewBox="0 0 512 512" style="enable-background:new 0 0 512 512" xml:space="preserve" class=""><g><path fill-rule="evenodd" d="M397.9 466.9c0-13.38-10.89-24.26-24.27-24.26H147.1c-13.38 0-24.26 10.88-24.26 24.26v24.26H397.9zM376.17 65.95c-6.5 38.28-16.19 77.76-32.78 114.87 47.06-30.22 73.96-66.17 82.02-109.48.27-1.43-.04-2.62-.97-3.74s-2.04-1.64-3.5-1.64h-44.77zM177.34 180.82c-16.59-37.11-26.28-76.58-32.78-114.87H99.78c-1.46 0-2.57.52-3.5 1.64s-1.24 2.31-.97 3.74c8.06 43.32 34.96 79.27 82.03 109.49zm83.02 81.45c-8.47 0-15.72-3.12-21.53-9.29-58.23-61.71-77.04-145.14-87.1-219.82h217.26c-10.06 74.68-28.87 158.11-87.1 219.82-5.81 6.17-13.04 9.29-21.53 9.29zm-49.03 74.3h98.09c-.5-.69-1-1.38-1.5-2.05-13.81-19.01-25.98-35.79-25.14-66.74-6.58 4.27-14.18 6.49-22.41 6.49s-15.83-2.22-22.41-6.49c.84 30.95-11.33 47.73-25.14 66.74-.5.68-1 1.37-1.49 2.05zm117.54 30.55v44.99c0 3.31-2.69 6-6 6H197.85c-3.31 0-6-2.69-6-6v-44.99c0-3.32 2.69-6 6-6h125.02c3.31-.01 6 2.68 6 6zm28.51-18.55H163.35v82.08h194.02v-82.08zM203.86 406.1h113.02v-32.99H203.86z" clip-rule="evenodd" fill="#ffffff" opacity="1" data-original="#000000" class=""></path></g></svg>