<svg width="36" height="24" viewBox="0 0 36 24" fill="none" xmlns="http://www.w3.org/2000/svg">
<path d="M1.8 0C2.24088 5.96553e-05 2.66641 0.166087 2.99587 0.466591C3.32533 0.767095 3.53582 1.18118 3.5874 1.63029L3.6 1.84631V12.9242H14.4V3.69262C14.4001 3.2404 14.5619 2.80392 14.8549 2.46599C15.1479 2.12805 15.5515 1.91215 15.9894 1.85924L16.2 1.84631H30.6C31.9774 1.84623 33.3027 2.38603 34.3049 3.35527C35.307 4.32451 35.9102 5.64991 35.991 7.06029L36 7.38524V22.1557C35.9995 22.6263 35.8238 23.0789 35.5089 23.4211C35.1939 23.7633 34.7635 23.9692 34.3055 23.9968C33.8475 24.0244 33.3965 23.8716 33.0447 23.5695C32.6929 23.2675 32.4668 22.839 32.4126 22.3718L32.4 22.1557V16.6168H3.6V22.1557C3.59949 22.6263 3.42382 23.0789 3.10887 23.4211C2.79393 23.7633 2.36348 23.9692 1.90549 23.9968C1.44749 24.0244 0.996517 23.8716 0.644701 23.5695C0.292886 23.2675 0.0667865 22.839 0.0125999 22.3718L0 22.1557V1.84631C0 1.35664 0.189642 0.887023 0.527208 0.540772C0.864773 0.194522 1.32261 0 1.8 0Z" fill="#4B5563"/>
<path d="M8.9999 3.69238C9.70036 3.69261 10.3855 3.90244 10.9715 4.29615C11.5574 4.68986 12.0186 5.25035 12.2986 5.90893C12.5786 6.56751 12.6652 7.29557 12.5478 8.00389C12.4304 8.71221 12.1141 9.37002 11.6377 9.89669C11.1612 10.4234 10.5454 10.796 9.8655 10.969C9.18565 11.142 8.47136 11.1078 7.81018 10.8706C7.149 10.6333 6.56965 10.2034 6.14312 9.63351C5.7166 9.06358 5.46144 8.37841 5.4089 7.66195L5.3999 7.385L5.4089 7.10806C5.47702 6.17908 5.88495 5.31084 6.55092 4.67738C7.21688 4.04393 8.09166 3.69209 8.9999 3.69238Z" fill="#4B5563"/>
</svg>
