<svg xmlns="http://www.w3.org/2000/svg" version="1.1" xmlns:xlink="http://www.w3.org/1999/xlink" width="512" height="512" x="0" y="0" viewBox="0 0 34 34" style="enable-background:new 0 0 512 512" xml:space="preserve" class=""><g><path d="M8 1c-.5 0-1 .4-1 1v1H4C2.4 3 1 4.3 1 6v24c0 1.7 1.3 3 3 3h26c1.7 0 3-1.3 3-3V6c0-1.7-1.3-3-3-3h-3V2c0-.6-.4-1-1-1s-1 .4-1 1v1H9V2c0-.6-.4-1-1-1zm23 29c0 .6-.4 1-1 1H4c-.6 0-1-.4-1-1V11h28zM25 5v1c0 .6.4 1 1 1s1-.4 1-1V5h3c.6 0 1 .4 1 1v3H3V6c0-.6.4-1 1-1h3v1c0 .6.4 1 1 1s1-.4 1-1V5z" fill="#000000" opacity="1" data-original="#000000" class=""></path><path d="M7.1 19.5h4c.6 0 1-.4 1-1v-4c0-.6-.4-1-1-1h-4c-.6 0-1 .4-1 1v4c0 .6.4 1 1 1zm1-4h2v2h-2zM15.1 19.5h4c.6 0 1-.4 1-1v-4c0-.6-.4-1-1-1h-4c-.6 0-1 .4-1 1v4c0 .6.4 1 1 1zm1-4h2v2h-2zM23.1 19.5h4c.6 0 1-.4 1-1v-4c0-.6-.4-1-1-1h-4c-.6 0-1 .4-1 1v4c0 .6.4 1 1 1zm1-4h2v2h-2zM7.1 28.5h4c.6 0 1-.4 1-1v-4c0-.6-.4-1-1-1h-4c-.6 0-1 .4-1 1v4c0 .6.4 1 1 1zm1-4h2v2h-2zM15.1 28.5h4c.6 0 1-.4 1-1v-4c0-.6-.4-1-1-1h-4c-.6 0-1 .4-1 1v4c0 .6.4 1 1 1zm1-4h2v2h-2zM23.1 28.5h4c.6 0 1-.4 1-1v-4c0-.6-.4-1-1-1h-4c-.6 0-1 .4-1 1v4c0 .6.4 1 1 1zm1-4h2v2h-2z" fill="#000000" opacity="1" data-original="#000000" class=""></path></g></svg>