<svg width="20" height="20" viewBox="0 0 20 20" fill="none" xmlns="http://www.w3.org/2000/svg">
<path d="M10.0739 6.66525C8.25175 6.66525 6.76473 8.16376 6.76473 10C6.76473 11.8362 8.25175 13.3348 10.0739 13.3348C11.8961 13.3348 13.3831 11.8362 13.3831 10C13.3831 8.16376 11.8961 6.66525 10.0739 6.66525ZM19.999 10C19.999 8.61907 20.0114 7.25064 19.9344 5.87221C19.8575 4.27113 19.495 2.85017 18.3332 1.67938C17.1689 0.506085 15.7613 0.14334 14.1725 0.065788C12.8022 -0.0117644 11.4443 0.000744113 10.0764 0.000744113C8.70605 0.000744113 7.34812 -0.0117644 5.98026 0.065788C4.39145 0.14334 2.98139 0.508587 1.81958 1.67938C0.655281 2.85267 0.295317 4.27113 0.21836 5.87221C0.141402 7.25314 0.153815 8.62157 0.153815 10C0.153815 11.3784 0.141402 12.7494 0.21836 14.1278C0.295317 15.7289 0.657764 17.1498 1.81958 18.3206C2.98387 19.4939 4.39145 19.8567 5.98026 19.9342C7.3506 20.0118 8.70853 19.9993 10.0764 19.9993C11.4467 19.9993 12.8047 20.0118 14.1725 19.9342C15.7613 19.8567 17.1714 19.4914 18.3332 18.3206C19.4975 17.1473 19.8575 15.7289 19.9344 14.1278C20.0139 12.7494 19.999 11.3809 19.999 10ZM10.0739 15.131C7.25627 15.131 4.98229 12.8394 4.98229 10C4.98229 7.16058 7.25627 4.86903 10.0739 4.86903C12.8916 4.86903 15.1655 7.16058 15.1655 10C15.1655 12.8394 12.8916 15.131 10.0739 15.131ZM15.3741 5.8572C14.7162 5.8572 14.1849 5.32184 14.1849 4.65889C14.1849 3.99594 14.7162 3.46058 15.3741 3.46058C16.0319 3.46058 16.5632 3.99594 16.5632 4.65889C16.5634 4.81631 16.5328 4.97222 16.4731 5.1177C16.4134 5.26317 16.3258 5.39535 16.2153 5.50666C16.1049 5.61798 15.9737 5.70624 15.8294 5.76639C15.685 5.82654 15.5303 5.8574 15.3741 5.8572Z" fill="white"/>
</svg>
