<svg width="21" height="20" viewBox="0 0 21 20" fill="none" xmlns="http://www.w3.org/2000/svg">
<path d="M5.04946 2.22321C5.04918 2.81255 4.82951 3.37763 4.43878 3.79415C4.04804 4.21066 3.51825 4.44449 2.96595 4.4442C2.41364 4.4439 1.88407 4.20951 1.49373 3.79257C1.10338 3.37564 0.884246 2.81033 0.884522 2.22099C0.884798 1.63165 1.10446 1.06657 1.4952 0.650052C1.88593 0.233536 2.41572 -0.00029439 2.96803 2.78164e-07C3.52033 0.000294947 4.04991 0.234691 4.44025 0.651623C4.83059 1.06856 5.04973 1.63387 5.04946 2.22321ZM5.11193 6.08966H0.946996V20H5.11193V6.08966ZM11.6925 6.08966H7.54842V20H11.6509V12.7004C11.6509 8.63397 16.6176 8.25621 16.6176 12.7004V20H20.7304V11.1894C20.7304 4.3342 13.3793 4.58975 11.6509 7.95622L11.6925 6.08966Z" fill="white"/>
</svg>
