<svg width="11" height="16" viewBox="0 0 11 16" fill="none" xmlns="http://www.w3.org/2000/svg">
<path d="M5.5 7.6C4.97904 7.6 4.47942 7.38929 4.11104 7.01421C3.74267 6.63914 3.53571 6.13043 3.53571 5.6C3.53571 5.06957 3.74267 4.56086 4.11104 4.18579C4.47942 3.81071 4.97904 3.6 5.5 3.6C6.02096 3.6 6.52058 3.81071 6.88896 4.18579C7.25733 4.56086 7.46429 5.06957 7.46429 5.6C7.46429 5.86264 7.41348 6.12272 7.31476 6.36537C7.21605 6.60802 7.07136 6.8285 6.88896 7.01421C6.70656 7.19993 6.49002 7.34725 6.2517 7.44776C6.01338 7.54827 5.75795 7.6 5.5 7.6ZM5.5 0C4.04131 0 2.64236 0.589998 1.61091 1.6402C0.579463 2.69041 0 4.11479 0 5.6C0 9.8 5.5 16 5.5 16C5.5 16 11 9.8 11 5.6C11 4.11479 10.4205 2.69041 9.38909 1.6402C8.35764 0.589998 6.95869 0 5.5 0Z" fill="white"/>
</svg>
