<svg xmlns="http://www.w3.org/2000/svg" version="1.1" xmlns:xlink="http://www.w3.org/1999/xlink" width="512" height="512" x="0" y="0" viewBox="0 0 512.001 512.001" style="enable-background:new 0 0 512 512" xml:space="preserve" class=""><g><path d="M315.986 100.009c-5.514 0-10-4.486-10-10s4.486-10 10-10c3.542 0 7.283 1.807 10.815 5.227 3.969 3.841 10.299 3.737 14.139-.233 3.84-3.969 3.736-10.299-.233-14.139-5.075-4.911-10.153-7.688-14.723-9.205V50.011c0-5.523-4.477-9.999-10-9.999s-10 4.477-10 9.999V61.73c-11.638 4.128-19.999 15.242-19.999 28.279 0 16.541 13.457 29.998 29.998 29.998 5.514 0 10 4.486 10 10s-4.486 10-10 10c-4.272 0-8.884-2.687-12.985-7.565a9.997 9.997 0 0 0-14.088-1.219c-4.228 3.554-4.773 9.862-1.219 14.088 5.346 6.359 11.631 10.789 18.293 13.023v11.67c0 5.523 4.477 9.999 10 9.999s9.999-4.477 9.999-9.999v-11.719c11.638-4.128 19.999-15.242 19.999-28.279.002-16.54-13.455-29.997-29.996-29.997z" fill="#ffffff" opacity="1" data-original="#000000" class=""></path><path d="M315.986.014c-60.651 0-109.994 49.344-109.994 109.994s49.344 109.994 109.994 109.994c60.651 0 109.994-49.344 109.994-109.994S376.637.014 315.986.014zm0 199.989c-49.623 0-89.995-40.372-89.995-89.995s40.372-89.995 89.995-89.995 89.995 40.372 89.995 89.995-40.372 89.995-89.995 89.995zM474.173 222.73c-15.312-.594-29.624 7.885-36.477 21.588-12.476 24.945-24.293 37.776-47.036 49.542-6.683-13.042-20.312-21.86-35.627-21.86H254.838c-6.388 0-11.549-2.72-18.694-6.484-11.429-6.022-25.653-13.515-51.302-13.515-45.82 0-90.335 44.962-108.818 76.46l-2.385-2.385c-3.904-3.903-10.237-3.904-14.142 0L2.929 382.643a10.003 10.003 0 0 0 .008 14.15l112.524 112.274c3.897 3.889 10.211 3.898 14.117.008l56.567-56.317c3.918-3.901 3.926-10.246.016-14.157l-9.158-9.158c6.849-9.687 24.303-17.45 36.666-17.45h.016l134.979.04h.061c17.452 0 34.192-4.837 48.413-13.988 36.476-23.456 87.779-61.629 112.065-122.069 10.109-25.163-8.464-52.206-35.03-53.246zM122.534 487.871l-98.383-98.164 42.418-42.418c23.644 23.644 48.61 48.615 98.368 98.368l-42.403 42.214zm368.114-219.349c-22.156 55.135-70.15 90.726-104.328 112.703-10.988 7.072-23.987 10.808-37.596 10.808h-.048l-134.98-.04h-.028c-17.466 0-39.099 9.066-50.883 23.229L90.75 343.188C98.683 326.88 140.148 272 184.842 272c20.704 0 31.52 5.699 41.981 11.209 8.202 4.321 16.682 8.79 28.016 8.79h100.195c9.922 0 18.431 7.385 19.804 17.245 1.715 11.716-7.485 22.753-19.804 22.753H254.838c-5.523 0-10 4.477-10 9.999 0 5.523 4.477 10 10 10h100.195c21.365 0 38.871-16.838 39.946-37.941 29.643-14.362 45.393-30.38 60.604-60.792a19.131 19.131 0 0 1 17.813-10.549c13.159.515 22.063 13.83 17.252 25.808z" fill="#ffffff" opacity="1" data-original="#000000" class=""></path><path d="m123.135 432.128-14.149-14.139c-3.906-3.903-10.237-3.9-14.142.005-3.904 3.907-3.901 10.237.005 14.142l14.149 14.139c3.905 3.903 10.235 3.902 14.142-.005 3.904-3.907 3.901-10.238-.005-14.142z" fill="#ffffff" opacity="1" data-original="#000000" class=""></path></g></svg>