<svg xmlns="http://www.w3.org/2000/svg" version="1.1" xmlns:xlink="http://www.w3.org/1999/xlink" width="512" height="512" x="0" y="0" viewBox="0 0 128 128" style="enable-background:new 0 0 512 512" xml:space="preserve" class=""><g><defs><linearGradient id="a"><stop offset="0" stop-color="#f6cfbe"></stop><stop offset="1" stop-color="#edad99"></stop></linearGradient><linearGradient xlink:href="#a" id="h" x1="64" x2="64" y1="93.833" y2="83.333" gradientUnits="userSpaceOnUse"></linearGradient><linearGradient id="b"><stop offset="0" stop-color="#ffcf97"></stop><stop offset="1" stop-color="#ffac6a"></stop></linearGradient><linearGradient xlink:href="#b" id="i" x1="832.845" x2="833.106" y1="75.278" y2="65.482" gradientTransform="matrix(-1 0 0 1 895.999 0)" gradientUnits="userSpaceOnUse"></linearGradient><linearGradient xlink:href="#b" id="j" x1="66.124" x2="65.124" y1="53.222" y2="70.055" gradientUnits="userSpaceOnUse"></linearGradient><linearGradient id="c"><stop offset="0" stop-color="#eff0f0"></stop><stop offset="1" stop-color="#e4e5e6"></stop></linearGradient><linearGradient xlink:href="#c" id="k" x1="15.741" x2="19.16" y1="152.523" y2="119.665" gradientUnits="userSpaceOnUse"></linearGradient><linearGradient xlink:href="#c" id="l" x1="34.596" x2="31.453" y1="145.075" y2="172.107" gradientUnits="userSpaceOnUse"></linearGradient><linearGradient xlink:href="#c" id="m" x1="1419.742" x2="1423.161" y1="152.523" y2="119.665" gradientTransform="matrix(-1 0 0 1 1532.002 0)" gradientUnits="userSpaceOnUse"></linearGradient><linearGradient xlink:href="#c" id="n" x1="1504.596" x2="1501.453" y1="145.075" y2="172.107" gradientTransform="matrix(-1 0 0 1 1598 0)" gradientUnits="userSpaceOnUse"></linearGradient><linearGradient xlink:href="#a" id="o" x1="93" x2="93" y1="23.667" y2="72.341" gradientUnits="userSpaceOnUse"></linearGradient><linearGradient xlink:href="#a" id="p" x1="34" x2="34" y1="23.667" y2="72.341" gradientUnits="userSpaceOnUse"></linearGradient><linearGradient xlink:href="#a" id="q" x1="68.857" x2="71.607" y1="19.17" y2="4.92" gradientUnits="userSpaceOnUse"></linearGradient><linearGradient id="r" x1="63" x2="63" y1="-17.25" y2="65.949" gradientUnits="userSpaceOnUse"><stop offset="0" stop-color="#957e7f"></stop><stop offset="1" stop-color="#373638"></stop></linearGradient><linearGradient xlink:href="#a" id="s" x1="65.211" x2="64.711" y1="54.839" y2="62.339" gradientUnits="userSpaceOnUse"></linearGradient><linearGradient id="d"><stop offset="0" stop-color="#58595b"></stop><stop offset="1" stop-color="#414042"></stop></linearGradient><linearGradient xlink:href="#d" id="t" x1="50.756" x2="50.881" y1="86.501" y2="69.877" gradientUnits="userSpaceOnUse"></linearGradient><linearGradient xlink:href="#d" id="u" x1="76.755" x2="76.88" y1="86.648" y2="70.023" gradientUnits="userSpaceOnUse"></linearGradient><linearGradient xlink:href="#d" id="v" x1="50.599" x2="50.766" y1="98.335" y2="76.169" gradientUnits="userSpaceOnUse"></linearGradient><linearGradient xlink:href="#d" id="w" x1="76.597" x2="76.764" y1="98.531" y2="76.364" gradientUnits="userSpaceOnUse"></linearGradient><linearGradient xlink:href="#a" id="x" x1="40.967" x2="48.905" y1="70.033" y2="68.408" gradientUnits="userSpaceOnUse"></linearGradient><linearGradient xlink:href="#c" id="y" x1="59.893" x2="57.914" y1="158.565" y2="149.549" gradientUnits="userSpaceOnUse"></linearGradient><linearGradient xlink:href="#c" id="z" x1="1463.894" x2="1461.915" y1="158.565" y2="149.549" gradientTransform="matrix(-1 0 0 1 1532.002 0)" gradientUnits="userSpaceOnUse"></linearGradient><linearGradient id="e"><stop offset="0" stop-color="#d0d3d3"></stop><stop offset="1" stop-color="#aaaeb1"></stop></linearGradient><linearGradient xlink:href="#e" id="A" x1="41.473" x2="41.247" y1="126.932" y2="124.311" gradientUnits="userSpaceOnUse"></linearGradient><linearGradient xlink:href="#d" id="B" x1="36.63" x2="36.88" y1="77.692" y2="79.692" gradientUnits="userSpaceOnUse"></linearGradient><linearGradient xlink:href="#d" id="C" x1="36.603" x2="36.584" y1="119.669" y2="119.447" gradientUnits="userSpaceOnUse"></linearGradient><linearGradient xlink:href="#d" id="D" x1="32.603" x2="32.584" y1="119.669" y2="119.447" gradientTransform="matrix(-1 0 0 1 75 0)" gradientUnits="userSpaceOnUse"></linearGradient><linearGradient xlink:href="#d" id="E" x1="83.56" x2="83.81" y1="71.826" y2="73.826" gradientUnits="userSpaceOnUse"></linearGradient><linearGradient xlink:href="#d" id="F" x1="43.52" x2="43.77" y1="76.831" y2="78.831" gradientUnits="userSpaceOnUse"></linearGradient><linearGradient id="f"><stop offset="0" stop-color="#6c6f73"></stop><stop offset="1" stop-color="#56585b"></stop></linearGradient><linearGradient xlink:href="#f" id="G" x1="103.171" x2="105.593" y1="113.609" y2="114.468" gradientUnits="userSpaceOnUse"></linearGradient><linearGradient xlink:href="#d" id="H" x1="73.449" x2="81.283" y1="107.4" y2="108.442" gradientUnits="userSpaceOnUse"></linearGradient><linearGradient xlink:href="#f" id="J" x1="73.449" x2="81.283" y1="107.4" y2="108.442" gradientUnits="userSpaceOnUse"></linearGradient><linearGradient xlink:href="#e" id="K" x1="73.449" x2="81.283" y1="107.4" y2="108.442" gradientUnits="userSpaceOnUse"></linearGradient><clipPath id="I"><use xlink:href="#g"></use></clipPath><circle id="g" cx="93" cy="110" r="5" fill="#ffffff" opacity="1" data-original="#000000"></circle></defs><path fill="url(#a)" d="M52 76h24v21H52z" opacity="1" data-original="url(#a)" class=""></path><path fill="url(#b)" d="M52 87.999c2.737 2.914 7.093 5 12 5 5.019 0 9.277-1.972 12-5V126H52z" opacity="1" data-original="url(#b)"></path><path fill="url(#b)" d="M52 87.999c2.737 2.914 7.093 5 12 5 5.019 0 9.277-1.972 12-5 1.108.245 2.479.576 4.025.975-2.326 4.671-8.613 8.025-16.025 8.025s-13.699-3.354-16.025-8.025c1.546-.399 2.917-.729 4.025-.975z" opacity="1" data-original="url(#b)"></path><path fill="url(#c)" d="M35 98.999 17 97S7 107 2 126h33z" opacity="1" data-original="url(#c)"></path><path fill="url(#c)" d="M48 87c-7.129 1.579-25.089 5.665-31 10l10 29h33z" opacity="1" data-original="url(#c)"></path><path fill="url(#c)" d="M93 98.999 111 97s10 10 15 29H93z" opacity="1" data-original="url(#c)"></path><path fill="url(#c)" d="M80 87c7.129 1.579 25.089 5.665 31 10l-10 29H68z" opacity="1" data-original="url(#c)"></path><path fill="url(#a)" d="M100 52.857C100 57.275 96.866 62 93 62s-7-4.725-7-9.143S89.134 46 93 46s7 2.439 7 6.857z" opacity="1" data-original="url(#a)" class=""></path><path fill="url(#a)" d="M41 52.857C41 57.275 37.866 62 34 62s-7-4.725-7-9.143S30.134 46 34 46s7 2.439 7 6.857z" opacity="1" data-original="url(#a)" class=""></path><path fill="url(#a)" d="M89 28H39c-2.238.543-4 2.697-4 5v20.007C35 70 48 83 64 83s29-13 29-29.993V33c0-2.31-1.753-4.463-4-5z" opacity="1" data-original="url(#a)" class=""></path><path fill="url(#r)" d="M64 2c15.685 0 33 12.188 33 31-.052 11.912-4 20-4 20 0-6-3-20-3-20-17 4-51-4-51-4s-4 6-4 24c0 0-6-7-6-19 0-14.964 7-18 7-18S38 2 64 2z" opacity="1" data-original="url(#r)" class=""></path><path fill="url(#a)" d="M63.982 76c-2.26 0-4.514-.728-6.562-2.182a1 1 0 0 1 1.159-1.631c3.423 2.433 7.376 2.432 10.847-.003a1 1 0 1 1 1.149 1.637C68.504 75.273 66.24 76 63.982 76z" opacity="1" data-original="url(#a)" class=""></path><circle cx="51" cy="54" r="3" fill="url(#t)" opacity="1" data-original="url(#t)"></circle><circle cx="77" cy="54" r="3" fill="url(#u)" opacity="1" data-original="url(#u)"></circle><path fill="url(#d)" d="M56.999 45.994a1 1 0 0 1-.528-.151c-5.559-3.461-9.18-1.133-10.726-.138l-.21.135a1.001 1.001 0 0 1-1.069-1.691l.198-.126c1.704-1.097 6.234-4.007 12.865.123a1 1 0 0 1-.53 1.848z" opacity="1" data-original="url(#d)"></path><path fill="url(#d)" d="M71.001 45.994a1 1 0 0 1-.53-1.848c6.632-4.132 11.161-1.219 12.866-.123l.197.126a1.001 1.001 0 0 1-1.069 1.691l-.21-.134c-1.545-.994-5.168-3.323-10.727.138-.164.101-.346.15-.527.15z" opacity="1" data-original="url(#d)"></path><path fill="url(#a)" d="M63.996 67h-.005c-.975-.002-1.916-.457-2.721-1.316a1.001 1.001 0 0 1 1.46-1.368c.292.311.748.683 1.264.684h.002c.52 0 .981-.373 1.277-.687a1 1 0 1 1 1.455 1.373c-.812.86-1.756 1.314-2.732 1.314z" opacity="1" data-original="url(#a)" class=""></path><path fill="url(#c)" d="m52 84 8 42-16-15 2-8-7-1.001 8-15c.812-1.469 3.125-2.998 5-2.999z" opacity="1" data-original="url(#c)"></path><path fill="url(#c)" d="m76 84-8 42 16-15-2-8 7-1.001-8-15c-.812-1.469-3.125-2.998-5-2.999z" opacity="1" data-original="url(#c)"></path><path fill="url(#e)" d="M47 119h-5a1 1 0 1 1 0-2h5c1.103 0 2-.897 2-2v-10c0-4.963-4.038-9-9-9s-9 4.037-9 9v10c0 1.103.897 2 2 2h4a1 1 0 1 1 0 2h-4c-2.206 0-4-1.794-4-4v-10c0-6.065 4.935-11 11-11s11 4.935 11 11v10c0 2.206-1.794 4-4 4z" opacity="1" data-original="url(#e)"></path><path fill="url(#d)" d="M40 94c-6.065 0-11 4.935-11 11h2c0-4.963 4.038-9 9-9s9 4.037 9 9h2c0-6.065-4.935-11-11-11z" opacity="1" data-original="url(#d)"></path><path fill="url(#d)" d="M37 117h-2v2h2a1 1 0 1 0 0-2z" opacity="1" data-original="url(#d)"></path><path fill="url(#d)" d="M42 117h2v2h-2a1 1 0 1 1 0-2z" opacity="1" data-original="url(#d)"></path><path fill="url(#d)" d="M79.983 78.136A28.649 28.649 0 0 1 76.787 80H78c7.72 0 14 6.28 14 14v12a1 1 0 1 0 2 0V94c0-8.149-6.129-14.882-14.017-15.864z" opacity="1" data-original="url(#d)"></path><path fill="url(#d)" d="M48.081 78.179C42.929 79.09 39 83.59 39 89v6a1 1 0 1 0 2 0v-6c0-4.963 4.038-9 9-9a.99.99 0 0 0 .682-.276 28.669 28.669 0 0 1-2.601-1.545z" opacity="1" data-original="url(#d)"></path><circle cx="93" cy="110" r="5" fill="url(#G)" opacity="1" data-original="url(#G)"></circle><use xlink:href="#g" fill="url(#H)"></use><path fill="url(#f)" d="M88 105h10v10H88z" clip-path="url(#I)" opacity="1" data-original="url(#f)" class=""></path><path fill="url(#e)" d="M93 116c-3.309 0-6-2.691-6-6s2.691-6 6-6 6 2.691 6 6-2.691 6-6 6zm0-10c-2.206 0-4 1.794-4 4s1.794 4 4 4 4-1.794 4-4-1.794-4-4-4z" opacity="1" data-original="url(#e)"></path></g></svg>