<svg width="24" height="24" viewBox="0 0 24 24" fill="none" xmlns="http://www.w3.org/2000/svg">
<rect width="24" height="24" rx="12" fill="white"/>
<path fill-rule="evenodd" clip-rule="evenodd" d="M9.83333 5.33337C9.83333 5.05723 9.60948 4.83337 9.33333 4.83337C9.05719 4.83337 8.83333 5.05723 8.83333 5.33337V6.50619C7.4532 6.92637 6.38942 8.07262 6.08693 9.50004H17.9131C17.6106 8.07262 16.5468 6.92637 15.1667 6.50619V5.33337C15.1667 5.05723 14.9428 4.83337 14.6667 4.83337C14.3905 4.83337 14.1667 5.05723 14.1667 5.33337V6.33678C14.1114 6.33452 14.0558 6.33337 14 6.33337H10C9.94417 6.33337 9.88861 6.33452 9.83333 6.33678V5.33337ZM6 10.5H18V14.6667C18 16.8758 16.2091 18.6667 14 18.6667H10C7.79086 18.6667 6 16.8758 6 14.6667V10.5ZM12 14.6667C12.3682 14.6667 12.6667 14.3682 12.6667 14C12.6667 13.6319 12.3682 13.3334 12 13.3334C11.6318 13.3334 11.3333 13.6319 11.3333 14C11.3333 14.3682 11.6318 14.6667 12 14.6667ZM15.3333 14C15.3333 14.3682 15.0349 14.6667 14.6667 14.6667C14.2985 14.6667 14 14.3682 14 14C14 13.6319 14.2985 13.3334 14.6667 13.3334C15.0349 13.3334 15.3333 13.6319 15.3333 14ZM9.33333 14.6667C9.70152 14.6667 10 14.3682 10 14C10 13.6319 9.70152 13.3334 9.33333 13.3334C8.96514 13.3334 8.66667 13.6319 8.66667 14C8.66667 14.3682 8.96514 14.6667 9.33333 14.6667Z" fill="#12B5E4"/>
</svg>
