<svg width="24" height="24" viewBox="0 0 24 24" fill="none" xmlns="http://www.w3.org/2000/svg">
<g clip-path="url(#clip0_51_1864)">
<rect y="24" width="24" height="24" rx="12" transform="rotate(-90 0 24)" fill="white"/>
<path d="M10.7106 17.5737L10.9139 15.6745C10.9421 15.4104 11.0498 15.1683 11.2233 14.9786L12.2755 13.8281C12.5182 13.5627 12.9523 13.5647 13.2451 13.8325L15.1077 15.536C15.6404 16.0232 16.4185 15.5741 16.2008 14.9051L15.1524 11.6834C15.003 11.2242 15.0963 10.744 15.3993 10.4127L16.1396 9.60326C16.6752 9.01766 16.6347 8.10875 16.0491 7.57315C15.4635 7.03756 14.5546 7.07809 14.019 7.66369L13.2787 8.47312C12.9756 8.80444 12.5057 8.94014 12.035 8.83219L8.73272 8.07474C8.04704 7.91747 7.66896 8.73248 8.20161 9.21964L10.0642 10.9232C10.357 11.191 10.3976 11.6232 10.1549 11.8885L9.10267 13.039C8.92915 13.2287 8.69756 13.3575 8.43707 13.4091L6.56348 13.7806C5.88696 13.9148 5.91709 14.8728 6.60488 15.0972L7.90784 15.5223C8.33007 15.6601 8.68143 15.9814 8.85622 16.3897L9.39562 17.6496C9.68036 18.3147 10.6373 18.2595 10.7106 17.5737Z" fill="#12B5E4"/>
</g>
<defs>
<clipPath id="clip0_51_1864">
<rect y="24" width="24" height="24" rx="12" transform="rotate(-90 0 24)" fill="white"/>
</clipPath>
</defs>
</svg>
