<svg width="24" height="24" viewBox="0 0 24 24" fill="none" xmlns="http://www.w3.org/2000/svg">
<g clip-path="url(#clip0_51_1869)">
<rect width="24" height="24" rx="12" fill="white"/>
<path d="M6.42631 10.7104L8.32554 10.9136C8.58959 10.9419 8.83173 11.0496 9.02145 11.2231L10.1719 12.2753C10.4373 12.518 10.4353 12.9521 10.1675 13.2449L8.46396 15.1075C7.97679 15.6401 8.42591 16.4182 9.09487 16.2005L12.3166 15.1521C12.7758 15.0027 13.256 15.096 13.5873 15.3991L14.3967 16.1394C14.9823 16.675 15.8912 16.6344 16.4268 16.0488C16.9624 15.4632 16.9219 14.5543 16.3363 14.0187L15.5269 13.2784C15.1956 12.9754 15.0599 12.5054 15.1678 12.0348L15.9253 8.73247C16.0825 8.04679 15.2675 7.66872 14.7804 8.20137L13.0768 10.0639C12.809 10.3567 12.3768 10.3973 12.1115 10.1546L10.961 9.10242C10.7713 8.92891 10.6425 8.69732 10.5909 8.43683L10.2194 6.56323C10.0852 5.88671 9.12721 5.91684 8.90281 6.60464L8.4777 7.9076C8.33995 8.32982 8.01859 8.68118 7.6103 8.85598L6.35036 9.39538C5.68527 9.68012 5.74054 10.637 6.42631 10.7104Z" fill="#12B5E4"/>
</g>
<defs>
<clipPath id="clip0_51_1869">
<rect width="24" height="24" rx="12" fill="white"/>
</clipPath>
</defs>
</svg>
