<svg width="24" height="24" viewBox="0 0 24 24" fill="none" xmlns="http://www.w3.org/2000/svg">
<rect width="24" height="24" rx="12" fill="white"/>
<path fill-rule="evenodd" clip-rule="evenodd" d="M6.16683 6C6.16683 5.72386 6.39069 5.5 6.66683 5.5H7.3335C8.34602 5.5 9.16683 6.32081 9.16683 7.33333V7.5H15.3335C16.346 7.5 17.1668 8.32081 17.1668 9.33333V14.3667C17.6431 14.6102 17.999 15.0557 18.121 15.5906C18.4519 15.8332 18.6668 16.2248 18.6668 16.6667C18.6668 17.403 18.0699 18 17.3335 18C16.5971 18 16.0002 17.403 16.0002 16.6667C16.0002 16.0772 16.3826 15.5771 16.913 15.401C16.811 15.3023 16.684 15.2294 16.5422 15.1929C16.476 15.1759 16.4062 15.1667 16.3335 15.1667H12.9716C12.9905 15.0026 13.0002 14.8358 13.0002 14.6667C13.0002 12.2734 11.0601 10.3333 8.66683 10.3333C8.49773 10.3333 8.33088 10.343 8.16683 10.3619V7.33333C8.16683 6.8731 7.79373 6.5 7.3335 6.5H6.66683C6.39069 6.5 6.16683 6.27614 6.16683 6ZM12.0002 14.6667C12.0002 16.5076 10.5078 18 8.66683 18C6.82588 18 5.3335 16.5076 5.3335 14.6667C5.3335 12.8257 6.82588 11.3333 8.66683 11.3333C10.5078 11.3333 12.0002 12.8257 12.0002 14.6667Z" fill="#12B5E4"/>
</svg>
