<svg width="24" height="24" viewBox="0 0 24 24" fill="none" xmlns="http://www.w3.org/2000/svg">
<rect width="24" height="24" rx="12" fill="white"/>
<path fill-rule="evenodd" clip-rule="evenodd" d="M18.6668 8.66671C18.6668 10.5077 17.1744 12 15.3335 12C13.4925 12 12.0002 10.5077 12.0002 8.66671C12.0002 6.82576 13.4925 5.33337 15.3335 5.33337C17.1744 5.33337 18.6668 6.82576 18.6668 8.66671ZM14.0002 6.58337C14.4144 6.58337 14.7502 6.91916 14.7502 7.33337V7.91671L15.9168 7.91671V7.33337C15.9168 6.91916 16.2526 6.58337 16.6668 6.58337C17.081 6.58337 17.4168 6.91916 17.4168 7.33337V8.66671V10C17.4168 10.4143 17.081 10.75 16.6668 10.75C16.2526 10.75 15.9168 10.4143 15.9168 10V9.41671H14.7502V10C14.7502 10.4143 14.4144 10.75 14.0002 10.75C13.5859 10.75 13.2502 10.4143 13.2502 10V8.66671V7.33337C13.2502 6.91916 13.5859 6.58337 14.0002 6.58337ZM16.0002 16.8999V17.4815C16.0002 18.1361 15.4695 18.6667 14.815 18.6667C9.5785 18.6667 5.3335 14.4217 5.3335 9.18523C5.3335 8.53067 5.86412 8.00004 6.51868 8.00004H7.10028C7.82273 8.00004 8.4724 8.43988 8.74071 9.11066L8.98952 9.7327C9.26769 10.4281 8.96636 11.2206 8.29646 11.5556C8.29646 11.5556 8.59276 13.0371 9.77794 14.2223C10.9631 15.4074 12.4446 15.7037 12.4446 15.7037C12.7796 15.0338 13.5721 14.7325 14.2675 15.0107L14.8895 15.2595C15.5603 15.5278 16.0002 16.1775 16.0002 16.8999Z" fill="#12B5E4"/>
</svg>
