<svg width="42" height="42" viewBox="0 0 42 42" fill="none" xmlns="http://www.w3.org/2000/svg">
<g filter="url(#filter0_d_51_1962)">
<rect x="6" y="34" width="30" height="30" rx="6" transform="rotate(-90 6 34)" fill="white"/>
<path fill-rule="evenodd" clip-rule="evenodd" d="M20.5303 15.4697L17.5303 12.4697C17.2374 12.1768 16.7626 12.1768 16.4697 12.4697L13.4697 15.4697C13.1768 15.7626 13.1768 16.2374 13.4697 16.5303C13.7626 16.8232 14.2374 16.8232 14.5303 16.5303L16.25 14.8107V25C16.25 25.4142 16.5858 25.75 17 25.75C17.4142 25.75 17.75 25.4142 17.75 25L17.75 14.8107L19.4697 16.5303C19.7626 16.8232 20.2374 16.8232 20.5303 16.5303C20.8232 16.2374 20.8232 15.7626 20.5303 15.4697ZM24.4697 25.5303C24.7626 25.8232 25.2374 25.8232 25.5303 25.5303L28.5303 22.5303C28.8232 22.2374 28.8232 21.7626 28.5303 21.4697C28.2374 21.1768 27.7626 21.1768 27.4697 21.4697L25.75 23.1893L25.75 13C25.75 12.5858 25.4142 12.25 25 12.25C24.5858 12.25 24.25 12.5858 24.25 13L24.25 23.1893L22.5303 21.4697C22.2374 21.1768 21.7626 21.1768 21.4697 21.4697C21.1768 21.7626 21.1768 22.2374 21.4697 22.5303L24.4697 25.5303Z" fill="#12B5E4"/>
</g>
<defs>
<filter id="filter0_d_51_1962" x="0" y="0" width="42" height="42" filterUnits="userSpaceOnUse" color-interpolation-filters="sRGB">
<feFlood flood-opacity="0" result="BackgroundImageFix"/>
<feColorMatrix in="SourceAlpha" type="matrix" values="0 0 0 0 0 0 0 0 0 0 0 0 0 0 0 0 0 0 127 0" result="hardAlpha"/>
<feMorphology radius="2" operator="dilate" in="SourceAlpha" result="effect1_dropShadow_51_1962"/>
<feOffset dy="2"/>
<feGaussianBlur stdDeviation="2"/>
<feComposite in2="hardAlpha" operator="out"/>
<feColorMatrix type="matrix" values="0 0 0 0 0 0 0 0 0 0 0 0 0 0 0 0 0 0 0.07 0"/>
<feBlend mode="normal" in2="BackgroundImageFix" result="effect1_dropShadow_51_1962"/>
<feBlend mode="normal" in="SourceGraphic" in2="effect1_dropShadow_51_1962" result="shape"/>
</filter>
</defs>
</svg>
