<svg width="40" height="40" viewBox="0 0 40 40" fill="none" xmlns="http://www.w3.org/2000/svg">
<rect width="40" height="40" fill="#40D1F0"/>
<path d="M19.9993 16.1475C18.9774 16.1475 17.9973 16.5534 17.2746 17.2761C16.552 17.9987 16.146 18.9788 16.146 20.0008C16.146 21.0228 16.552 22.0029 17.2746 22.7255C17.9973 23.4482 18.9774 23.8541 19.9993 23.8541C21.0213 23.8541 22.0014 23.4482 22.724 22.7255C23.4467 22.0029 23.8527 21.0228 23.8527 20.0008C23.8527 18.9788 23.4467 17.9987 22.724 17.2761C22.0014 16.5534 21.0213 16.1475 19.9993 16.1475ZM19.9993 22.5033C19.3354 22.5033 18.6987 22.2395 18.2292 21.7701C17.7597 21.3006 17.496 20.6639 17.496 20C17.496 19.336 17.7597 18.6993 18.2292 18.2298C18.6987 17.7604 19.3354 17.4966 19.9993 17.4966C20.6633 17.4966 21.3 17.7604 21.7695 18.2298C22.2389 18.6993 22.5027 19.336 22.5027 20C22.5027 20.6639 22.2389 21.3006 21.7695 21.7701C21.3 22.2395 20.6633 22.5033 19.9993 22.5033Z" fill="white"/>
<path d="M24.0048 16.9042C24.5009 16.9042 24.9031 16.502 24.9031 16.0059C24.9031 15.5097 24.5009 15.1075 24.0048 15.1075C23.5086 15.1075 23.1064 15.5097 23.1064 16.0059C23.1064 16.502 23.5086 16.9042 24.0048 16.9042Z" fill="white"/>
<path d="M26.6092 14.5883C26.4163 14.0901 26.1214 13.6377 25.7436 13.26C25.3658 12.8824 24.9133 12.5877 24.415 12.395C23.8319 12.1761 23.216 12.0578 22.5933 12.045C21.7908 12.01 21.5367 12 19.5017 12C17.4667 12 17.2058 12 16.41 12.045C15.7878 12.0571 15.1723 12.1755 14.59 12.395C14.0916 12.5875 13.639 12.8821 13.2611 13.2598C12.8833 13.6375 12.5885 14.09 12.3958 14.5883C12.1769 15.1713 12.0588 15.7874 12.0467 16.41C12.0108 17.2117 12 17.4658 12 19.5017C12 21.5367 12 21.7958 12.0467 22.5933C12.0592 23.2167 12.1767 23.8317 12.3958 24.4158C12.5891 24.914 12.8841 25.3663 13.262 25.744C13.64 26.1216 14.0926 26.4163 14.5908 26.6092C15.172 26.8368 15.7878 26.9636 16.4117 26.9842C17.2142 27.0192 17.4683 27.03 19.5033 27.03C21.5383 27.03 21.7992 27.03 22.595 26.9842C23.2176 26.9715 23.8335 26.8534 24.4167 26.635C24.9148 26.4418 25.3672 26.1469 25.745 25.7691C26.1228 25.3914 26.4177 24.939 26.6108 24.4408C26.83 23.8575 26.9475 23.2425 26.96 22.6192C26.9958 21.8175 27.0067 21.5633 27.0067 19.5275C27.0067 17.4917 27.0067 17.2333 26.96 16.4358C26.9503 15.8044 26.8316 15.1794 26.6092 14.5883ZM25.5942 22.5317C25.5888 23.0119 25.5011 23.4877 25.335 23.9383C25.2099 24.2624 25.0183 24.5567 24.7726 24.8022C24.5269 25.0478 24.2325 25.2392 23.9083 25.3642C23.4627 25.5295 22.992 25.6172 22.5167 25.6233C21.725 25.66 21.5017 25.6692 19.4717 25.6692C17.44 25.6692 17.2325 25.6692 16.4258 25.6233C15.9508 25.6175 15.4803 25.5298 15.035 25.3642C14.7097 25.24 14.4142 25.0489 14.1674 24.8033C13.9206 24.5577 13.7282 24.263 13.6025 23.9383C13.4387 23.4925 13.3511 23.0224 13.3433 22.5475C13.3075 21.7558 13.2992 21.5325 13.2992 19.5025C13.2992 17.4717 13.2992 17.2642 13.3433 16.4567C13.3487 15.9767 13.4364 15.5012 13.6025 15.0508C13.8567 14.3933 14.3775 13.8758 15.035 13.6242C15.4805 13.4593 15.9509 13.3716 16.4258 13.365C17.2183 13.3292 17.4408 13.3192 19.4717 13.3192C21.5025 13.3192 21.7108 13.3192 22.5167 13.365C22.992 13.3707 23.4628 13.4584 23.9083 13.6242C24.2324 13.7494 24.5268 13.941 24.7725 14.1867C25.0182 14.4324 25.2098 14.7267 25.335 15.0508C25.4988 15.4966 25.5864 15.9668 25.5942 16.4417C25.63 17.2342 25.6392 17.4567 25.6392 19.4875C25.6392 21.5175 25.6392 21.7358 25.6033 22.5325H25.5942V22.5317Z" fill="white"/>
</svg>
