<svg width="40" height="40" viewBox="0 0 40 40" fill="none" xmlns="http://www.w3.org/2000/svg">
<rect width="40" height="40" fill="#40D1F0"/>
<path fill-rule="evenodd" clip-rule="evenodd" d="M17.8573 17.4741H20.9523V19.0158C21.3982 18.1291 22.5415 17.3325 24.259 17.3325C27.5515 17.3325 28.3332 19.0975 28.3332 22.3358V28.3333H24.9998V23.0733C24.9998 21.2291 24.554 20.1891 23.419 20.1891C21.8448 20.1891 21.1907 21.31 21.1907 23.0725V28.3333H17.8573V17.4741ZM12.1415 28.1916H15.4748V17.3325H12.1415V28.1916ZM15.9523 13.7916C15.9525 14.071 15.8971 14.3477 15.7893 14.6054C15.6816 14.8632 15.5237 15.0971 15.3248 15.2933C14.9218 15.6938 14.3763 15.918 13.8082 15.9166C13.241 15.9162 12.6968 15.6926 12.2932 15.2941C12.095 15.0972 11.9377 14.8631 11.8301 14.6053C11.7226 14.3475 11.667 14.071 11.6665 13.7916C11.6665 13.2275 11.8915 12.6875 12.294 12.2891C12.6972 11.8901 13.2417 11.6664 13.809 11.6666C14.3773 11.6666 14.9223 11.8908 15.3248 12.2891C15.7265 12.6875 15.9523 13.2275 15.9523 13.7916Z" fill="white"/>
</svg>
