<svg width="40" height="40" viewBox="0 0 40 40" fill="none" xmlns="http://www.w3.org/2000/svg">
<rect width="40" height="40" fill="#40D1F0"/>
<path d="M26.3251 15.575C25.4944 15.3923 24.7429 14.9512 24.1785 14.3149C23.6141 13.6786 23.2657 12.8799 23.1835 12.0333V11.6666H20.3085V23.0583C20.309 23.5638 20.1506 24.0566 19.8555 24.467C19.5604 24.8774 19.1437 25.1845 18.6643 25.3449C18.185 25.5053 17.6673 25.5108 17.1847 25.3607C16.702 25.2105 16.2789 24.9123 15.9751 24.5083C15.703 24.1507 15.5364 23.724 15.4941 23.2766C15.4518 22.8292 15.5355 22.3789 15.7358 21.9766C15.9361 21.5743 16.2449 21.2361 16.6274 21.0002C17.0099 20.7643 17.4507 20.6401 17.9001 20.6416C18.1487 20.6402 18.3959 20.6767 18.6335 20.75V17.8333C18.3571 17.7991 18.0785 17.7851 17.8001 17.7916C16.7745 17.819 15.7792 18.1449 14.936 18.7294C14.0928 19.3138 13.4384 20.1314 13.0528 21.0822C12.6672 22.0329 12.5672 23.0754 12.7651 24.0821C12.9629 25.0888 13.45 26.0159 14.1668 26.75C14.9014 27.4968 15.8414 28.0084 16.8674 28.2198C17.8934 28.4312 18.959 28.3328 19.929 27.9371C20.899 27.5415 21.7294 26.8664 22.3148 25.9977C22.9002 25.129 23.2142 24.1058 23.2168 23.0583V17.225C24.3763 18.0533 25.7668 18.4963 27.1918 18.4916V15.6583C26.9119 15.6594 26.6326 15.6315 26.3585 15.575H26.3251Z" fill="white"/>
</svg>
