<svg width="40" height="40" viewBox="0 0 40 40" fill="none" xmlns="http://www.w3.org/2000/svg">
<rect width="40" height="40" fill="#40D1F0"/>
<path d="M27.9217 13.8246C27.2258 14.1329 26.4783 14.3413 25.6925 14.4354C26.5033 13.9503 27.11 13.1867 27.3992 12.2871C26.6374 12.7396 25.8036 13.0581 24.9342 13.2288C24.3495 12.6045 23.5751 12.1907 22.7311 12.0517C21.8872 11.9126 21.0209 12.0561 20.2669 12.4598C19.5128 12.8635 18.9131 13.5049 18.561 14.2844C18.2088 15.0638 18.1238 15.9377 18.3192 16.7704C16.7756 16.6929 15.2655 16.2917 13.887 15.5929C12.5085 14.894 11.2924 13.9131 10.3175 12.7138C9.98417 13.2888 9.7925 13.9554 9.7925 14.6654C9.79213 15.3046 9.94953 15.934 10.2507 16.4977C10.5519 17.0615 10.9876 17.5421 11.5192 17.8971C10.9027 17.8775 10.2999 17.7109 9.76083 17.4113V17.4613C9.76077 18.3577 10.0709 19.2266 10.6385 19.9204C11.2061 20.6143 11.9963 21.0904 12.875 21.2679C12.3032 21.4227 11.7036 21.4455 11.1217 21.3346C11.3696 22.1059 11.8525 22.7805 12.5028 23.2637C13.1531 23.747 13.9383 24.0147 14.7483 24.0296C13.3732 25.1091 11.6749 25.6947 9.92667 25.6921C9.61698 25.6922 9.30756 25.6741 9 25.6379C10.7746 26.7789 12.8403 27.3845 14.95 27.3821C22.0917 27.3821 25.9958 21.4671 25.9958 16.3371C25.9958 16.1704 25.9917 16.0021 25.9842 15.8354C26.7436 15.2862 27.3991 14.6062 27.92 13.8271L27.9217 13.8246Z" fill="white"/>
</svg>
